<svg width="380" height="110" viewBox="0 0 380 110" fill="none" xmlns="http://www.w3.org/2000/svg">
<path d="M379.554 98.372C379.554 99.8044 379.272 101.223 378.723 102.546C378.175 103.869 377.37 105.071 376.357 106.084C375.343 107.096 374.14 107.899 372.816 108.446C371.492 108.993 370.073 109.274 368.64 109.272H11.4622C8.56726 109.275 5.78965 108.129 3.74021 106.084C1.69078 104.04 0.537342 101.266 0.533569 98.372V11.4471C0.53734 8.55159 1.69032 5.77594 3.73935 3.7296C5.78837 1.68325 8.56595 0.533466 11.4622 0.532715H368.637C370.07 0.532715 371.49 0.815044 372.814 1.36358C374.139 1.91211 375.342 2.7161 376.356 3.72963C377.369 4.74316 378.173 5.94637 378.721 7.27054C379.27 8.59472 379.552 10.0139 379.551 11.4471L379.554 98.372Z" fill="white"/>
<path d="M379.554 98.372C379.554 99.8044 379.272 101.223 378.723 102.546C378.175 103.869 377.37 105.071 376.357 106.084C375.343 107.096 374.14 107.899 372.816 108.446C371.492 108.993 370.073 109.274 368.64 109.272H11.4622C8.56726 109.275 5.78965 108.129 3.74021 106.084C1.69078 104.04 0.537342 101.266 0.533569 98.372V11.4471C0.53734 8.55159 1.69032 5.77594 3.73935 3.7296C5.78837 1.68325 8.56595 0.533466 11.4622 0.532715H368.637C370.07 0.532715 371.49 0.815044 372.814 1.36358C374.139 1.91211 375.342 2.7161 376.356 3.72963C377.369 4.74316 378.173 5.94637 378.721 7.27054C379.27 8.59472 379.552 10.0139 379.551 11.4471L379.554 98.372Z" fill="black"/>
<path d="M83.7665 54.3048C83.684 45.1322 91.2791 40.6697 91.6264 40.462C87.3249 34.1923 80.6579 33.3356 78.315 33.2673C72.7155 32.6782 67.2839 36.617 64.4315 36.617C61.5221 36.617 57.1296 33.3242 52.3954 33.421C46.3034 33.5149 40.6042 37.0411 37.4785 42.5168C31.0278 53.6816 35.8388 70.0887 42.0191 79.1133C45.1106 83.536 48.7231 88.4681 53.4516 88.2944C58.0775 88.1066 59.8055 85.3489 65.388 85.3489C70.9192 85.3489 72.5418 88.2945 77.3642 88.1835C82.3289 88.1066 85.4546 83.7437 88.438 79.2841C92.0107 74.2211 93.4454 69.2292 93.5024 68.9731C93.3885 68.9332 83.8633 65.296 83.7665 54.3048ZM74.6569 27.3306C77.145 24.2199 78.8473 19.988 78.3748 15.6934C74.7737 15.8527 70.2701 18.1836 67.6767 21.226C65.3823 23.9069 63.3326 28.3011 63.8621 32.4334C67.9073 32.7351 72.0607 30.3929 74.6569 27.3306Z" fill="white"/>
<path d="M150.77 87.6596H144.305L140.764 76.5347H128.455L125.081 87.6596H118.787L130.985 49.7853H138.518L150.77 87.6596ZM139.696 71.8673L136.494 61.9775C136.155 60.9671 135.517 58.5879 134.584 54.8426H134.47C134.094 56.4534 133.493 58.8327 132.671 61.9775L129.522 71.8673H139.696ZM182.079 73.6688C182.079 78.3134 180.818 81.9847 178.293 84.6799C176.032 87.0791 173.222 88.2772 169.872 88.2772C166.254 88.2772 163.652 86.988 162.072 84.4038V98.7334H156.003V69.3258C156.003 66.4087 155.926 63.4175 155.778 60.3496H161.115L161.454 64.6783H161.568C163.592 61.4168 166.664 59.7861 170.786 59.7861C174.008 59.7861 176.698 61.0582 178.85 63.6054C181 66.1582 182.079 69.5108 182.079 73.6688ZM175.896 73.8908C175.896 71.2326 175.298 69.0412 174.096 67.3137C172.784 65.5179 171.022 64.6185 168.813 64.6185C167.315 64.6185 165.955 65.1194 164.739 66.107C163.521 67.1031 162.724 68.4037 162.351 70.0145C162.184 70.6169 162.09 71.2369 162.069 71.8616V76.418C162.069 78.4017 162.678 80.0779 163.897 81.4497C165.115 82.8158 166.698 83.5017 168.645 83.5017C170.931 83.5017 172.71 82.6166 173.983 80.8606C175.258 79.0989 175.896 76.7766 175.896 73.8908ZM213.498 73.6688C213.498 78.3134 212.237 81.9847 209.712 84.6799C207.449 87.0791 204.642 88.2772 201.288 88.2772C197.67 88.2772 195.068 86.988 193.488 84.4038V98.7334H187.419V69.3258C187.419 66.4087 187.342 63.4175 187.194 60.3496H192.532L192.871 64.6783H192.985C195.006 61.4168 198.077 59.7861 202.202 59.7861C205.422 59.7861 208.112 61.0582 210.27 63.6054C212.416 66.1582 213.498 69.5108 213.498 73.6688ZM207.312 73.8908C207.312 71.2326 206.711 69.0412 205.51 67.3137C204.198 65.5179 202.441 64.6185 200.232 64.6185C198.735 64.6185 197.374 65.1194 196.153 66.107C194.935 67.1031 194.14 68.4037 193.767 70.0145C193.582 70.7659 193.483 71.3778 193.483 71.8616V76.418C193.483 78.4017 194.095 80.0779 195.307 81.4497C196.526 82.8129 198.109 83.5017 200.062 83.5017C202.35 83.5017 204.13 82.6166 205.399 80.8606C206.675 79.0989 207.312 76.7766 207.312 73.8908ZM248.627 77.0356C248.627 80.2601 247.5 82.8812 245.259 84.9047C242.794 87.1132 239.352 88.2203 234.94 88.2203C230.863 88.2203 227.595 87.4348 225.13 85.861L226.533 80.8037C229.195 82.3803 232.119 83.1658 235.301 83.1658C237.59 83.1658 239.369 82.6479 240.639 81.6205C241.911 80.5902 242.555 79.2128 242.555 77.4938C242.555 75.9541 242.022 74.6649 240.978 73.6147C239.927 72.5674 238.191 71.5912 235.751 70.6947C229.118 68.2216 225.799 64.6043 225.799 59.8458C225.799 56.738 226.972 54.1937 229.312 52.2044C231.652 50.2179 234.755 49.2246 238.615 49.2246C242.062 49.2246 244.935 49.8251 247.215 51.0233L245.692 55.9696C243.545 54.8084 241.123 54.2279 238.413 54.2279C236.272 54.2279 234.592 54.7544 233.391 55.8017C232.381 56.738 231.868 57.8793 231.868 59.2339C231.868 60.7281 232.452 61.9689 233.613 62.9423C234.621 63.8387 236.46 64.8149 239.119 65.8622C242.381 67.1771 244.778 68.7082 246.312 70.467C247.858 72.2259 248.627 74.4201 248.627 77.0356ZM268.745 64.9031H262.055V78.1626C262.055 81.5351 263.234 83.2171 265.596 83.2171C266.681 83.2171 267.58 83.126 268.292 82.9353L268.46 87.543C267.265 87.9898 265.69 88.2146 263.74 88.2146C261.343 88.2146 259.47 87.4832 258.118 86.0204C256.771 84.5575 256.094 82.1071 256.094 78.6578V64.8918H252.108V60.3382H256.094V55.3378L262.055 53.5391V60.3382H268.745V64.9031ZM298.869 73.7798C298.869 77.9776 297.668 81.4241 295.271 84.1192C292.763 86.8941 289.426 88.2772 285.267 88.2772C281.253 88.2772 278.062 86.9481 275.682 84.2928C273.302 81.6318 272.113 78.2793 272.113 74.2351C272.113 70.0031 273.342 66.5367 275.793 63.8416C278.25 61.1436 281.558 59.7946 285.717 59.7946C289.725 59.7946 292.945 61.1265 295.382 63.7847C297.71 66.3631 298.869 69.6929 298.869 73.7798ZM292.578 73.9192C292.578 71.4176 292.037 69.2717 290.952 67.4759C289.68 65.3073 287.858 64.2229 285.498 64.2229C283.067 64.2229 281.202 65.3073 279.933 67.4759C278.845 69.2717 278.304 71.4546 278.304 74.0331C278.304 76.5375 278.845 78.6891 279.933 80.4792C281.245 82.6479 283.075 83.7322 285.447 83.7322C287.767 83.7322 289.586 82.6251 290.901 80.4251C292.017 78.5866 292.578 76.4265 292.578 73.9192ZM318.605 65.6858C317.974 65.5719 317.334 65.5157 316.692 65.5179C314.557 65.5179 312.906 66.3204 311.745 67.937C310.737 69.36 310.23 71.1586 310.23 73.3301V87.6596H304.161V68.9501C304.166 66.0833 304.108 63.2166 303.985 60.3524H309.271L309.493 65.5776H309.661C310.304 63.7818 311.312 62.3332 312.696 61.2489C313.962 60.3014 315.501 59.7883 317.082 59.7861C317.643 59.7861 318.15 59.8259 318.6 59.8971L318.605 65.6858ZM345.749 72.7125C345.764 73.6349 345.69 74.5566 345.527 75.4646H327.319C327.388 78.1626 328.27 80.2288 329.961 81.6518C331.495 82.9211 333.48 83.5586 335.916 83.5586C338.612 83.5586 341.072 83.1317 343.284 82.2693L344.235 86.4786C341.65 87.6056 338.598 88.1662 335.077 88.1662C330.841 88.1662 327.516 86.9197 325.096 84.4323C322.682 81.9421 321.472 78.5952 321.472 74.403C321.472 70.2877 322.597 66.8583 324.848 64.1233C327.205 61.2034 330.391 59.7434 334.399 59.7434C338.336 59.7434 341.317 61.2034 343.341 64.1233C344.943 66.4371 345.749 69.3059 345.749 72.7125ZM339.962 71.1387C340.004 69.3372 339.606 67.7861 338.783 66.4741C337.733 64.7836 336.116 63.9412 333.949 63.9412C331.965 63.9412 330.348 64.7637 329.118 66.4144C328.108 67.7264 327.507 69.303 327.322 71.133L339.962 71.1387Z" fill="white"/>
<path d="M126.704 36.3949C125.016 36.3949 123.555 36.3123 122.34 36.1729V17.8618C124.04 17.5992 125.758 17.4698 127.478 17.4747C134.438 17.4747 137.644 20.8985 137.644 26.4794C137.644 32.9171 133.858 36.3949 126.704 36.3949ZM127.723 19.8227C126.784 19.8227 125.984 19.8796 125.32 20.0162V33.9359C125.679 33.9929 126.368 34.0185 127.336 34.0185C131.896 34.0185 134.493 31.4229 134.493 26.562C134.493 22.2275 132.144 19.8227 127.723 19.8227ZM147.633 36.5343C143.71 36.5343 141.168 33.6058 141.168 29.63C141.168 25.4862 143.764 22.5321 147.855 22.5321C151.721 22.5321 154.32 25.3211 154.32 29.4108C154.32 33.6058 151.641 36.5343 147.633 36.5343ZM147.747 24.7121C145.592 24.7121 144.211 26.727 144.211 29.5446C144.211 32.308 145.62 34.323 147.719 34.323C149.817 34.323 151.226 32.1686 151.226 29.4877C151.226 26.7555 149.845 24.7121 147.747 24.7121ZM176.69 22.8081L172.491 36.2298H169.755L168.016 30.4012C167.583 28.9755 167.223 27.5289 166.937 26.0668H166.88C166.661 27.5296 166.245 28.9953 165.804 30.4012L163.953 36.2298H161.189L157.238 22.8081H160.304L161.824 29.1888C162.183 30.7086 162.485 32.143 162.735 33.4976H162.792C163.011 32.3678 163.37 30.9562 163.897 29.2173L165.804 22.811H168.235L170.06 29.0807C170.501 30.6004 170.86 32.0917 171.139 33.5005H171.218C171.412 32.1202 171.717 30.6545 172.129 29.0807L173.76 22.811L176.69 22.8081ZM192.148 36.2298H189.164V28.5229C189.164 26.1493 188.253 24.9597 186.457 24.9597C184.689 24.9597 183.474 26.4795 183.474 28.2468V36.2298H180.49V26.6445C180.49 25.4577 180.462 24.1856 180.379 22.8053H183.004L183.143 24.8772H183.226C184.029 23.4428 185.657 22.5321 187.482 22.5321C190.3 22.5321 192.15 24.6865 192.15 28.1927L192.148 36.2298ZM200.375 36.2298H197.388V16.6494H200.375V36.2298ZM211.252 36.5343C207.332 36.5343 204.787 33.6058 204.787 29.63C204.787 25.4862 207.383 22.5321 211.471 22.5321C215.34 22.5321 217.936 25.3211 217.936 29.4108C217.939 33.6058 215.257 36.5343 211.252 36.5343ZM211.363 24.7121C209.208 24.7121 207.827 26.727 207.827 29.5446C207.827 32.308 209.239 34.323 211.332 34.323C213.433 34.323 214.839 32.1686 214.839 29.4877C214.842 26.7555 213.464 24.7121 211.363 24.7121ZM229.699 36.2298L229.483 34.6844H229.403C228.492 35.9281 227.162 36.5343 225.477 36.5343C223.072 36.5343 221.364 34.8495 221.364 32.5841C221.364 29.2714 224.236 27.5581 229.209 27.5581V27.3105C229.209 25.5431 228.273 24.658 226.422 24.658C225.099 24.658 223.937 24.991 222.915 25.6541L222.309 23.6932C223.55 22.9191 225.099 22.5321 226.918 22.5321C230.425 22.5321 232.196 24.382 232.196 28.0846V33.0281C232.196 34.3828 232.255 35.4329 232.389 36.2326L229.699 36.2298ZM229.289 29.5446C225.975 29.5446 224.313 30.3471 224.313 32.2511C224.313 33.6599 225.17 34.3486 226.36 34.3486C227.877 34.3486 229.289 33.1903 229.289 31.6165V29.5446ZM246.683 36.2298L246.543 34.0754H246.461C245.604 35.7033 244.163 36.5343 242.151 36.5343C238.914 36.5343 236.517 33.6883 236.517 29.684C236.517 25.4862 239.002 22.5292 242.395 22.5292C244.192 22.5292 245.464 23.1354 246.182 24.3535H246.241V16.6494H249.228V32.6125C249.228 33.9103 249.259 35.1256 249.339 36.2298H246.683ZM246.241 28.3322C246.241 26.4538 244.997 24.8515 243.099 24.8515C240.887 24.8515 239.534 26.8124 239.534 29.573C239.534 32.2796 240.938 34.1323 243.039 34.1323C244.915 34.1323 246.241 32.5016 246.241 30.5691V28.3322ZM268.161 36.5343C264.241 36.5343 261.699 33.6058 261.699 29.63C261.699 25.4862 264.295 22.5321 268.383 22.5321C272.252 22.5321 274.848 25.3211 274.848 29.4108C274.851 33.6058 272.172 36.5343 268.161 36.5343ZM268.272 24.7121C266.12 24.7121 264.739 26.727 264.739 29.5446C264.739 32.308 266.149 34.323 268.244 34.323C270.345 34.323 271.751 32.1686 271.751 29.4877C271.757 26.7555 270.376 24.7121 268.272 24.7121ZM290.892 36.2298H287.906V28.5229C287.906 26.1493 286.995 24.9597 285.199 24.9597C283.431 24.9597 282.218 26.4795 282.218 28.2468V36.2298H279.232V26.6445C279.232 25.4577 279.204 24.1856 279.121 22.8053H281.746L281.885 24.8772H281.968C282.768 23.4428 284.399 22.5292 286.221 22.5292C289.039 22.5292 290.892 24.6836 290.892 28.1899V36.2298ZM310.965 25.0451H307.683V31.5624C307.683 33.2216 308.258 34.0498 309.419 34.0498C309.946 34.0498 310.387 33.9929 310.743 33.9103L310.825 36.1757C310.247 36.3977 309.473 36.5087 308.511 36.5087C306.159 36.5087 304.753 35.2109 304.753 31.8128V25.0451H302.795V22.8081H304.753V20.3492L307.683 19.4641V22.8053H310.965V25.0451ZM326.758 36.2298H323.778V28.5798C323.778 26.1778 322.87 24.9625 321.071 24.9625C319.525 24.9625 318.084 26.0127 318.084 28.1387V36.2298H315.104V16.6494H318.084V24.7121H318.144C319.084 23.2493 320.444 22.5292 322.181 22.5292C325.022 22.5292 326.758 24.7377 326.758 28.2468V36.2298ZM342.939 30.2361H333.986C334.043 32.7776 335.726 34.212 338.217 34.212C339.54 34.212 340.759 33.99 341.835 33.5773L342.299 35.6492C341.029 36.2013 339.535 36.4774 337.795 36.4774C333.596 36.4774 331.111 33.8249 331.111 29.7125C331.111 25.5972 333.656 22.5036 337.459 22.5036C340.89 22.5036 343.042 25.0451 343.042 28.8843C343.061 29.3374 343.027 29.7912 342.939 30.2361ZM340.204 28.1102C340.204 26.0383 339.159 24.5755 337.252 24.5755C335.538 24.5755 334.183 26.0668 333.989 28.1102H340.204Z" fill="white"/>
</svg>
