<svg width="29" height="28" viewBox="0 0 29 28" fill="none" xmlns="http://www.w3.org/2000/svg">
<rect x="0.810547" width="28" height="28" rx="4.375" fill="white"/>
<path d="M17.5212 7.44864C18.2428 6.63396 18.7304 5.50208 18.5977 4.375C17.5576 4.41409 16.2982 5.01858 15.5512 5.83227C14.8821 6.55431 14.2973 7.70453 14.4535 8.81118C15.6143 8.89535 16.7985 8.26172 17.5212 7.44864Z" fill="black"/>
<path d="M20.1252 14.6038C20.1004 12.2455 22.1217 11.0744 22.3425 10.9465L22.3587 10.9371C21.1435 9.28341 19.2501 9.05646 18.5769 9.03057C17.5924 8.93753 16.6369 9.28826 15.856 9.57485C15.3599 9.75695 14.9344 9.91314 14.6168 9.91314C14.2635 9.91314 13.8265 9.75163 13.3361 9.57036C12.6946 9.33326 11.9616 9.06235 11.2049 9.07479C9.44873 9.09916 7.83022 10.0253 6.92631 11.4889C5.10251 14.4339 6.45963 18.7984 8.23719 21.1889C9.10612 22.3574 10.1421 23.6718 11.5013 23.6237C12.1096 23.6014 12.5421 23.4299 12.9894 23.2524C13.5055 23.0477 14.0413 22.8352 14.8895 22.8352C15.6998 22.8352 16.2118 23.0414 16.7041 23.2397C17.1745 23.4291 17.6268 23.6112 18.3038 23.5993C19.7128 23.5756 20.6058 22.4088 21.4679 21.236C22.4049 19.9614 22.8239 18.7244 22.892 18.5235L22.9009 18.4977L22.8932 18.4947C22.7315 18.4325 20.1528 17.4402 20.1252 14.6038Z" fill="black"/>
</svg>
