<svg width="1920" height="483" viewBox="0 0 1920 483" fill="none" xmlns="http://www.w3.org/2000/svg">
<path fill-rule="evenodd" clip-rule="evenodd" d="M779.745 394.012C751.207 446.935 694.477 483 629.154 483C558.642 483 498.144 440.978 472.306 381.091C454.401 393.757 432.417 401.219 408.656 401.219C367.678 401.219 331.984 379.025 313.385 346.222C296.442 356.876 276.293 363.053 254.674 363.053C235.003 363.053 216.55 357.939 200.621 348.993C181.617 380.268 146.791 401.218 106.977 401.218C46.8115 401.218 -1.96259 353.375 -1.96259 294.357C-1.96259 293.282 -1.94635 292.211 -1.91425 291.144H-2.08173C-2.00287 292.205 -1.96271 293.276 -1.96271 294.357C-1.96271 318.446 -21.8945 337.974 -46.4814 337.974C-71.0684 337.974 -91.0001 318.446 -91.0001 294.357C-91.0001 293.276 -90.9599 292.205 -90.881 291.144H-90.9998V3.05176e-05L1917.05 3.05176e-05V225.409C1928.9 241.012 1935.91 260.341 1935.91 281.272C1935.91 333.063 1893 375.048 1840.06 375.048C1811.21 375.048 1785.33 362.574 1767.76 342.837C1747.43 396.024 1694.61 433.931 1632.66 433.931C1572.03 433.931 1520.15 397.633 1498.91 346.239C1484.03 354.179 1466.96 358.692 1448.82 358.692C1422.96 358.692 1399.28 349.519 1381.01 334.317C1365.24 364.944 1332.81 385.953 1295.36 385.953C1267.37 385.953 1242.18 374.211 1224.66 355.488C1207.13 374.211 1181.94 385.953 1153.95 385.953C1132.23 385.953 1112.2 378.883 1096.12 366.969C1082.75 416.799 1036.32 453.559 981.113 453.559C932.377 453.559 890.489 424.915 872.134 383.922C856.476 394.814 837.331 401.218 816.656 401.218C803.575 401.218 791.106 398.654 779.745 394.012Z" fill="url(#paint0_linear_264_4491)"/>
<defs>
<linearGradient id="paint0_linear_264_4491" x1="922.454" y1="483" x2="922.474" y2="223.63" gradientUnits="userSpaceOnUse">
<stop stop-color="#F7EECE"/>
<stop offset="1" stop-color="#F9E086"/>
</linearGradient>
</defs>
</svg>
