<svg width="1920" height="1225" viewBox="0 0 1920 1225" fill="none" xmlns="http://www.w3.org/2000/svg">
<path fill-rule="evenodd" clip-rule="evenodd" d="M1245.95 110.777C1278.7 44.8955 1343.81 0 1418.78 0C1499.71 0 1569.15 52.3111 1598.8 126.861C1619.35 111.095 1644.58 101.805 1671.85 101.805C1686.55 101.805 1700.65 104.502 1713.74 109.454C1736.64 82.1743 1769.95 65 1807.03 65C1876.09 65 1932.06 124.558 1932.06 198.026C1932.06 205.511 1931.48 212.852 1930.37 220H2026.87H2145.06C2151.13 197.222 2170.84 180.535 2194.22 180.535C2217.6 180.535 2237.32 197.222 2243.39 220H2245.68V582.428H-59V220H-43.9448C-42.0853 157.257 6.42879 107 66.0041 107C91.6168 107 115.185 116.289 133.88 131.866C163.978 88.9353 212.418 61.0834 267.047 61.0834C336.628 61.0834 396.169 106.27 420.556 170.247C437.633 160.362 457.217 154.745 478.038 154.745C507.723 154.745 534.895 166.163 555.867 185.087C573.97 146.961 611.19 120.809 654.165 120.809C686.293 120.809 715.204 135.425 735.316 158.733C755.428 135.425 784.339 120.809 816.467 120.809C841.396 120.809 864.388 129.609 882.835 144.441C898.189 82.4105 951.468 36.6499 1014.83 36.6499C1070.77 36.6499 1118.85 72.3073 1139.91 123.337C1157.88 109.778 1179.86 101.806 1203.59 101.806C1218.6 101.806 1232.91 104.997 1245.95 110.777Z" fill="url(#paint0_linear_420_2195)"/>
<g filter="url(#filter0_d_420_2195)">
<path fill-rule="evenodd" clip-rule="evenodd" d="M1250.95 1053.65C1283.7 1119.53 1348.81 1164.43 1423.78 1164.43C1504.71 1164.43 1574.15 1112.12 1603.8 1037.57C1624.35 1053.33 1649.58 1062.62 1676.85 1062.62C1723.89 1062.62 1764.85 1034.99 1786.2 994.161C1805.64 1007.42 1828.77 1015.11 1853.58 1015.11C1901.46 1015.11 1943.06 986.479 1964.06 944.428H2031.87H2150.06C2156.13 967.206 2175.84 983.893 2199.22 983.893C2222.6 983.893 2242.32 967.206 2248.39 944.428H2250.68V582H-53.9996V944.428H-23.1039C-13.5232 998.536 31.2357 1039.47 85.0048 1039.47C120.12 1039.47 151.392 1022.01 171.533 994.828C200.107 1019.61 236.739 1034.5 276.679 1034.5C326.215 1034.5 370.662 1011.6 400.96 975.32C422.446 996.636 451.306 1009.68 483.038 1009.68C512.723 1009.68 539.895 998.266 560.867 979.342C578.97 1017.47 616.19 1043.62 659.165 1043.62C691.293 1043.62 720.204 1029 740.316 1005.69C760.428 1029 789.339 1043.62 821.466 1043.62C846.395 1043.62 869.388 1034.82 887.835 1019.99C903.189 1082.02 956.468 1127.78 1019.83 1127.78C1075.77 1127.78 1123.85 1092.12 1144.91 1041.09C1162.88 1054.65 1184.86 1062.62 1208.59 1062.62C1223.6 1062.62 1237.91 1059.43 1250.95 1053.65Z" fill="url(#paint1_linear_420_2195)"/>
</g>
<defs>
<filter id="filter0_d_420_2195" x="-83.9995" y="582" width="2364.68" height="642.428" filterUnits="userSpaceOnUse" color-interpolation-filters="sRGB">
<feFlood flood-opacity="0" result="BackgroundImageFix"/>
<feColorMatrix in="SourceAlpha" type="matrix" values="0 0 0 0 0 0 0 0 0 0 0 0 0 0 0 0 0 0 127 0" result="hardAlpha"/>
<feOffset dy="30"/>
<feGaussianBlur stdDeviation="15"/>
<feComposite in2="hardAlpha" operator="out"/>
<feColorMatrix type="matrix" values="0 0 0 0 0 0 0 0 0 0 0 0 0 0 0 0 0 0 0.15 0"/>
<feBlend mode="normal" in2="BackgroundImageFix" result="effect1_dropShadow_420_2195"/>
<feBlend mode="normal" in="SourceGraphic" in2="effect1_dropShadow_420_2195" result="shape"/>
</filter>
<linearGradient id="paint0_linear_420_2195" x1="1082.16" y1="-1.15376e-08" x2="1082.13" y2="322.876" gradientUnits="userSpaceOnUse">
<stop stop-color="#F7EECE"/>
<stop offset="1" stop-color="#F9E086"/>
</linearGradient>
<linearGradient id="paint1_linear_420_2195" x1="1087.16" y1="1164.43" x2="1087.13" y2="841.552" gradientUnits="userSpaceOnUse">
<stop stop-color="#F7EECE"/>
<stop offset="1" stop-color="#F9E086"/>
</linearGradient>
</defs>
</svg>
