<svg width="50" height="50" viewBox="0 0 50 50" fill="none" xmlns="http://www.w3.org/2000/svg">
<g clip-path="url(#clip0_204_1914)">
<path fill-rule="evenodd" clip-rule="evenodd" d="M49.9894 24.8729C49.9894 38.6115 38.8523 49.7486 25.1138 49.7486C11.3752 49.7486 0.238136 38.6115 0.238136 24.8729C0.238136 11.1344 11.3752 -0.00268555 25.1138 -0.00268555C38.8523 -0.00268555 49.9894 11.1344 49.9894 24.8729Z" fill="#212121"/>
<path fill-rule="evenodd" clip-rule="evenodd" d="M25.1138 29.7545L20.2319 24.8729L25.1138 19.9911L29.9956 24.8729L25.1138 29.7545Z" fill="#F4BB0B"/>
<path fill-rule="evenodd" clip-rule="evenodd" d="M36.2077 24.8729L36.187 24.8933L40.7149 29.4209L45.2629 24.8729L40.6836 20.2933L36.1557 24.8209L36.2077 24.8729Z" fill="#F4BB0B"/>
<path fill-rule="evenodd" clip-rule="evenodd" d="M17.2671 21.6255L25.1136 13.779L33.0756 21.7409L37.6032 17.2133L25.1136 4.72375L12.7395 17.0979L17.2671 21.6255Z" fill="#F4BB0B"/>
<path fill-rule="evenodd" clip-rule="evenodd" d="M33.107 27.9736L25.1137 35.9669L17.1913 28.0443L12.6637 32.5719L25.1137 45.0221L37.6346 32.5012L33.107 27.9736Z" fill="#F4BB0B"/>
<path fill-rule="evenodd" clip-rule="evenodd" d="M14.0198 24.8729L14.187 24.7058L9.65936 20.1779L4.96458 24.8729L9.58349 29.4918L14.1111 24.9642L14.0198 24.8729Z" fill="#F4BB0B"/>
</g>
<defs>
<clipPath id="clip0_204_1914">
<rect width="50" height="49.7512" fill="white"/>
</clipPath>
</defs>
</svg>
