<svg width="50" height="50" viewBox="0 0 50 50" fill="none" xmlns="http://www.w3.org/2000/svg">
<g clip-path="url(#clip0_203_1682)">
<path fill-rule="evenodd" clip-rule="evenodd" d="M49.7876 24.9991C49.7876 38.8064 38.6506 49.9991 24.912 49.9991C11.1735 49.9991 0.0363922 38.8064 0.0363922 24.9991C0.0363922 11.1919 11.1735 -0.000854492 24.912 -0.000854492C38.6506 -0.000854492 49.7876 11.1919 49.7876 24.9991Z" fill="#F7931A"/>
<path fill-rule="evenodd" clip-rule="evenodd" d="M30.9517 32.3055C30.7435 33.0088 30.2751 33.5883 29.6328 33.9373C28.9905 34.2868 28.2517 34.3638 27.552 34.1543L20.5468 32.0575L22.1075 26.7918L29.1122 28.8888H29.1124C30.5567 29.321 31.3821 30.8538 30.9517 32.3055ZM33.3144 21.5143C33.6617 22.1598 33.7383 22.9023 33.5301 23.6058C33.0998 25.057 31.5739 25.886 30.1303 25.4545H30.1301L23.1251 23.3578L24.6853 18.092L31.6905 20.1888C32.3903 20.3983 32.9669 20.8688 33.3144 21.5143ZM36.4502 19.8093C35.6495 18.322 34.3204 17.237 32.7082 16.7545L31.7813 16.4773L33.0789 12.0988L29.7498 11.1023L28.4522 15.4808L25.61 14.63L26.9077 10.2515L26.1102 10.0128L22.8794 9.04578L21.6286 13.2663L17.6913 12.0878L16.5801 15.8378L20.5174 17.0165L16.4724 30.666L12.5351 29.4875L11.4239 33.2378L15.3609 34.416L14.3055 37.9783L15.1027 38.217L18.3336 39.184L19.4361 35.4638L22.2851 36.3165L21.1826 40.037L24.4983 41.0295L25.6007 37.309L26.5341 37.5883C27.1291 37.7663 27.7368 37.8545 28.3408 37.8545C29.3731 37.8545 30.3958 37.5968 31.3294 37.089C32.8092 36.2843 33.8886 34.9488 34.3689 33.328C34.8739 31.6233 34.6246 29.872 33.8214 28.4305C35.2796 27.6658 36.4415 26.334 36.947 24.6285C37.4274 23.0078 37.2507 21.2963 36.4502 19.8093Z" fill="white"/>
</g>
<defs>
<clipPath id="clip0_203_1682">
<rect width="50" height="50" fill="white"/>
</clipPath>
</defs>
</svg>
