<svg width="50" height="50" viewBox="0 0 50 50" fill="none" xmlns="http://www.w3.org/2000/svg">
<path fill-rule="evenodd" clip-rule="evenodd" d="M49.7512 24.8756C49.7512 38.6139 38.6142 49.7512 24.8756 49.7512C11.1373 49.7512 0 38.6139 0 24.8756C0 11.1371 11.1373 0 24.8756 0C38.6142 0 49.7512 11.1371 49.7512 24.8756Z" fill="#C3A723"/>
<path fill-rule="evenodd" clip-rule="evenodd" d="M27.4416 33.3534H21.9439V26.2644H27.3956V23.4037H21.9439V16.4392H27.1103C27.1103 16.4392 33.4693 16.4393 33.4693 24.3092C33.4693 33.5883 27.4416 33.3534 27.4416 33.3534ZM26.5872 11.4634H16.8857V23.4037H13.6518V26.2644H16.8857V38.3291H27.2091C27.2091 38.3291 38.5275 38.7022 38.5275 23.9634C38.5275 11.4634 26.5872 11.4634 26.5872 11.4634Z" fill="white"/>
</svg>
