<svg width="385" height="115" viewBox="0 0 385 115" fill="none" xmlns="http://www.w3.org/2000/svg">
<path d="M370.545 114.366H14.2517C6.41337 114.366 0 107.933 0 100.07V14.2958C0 6.43308 6.41324 0 14.2517 0H370.545C378.383 0 384.796 6.43308 384.796 14.2958V100.07C384.796 107.933 378.383 114.366 370.545 114.366Z" fill="black"/>
<path d="M135.159 29.2876C135.159 31.683 134.452 33.5906 133.035 35.0136C131.427 36.7056 129.33 37.5523 126.752 37.5523C124.284 37.5523 122.185 36.6946 120.459 34.9767C118.73 33.2601 117.867 31.1314 117.867 28.5917C117.867 26.0508 118.73 23.9234 120.459 22.2054C122.185 20.4889 124.284 19.6299 126.752 19.6299C127.977 19.6299 129.15 19.8702 130.263 20.3493C131.376 20.8297 132.269 21.4673 132.938 22.2657L131.434 23.7746C130.302 22.4176 128.743 21.7397 126.752 21.7397C124.952 21.7397 123.395 22.3742 122.082 23.644C120.768 24.9151 120.111 26.5635 120.111 28.5917C120.111 30.62 120.768 32.2682 122.082 33.5394C123.395 34.8093 124.952 35.4436 126.752 35.4436C128.662 35.4436 130.254 34.8058 131.529 33.5283C132.356 32.696 132.835 31.5391 132.963 30.0536H126.752V27.993H135.04C135.12 28.4411 135.159 28.871 135.159 29.2876" fill="white"/>
<path d="M135.159 29.2874H134.874C134.871 31.6282 134.19 33.4463 132.834 34.8112L132.831 34.8135L132.829 34.8158C131.272 36.4496 129.27 37.2627 126.752 37.2662C124.35 37.2627 122.339 36.4407 120.659 34.7743C118.984 33.1046 118.156 31.0663 118.152 28.5914C118.156 26.1154 118.984 24.0782 120.659 22.4097C122.339 20.7422 124.35 19.919 126.752 19.9156C127.94 19.9156 129.072 20.1481 130.15 20.6115C131.23 21.0785 132.083 21.6904 132.719 22.45L132.937 22.2655L132.736 22.0634L131.233 23.5732L131.434 23.7743L131.654 23.5914C130.469 22.1672 128.806 21.4493 126.752 21.4535C124.885 21.4512 123.243 22.1204 121.884 23.4384C120.513 24.7607 119.824 26.5018 119.826 28.5914C119.824 30.6812 120.513 32.4222 121.884 33.7446C123.243 35.0626 124.885 35.7316 126.752 35.7293C128.725 35.7328 130.407 35.0614 131.73 33.7302C132.614 32.841 133.116 31.6093 133.247 30.0779L133.274 29.7674H127.037V28.2787H135.04V27.9928L134.759 28.043C134.837 28.4766 134.874 28.8885 134.874 29.2874H135.444C135.444 28.8528 135.404 28.4061 135.32 27.9416L135.278 27.7069H126.467V30.3393H132.963V30.0534L132.679 30.0288C132.553 31.4675 132.097 32.5508 131.327 33.326C130.103 34.55 128.599 35.154 126.752 35.1575C125.019 35.1552 123.548 34.5565 122.28 33.3336C121.024 32.1151 120.399 30.5594 120.396 28.5914C120.399 26.6235 121.024 25.0678 122.28 23.8493C123.548 22.6263 125.019 22.0277 126.752 22.0254C128.68 22.03 130.135 22.6687 131.216 23.9587L131.417 24.1977L133.139 22.4678L133.324 22.2825L133.156 22.0823C132.455 21.2449 131.522 20.5802 130.375 20.0867C129.226 19.5918 128.014 19.3438 126.752 19.3438C124.218 19.3416 122.031 20.235 120.258 22.0031C118.477 23.7678 117.58 25.9859 117.583 28.5914C117.58 31.1958 118.477 33.4152 120.259 35.1809C122.031 36.9479 124.218 37.8403 126.752 37.838C129.391 37.8403 131.58 36.9611 133.241 35.211L133.035 35.0133L133.237 35.2156C134.713 33.7357 135.446 31.7365 135.444 29.2874H135.159ZM148.297 22.1215H140.509V27.5608H147.532V29.6221H140.509V35.0614H148.297V37.1689H138.313V20.014H148.297V22.1215Z" fill="white"/>
<path d="M148.297 22.1219V21.836H140.224V27.8471H147.247V29.3359L140.223 29.3366V35.3477H148.012V36.8834H138.598V20.3003H148.012V22.1219H148.297H148.582V19.7285H138.028V37.4552H148.582V34.7759H140.794V29.9085H147.817V27.2753H140.794V22.4078H148.582V22.1219H148.297ZM157.564 37.1694H155.365V22.1218H150.588V20.0143H162.34V22.1218H157.564V37.1692" fill="white"/>
<path d="M157.564 37.1694V36.8834H155.65V21.836H150.873V20.3005H162.055V21.836H157.279V37.1693H157.564H157.849V22.4078H162.625V19.7285H150.303V22.4077H155.08V37.4551H157.849V37.1692H157.564M170.844 37.1694V20.0143H173.04V37.1692H170.844" fill="white"/>
<path d="M170.844 37.1694H171.129V20.3003H172.755V36.8834H170.844V37.1693V37.4552H173.325V19.7285H170.559V37.4552H170.844V37.1693M182.788 37.1694H180.589V22.1218H175.813V20.0143H187.565V22.1218H182.788V37.1692" fill="white"/>
<path d="M182.788 37.1692V36.8832H180.874V21.8358H176.098V20.3003H187.28V21.8358H182.503V37.1691H182.788H183.074V22.4076H187.85V19.7283H175.528V22.4075H180.304V37.4549H183.074V37.169H182.788M198.895 33.5161C200.161 34.8014 201.71 35.4435 203.542 35.4435C205.373 35.4435 206.923 34.8014 208.187 33.5161C209.454 32.2306 210.088 30.5874 210.088 28.5917C210.088 26.5961 209.454 24.9529 208.187 23.6674C206.923 22.3819 205.373 21.7397 203.542 21.7397C201.71 21.7397 200.161 22.3819 198.895 23.6674C197.631 24.9529 196.997 26.596 196.997 28.5917C196.997 30.5874 197.631 32.2306 198.895 33.5161ZM209.812 34.9521C208.131 36.6865 206.04 37.5523 203.542 37.5523C201.041 37.5523 198.951 36.6865 197.273 34.9521C195.591 33.2197 194.753 31.0992 194.753 28.5917C194.753 26.0842 195.591 23.9632 197.273 22.2312C198.951 20.4965 201.041 19.6299 203.542 19.6299C206.027 19.6299 208.112 20.5011 209.801 22.2424C211.488 23.9835 212.332 26.0998 212.332 28.5917C212.332 31.0992 211.49 33.2197 209.812 34.9521Z" fill="white"/>
<path d="M198.895 33.5158L198.692 33.7168C200.005 35.0537 201.643 35.7328 203.541 35.7293C205.439 35.7328 207.079 35.0537 208.389 33.7168C209.711 32.3786 210.375 30.6475 210.373 28.5914C210.375 26.5355 209.711 24.8042 208.389 23.4661C207.079 22.1292 205.439 21.4502 203.541 21.4536C201.643 21.4502 200.005 22.1292 198.692 23.4661C197.374 24.8042 196.708 26.5355 196.712 28.5914C196.708 30.6474 197.374 32.3786 198.692 33.7168L198.895 33.5158L199.098 33.3147C197.889 32.0805 197.284 30.528 197.282 28.5914C197.284 26.655 197.889 25.1025 199.098 23.8681C200.318 22.6342 201.775 22.0288 203.541 22.0255C205.306 22.0288 206.767 22.6342 207.984 23.8681C209.195 25.1025 209.8 26.655 209.802 28.5914C209.8 30.5279 209.195 32.0805 207.984 33.3147C206.767 34.5488 205.306 35.1541 203.541 35.1574C201.775 35.1541 200.318 34.5488 199.098 33.3147L198.895 33.5158ZM209.812 34.9519L209.608 34.7533C207.974 36.433 205.975 37.2628 203.541 37.2662C201.106 37.2627 199.108 36.433 197.476 34.7533C195.846 33.0678 195.041 31.0352 195.038 28.5914C195.041 26.1477 195.846 24.1151 197.476 22.4297C199.108 20.7499 201.106 19.919 203.541 19.9157C205.96 19.919 207.954 20.7534 209.597 22.442C211.234 24.1352 212.043 26.1645 212.047 28.5914C212.043 31.0352 211.236 33.0678 209.608 34.7533L209.812 34.9519L210.017 35.1506C211.745 33.3705 212.619 31.1624 212.617 28.5914C212.619 26.0351 211.742 23.8315 210.006 22.0435C208.269 20.2484 206.093 19.3407 203.541 19.3438C200.976 19.3407 198.794 20.2441 197.068 22.0323V22.031C195.337 23.8124 194.466 26.0205 194.468 28.5914C194.466 31.1624 195.337 33.3705 197.068 35.1517L197.076 35.1598L197.068 35.1506C198.794 36.9388 200.976 37.8403 203.541 37.838C206.106 37.8403 208.288 36.9388 210.017 35.1506L209.812 34.9519ZM215.416 37.169V20.0139H218.091L226.402 33.3592H226.497L226.402 30.0532V20.0139H228.601V37.1688H226.307L217.612 23.1767H217.517L217.612 26.4838V37.1688H215.416" fill="white"/>
<path d="M215.416 37.1694H215.701V20.3003H217.932L226.244 33.6457H226.789L226.687 30.0495V20.3005H228.316V36.8834H226.465L217.77 22.8913H217.224L217.326 26.489V36.8834H215.416V37.1693V37.4552H217.897V26.4799L217.802 23.1695L217.517 23.1773V23.4632H217.612V23.1773L217.37 23.3293L226.149 37.4552H228.886V19.7285H226.117V30.0571L226.212 33.3675L226.497 33.3598V33.0738H226.402V33.3598L226.644 33.208L218.248 19.7285H215.131V37.4552H215.416V37.1693M304.805 85.7749H310.123V50.0321H304.804L304.805 85.7749ZM352.71 62.9076L346.613 78.4038H346.431L340.103 62.9074H334.374L343.863 84.5664L338.453 96.6141H344.002L358.625 62.9074L352.71 62.9076ZM322.548 81.7153C320.803 81.7153 318.375 80.8418 318.375 78.6797C318.375 75.9209 321.402 74.8633 324.013 74.8633C326.353 74.8633 327.45 75.3691 328.873 76.0596C328.459 79.3699 325.618 81.7153 322.548 81.7153ZM323.189 62.1255C319.338 62.1255 315.351 63.8275 313.7 67.5982L318.42 69.575C319.429 67.5982 321.308 66.9537 323.28 66.9537C326.031 66.9537 328.827 68.61 328.873 71.553V71.9205C327.909 71.3686 325.848 70.5411 323.326 70.5411C318.238 70.5411 313.056 73.3454 313.056 78.588C313.056 83.3705 317.229 86.4517 321.904 86.4517C325.481 86.4517 327.45 84.8423 328.69 82.9572H328.873V85.7158H334.006V72.0119C334.006 65.6672 329.286 62.1255 323.189 62.1255ZM290.319 67.2585H282.754V55.0068H290.319C294.295 55.0068 296.553 58.3092 296.553 61.1325C296.553 63.9024 294.295 67.2585 290.319 67.2585ZM290.182 50.0321H277.438V85.7749H282.754V72.2331H290.182C296.077 72.2331 301.871 67.9521 301.871 61.1325C301.871 54.3132 296.077 50.0321 290.182 50.0321ZM220.688 81.7219C217.014 81.7219 213.937 78.636 213.937 74.3975C213.937 70.1146 217.014 66.9817 220.688 66.9817C224.316 66.9817 227.162 70.1145 227.162 74.3975C227.162 78.636 224.315 81.7219 220.688 81.7219ZM226.795 64.9089H226.611C225.418 63.4813 223.121 62.1916 220.228 62.1916C214.167 62.1916 208.611 67.5345 208.611 74.3975C208.611 81.2149 214.166 86.5121 220.228 86.5121C223.121 86.5121 225.418 85.222 226.611 83.7489H226.795V85.499C226.795 90.1521 224.316 92.6393 220.321 92.6393C217.06 92.6393 215.04 90.2893 214.212 88.309L209.575 90.2435C210.907 93.4678 214.443 97.4295 220.321 97.4295C226.566 97.4295 231.846 93.7437 231.846 84.762V62.9286H226.795V64.9089ZM235.52 85.7749H240.846V50.0309H235.52V85.7749ZM248.699 73.9833C248.561 69.2845 252.327 66.8899 255.036 66.8899C257.149 66.8899 258.939 67.9488 259.535 69.4702L248.699 73.9833ZM265.23 69.9301C264.221 67.2116 261.143 62.1916 254.852 62.1916C248.607 62.1916 243.418 67.1201 243.418 74.3518C243.418 81.1692 248.561 86.5121 255.449 86.5121C261.006 86.5121 264.221 83.1033 265.552 81.1231L261.419 78.3588C260.043 80.386 258.159 81.7219 255.449 81.7219C252.74 81.7219 250.811 80.4778 249.571 78.0372L265.78 71.3117L265.23 69.9301ZM136.086 65.9227V71.0815H148.393C148.025 73.9832 147.061 76.1019 145.591 77.576C143.801 79.3731 141 81.3533 136.086 81.3533C128.509 81.3533 122.586 75.2272 122.586 67.627C122.586 60.0269 128.509 53.9 136.086 53.9C140.173 53.9 143.157 55.5125 145.362 57.5853L148.989 53.9468C145.913 50.9982 141.826 48.7413 136.086 48.7413C125.708 48.7413 116.983 57.2169 116.983 67.627C116.983 78.0372 125.708 86.5121 136.086 86.5121C141.689 86.5121 145.913 84.6705 149.219 81.2149C152.617 77.8062 153.674 73.0161 153.674 69.1473C153.674 67.9488 153.582 66.8442 153.397 65.9227H136.086ZM167.665 81.7219C163.991 81.7219 160.822 78.6816 160.822 74.3518C160.822 69.9758 163.991 66.9817 167.665 66.9817C171.338 66.9817 174.507 69.9758 174.507 74.3518C174.507 78.6818 171.338 81.7219 167.665 81.7219ZM167.665 62.1916C160.96 62.1916 155.495 67.3042 155.495 74.3518C155.495 81.3533 160.96 86.5121 167.665 86.5121C174.369 86.5121 179.833 81.3533 179.833 74.3518C179.833 67.3042 174.369 62.1916 167.665 62.1916ZM194.211 81.7219C190.538 81.7219 187.369 78.6816 187.369 74.3518C187.369 69.9758 190.538 66.9817 194.211 66.9817C197.884 66.9817 201.053 69.9758 201.053 74.3518C201.053 78.6818 197.884 81.7219 194.211 81.7219ZM194.211 62.1916C187.506 62.1916 182.042 67.3042 182.042 74.3518C182.042 81.3533 187.506 86.5121 194.211 86.5121C200.915 86.5121 206.38 81.3533 206.38 74.3518C206.38 67.3042 200.915 62.1916 194.211 62.1916Z" fill="white"/>
<path d="M29.9532 21.7621C28.9966 22.6278 28.4257 24.0717 28.4257 25.9884V25.5551V88.8027V88.3861C28.4257 90.1562 28.9154 91.5231 29.7448 92.4035L29.9565 92.6068V92.6076C30.6278 93.2153 31.4886 93.538 32.4752 93.5369C33.4392 93.5369 34.5238 93.2287 35.6684 92.5777L77.0418 68.9974L91.2532 60.8968C93.0581 59.8684 94.0714 58.5415 94.2407 57.19V57.1844C94.0714 55.8298 93.0581 54.504 91.2533 53.4754L77.0406 45.3758L35.6685 21.7955C34.5215 21.1434 33.4361 20.834 32.4696 20.834C31.4841 20.834 30.6245 21.1556 29.9534 21.7621H29.9532Z" fill="#00C1FF"/>
<path d="M29.9566 92.6064L29.7448 92.4032C28.9154 91.523 28.4257 90.1559 28.4257 88.3858V88.8024V25.5705V25.9881C28.4257 24.0714 28.9966 22.6275 29.9532 21.7618L65.2684 57.1853L29.9566 92.6064Z" fill="url(#paint0_linear_457_2233)"/>
<path d="M77.0416 68.9971L65.2683 57.1853L77.0406 45.3756L91.2532 53.475C93.058 54.5037 94.0713 55.8294 94.2406 57.1842V57.1896C94.0713 58.5411 93.058 59.8681 91.2532 60.8965L77.0418 68.9969" fill="url(#paint1_linear_457_2233)"/>
<path d="M32.4751 93.5366C31.4887 93.5375 30.6278 93.2147 29.9567 92.6072V92.6063L65.2685 57.1851L77.0418 68.9969L35.6683 92.5773C34.5237 93.2284 33.4391 93.5366 32.4751 93.5366Z" fill="url(#paint2_linear_457_2233)"/>
<path d="M65.2683 57.1855L29.9529 21.7621C30.6242 21.1556 31.4839 20.8339 32.4691 20.8339C33.4357 20.8339 34.5212 21.1432 35.6681 21.7955L77.0404 45.3758L65.2681 57.1855" fill="url(#paint3_linear_457_2233)"/>
<path d="M32.4763 93.9556C31.4899 93.9556 30.6279 93.6328 29.9566 93.0252L29.9554 93.0263C29.9527 93.0235 29.9497 93.0209 29.9466 93.0186L29.763 92.8387C29.7572 92.833 29.7518 92.8265 29.745 92.8199L29.9567 92.6075C30.628 93.215 31.4887 93.5378 32.4754 93.5367C33.4393 93.5367 34.5238 93.2285 35.6685 92.5774L77.0418 68.9972L77.3069 69.2632L77.0385 69.4161L35.6684 92.995C34.6252 93.5882 33.633 93.8975 32.7368 93.949C32.65 93.9533 32.5632 93.9555 32.4763 93.9556Z" fill="url(#paint4_linear_457_2233)"/>
<path d="M29.7448 92.8198C28.9154 91.9396 28.4257 90.5737 28.4257 88.8025V88.3859C28.4257 90.1559 28.9154 91.5229 29.7448 92.4032L29.9565 92.6065L29.7448 92.8198Z" fill="url(#paint5_linear_457_2233)"/>
<path d="M77.3067 69.2631L77.0416 68.9971L91.2531 60.8966C93.058 59.8682 94.0712 58.5412 94.2406 57.1897C94.2406 57.6857 94.1303 58.1816 93.9111 58.6642C93.469 59.6369 92.5829 60.5561 91.2532 61.3143L77.3067 69.2632" fill="url(#paint6_linear_457_2233)"/>
<path d="M94.2407 57.1841C94.0713 55.8293 93.058 54.5036 91.2533 53.4749L77.0405 45.3754L77.3056 45.1095H77.3068L91.2533 53.0583C93.2431 54.1931 94.2395 55.6884 94.2407 57.1841Z" fill="url(#paint7_linear_457_2233)"/>
<path d="M28.4257 25.9883V25.5514C28.4257 25.3939 28.4299 25.2398 28.438 25.0902V25.0834C28.438 25.0813 28.438 25.0792 28.4387 25.0769V25.06C28.5246 23.5354 28.9966 22.3462 29.7448 21.552L29.9532 21.7619C28.9966 22.6277 28.4257 24.0716 28.4257 25.9883Z" fill="url(#paint8_linear_457_2233)"/>
<path d="M77.0404 45.376L35.6682 21.7955C34.5213 21.1433 33.4359 20.834 32.4694 20.834C31.484 20.834 30.6243 21.1557 29.9531 21.7622L29.7448 21.5522C29.8098 21.4831 29.8774 21.4165 29.9475 21.3524C29.9497 21.3501 29.9531 21.3478 29.9553 21.3456C30.6212 20.7437 31.4718 20.4221 32.4483 20.4163H32.4694C33.4359 20.4163 34.5213 20.7257 35.6682 21.3781L77.3067 45.1091L77.3055 45.11L77.0404 45.376Z" fill="url(#paint9_linear_457_2233)"/>
<defs>
<linearGradient id="paint0_linear_457_2233" x1="50.9942" y1="24.9022" x2="20.5156" y2="55.385" gradientUnits="userSpaceOnUse">
<stop stop-color="#00A0FF"/>
<stop offset="0.00657" stop-color="#00A1FF"/>
<stop offset="0.2601" stop-color="#00BEFF"/>
<stop offset="0.5122" stop-color="#00D2FF"/>
<stop offset="0.7604" stop-color="#00DFFF"/>
<stop offset="1" stop-color="#00E3FF"/>
</linearGradient>
<linearGradient id="paint1_linear_457_2233" x1="96.4396" y1="56.9812" x2="27.4698" y2="56.9812" gradientUnits="userSpaceOnUse">
<stop stop-color="#FFE000"/>
<stop offset="0.4087" stop-color="#FFBD00"/>
<stop offset="0.7754" stop-color="#FFA500"/>
<stop offset="1" stop-color="#FF9C00"/>
</linearGradient>
<linearGradient id="paint2_linear_457_2233" x1="70.7912" y1="68.4153" x2="19.1434" y2="119.693" gradientUnits="userSpaceOnUse">
<stop stop-color="#FF3A44"/>
<stop offset="1" stop-color="#C31162"/>
</linearGradient>
<linearGradient id="paint3_linear_457_2233" x1="20.8511" y1="16.5104" x2="43.8694" y2="39.3989" gradientUnits="userSpaceOnUse">
<stop stop-color="#32A071"/>
<stop offset="0.0685" stop-color="#2DA771"/>
<stop offset="0.4762" stop-color="#15CF74"/>
<stop offset="0.8009" stop-color="#06E775"/>
<stop offset="1" stop-color="#00F076"/>
</linearGradient>
<linearGradient id="paint4_linear_457_2233" x1="70.7656" y1="76.6088" x2="29.403" y2="117.977" gradientUnits="userSpaceOnUse">
<stop stop-color="#CC2E36"/>
<stop offset="1" stop-color="#9C0E4E"/>
</linearGradient>
<linearGradient id="paint5_linear_457_2233" x1="33.1302" y1="24.9022" x2="6.27894" y2="51.7576" gradientUnits="userSpaceOnUse">
<stop stop-color="#008DE0"/>
<stop offset="0.00657" stop-color="#008DE0"/>
<stop offset="0.2601" stop-color="#00A7E0"/>
<stop offset="0.5122" stop-color="#00B8E0"/>
<stop offset="0.7604" stop-color="#00C4E0"/>
<stop offset="1" stop-color="#00C7E0"/>
</linearGradient>
<linearGradient id="paint6_linear_457_2233" x1="96.4397" y1="57.1871" x2="27.4698" y2="57.1871" gradientUnits="userSpaceOnUse">
<stop stop-color="#E0C500"/>
<stop offset="0.4087" stop-color="#E0A600"/>
<stop offset="0.7754" stop-color="#E09100"/>
<stop offset="1" stop-color="#E08900"/>
</linearGradient>
<linearGradient id="paint7_linear_457_2233" x1="96.4397" y1="57.1869" x2="27.47" y2="57.1869" gradientUnits="userSpaceOnUse">
<stop stop-color="#FFE840"/>
<stop offset="0.4087" stop-color="#FFCE40"/>
<stop offset="0.7754" stop-color="#FFBC40"/>
<stop offset="1" stop-color="#FFB540"/>
</linearGradient>
<linearGradient id="paint8_linear_457_2233" x1="33.1011" y1="24.9509" x2="7.24028" y2="49.695" gradientUnits="userSpaceOnUse">
<stop stop-color="#40B8FF"/>
<stop offset="0.00657" stop-color="#40B9FF"/>
<stop offset="0.2601" stop-color="#40CEFF"/>
<stop offset="0.5122" stop-color="#40DDFF"/>
<stop offset="0.7604" stop-color="#40E7FF"/>
<stop offset="1" stop-color="#40EAFF"/>
</linearGradient>
<linearGradient id="paint9_linear_457_2233" x1="20.7998" y1="24.0019" x2="39.27" y2="42.475" gradientUnits="userSpaceOnUse">
<stop stop-color="#65B895"/>
<stop offset="0.0685" stop-color="#62BD95"/>
<stop offset="0.4762" stop-color="#50DB97"/>
<stop offset="0.8009" stop-color="#44ED98"/>
<stop offset="1" stop-color="#40F498"/>
</linearGradient>
</defs>
</svg>
