<svg width="386" height="115" viewBox="0 0 386 115" fill="none" xmlns="http://www.w3.org/2000/svg">
<path d="M370.776 114.366H14.4826C6.64421 114.366 0.230835 107.933 0.230835 100.07V14.2958C0.230835 6.43308 6.64408 0 14.4826 0H370.776C378.614 0 385.027 6.43308 385.027 14.2958V100.07C385.027 107.933 378.614 114.366 370.776 114.366Z" fill="black"/>
<path d="M370.776 0H14.4826C6.64421 0 0.230835 6.43308 0.230835 14.2958V100.07C0.230835 107.933 6.64408 114.366 14.4826 114.366H370.776C378.614 114.366 385.027 107.933 385.027 100.07V14.2958C385.027 6.43308 378.614 0 370.776 0ZM370.776 2.28725C377.377 2.28725 382.747 7.67514 382.747 14.2958V100.07C382.747 106.692 377.377 112.08 370.776 112.08H14.4826C7.88239 112.08 2.51113 106.692 2.51113 100.07V14.2958C2.51113 7.67514 7.88226 2.28738 14.4826 2.28738H370.776" fill="#A6A6A6"/>
<path d="M135.39 29.2876C135.39 31.683 134.682 33.5906 133.266 35.0136C131.657 36.7056 129.561 37.5523 126.983 37.5523C124.515 37.5523 122.416 36.6946 120.69 34.9767C118.961 33.2601 118.098 31.1314 118.098 28.5917C118.098 26.0508 118.961 23.9234 120.69 22.2054C122.416 20.4889 124.515 19.6299 126.983 19.6299C128.208 19.6299 129.38 19.8702 130.494 20.3493C131.607 20.8297 132.5 21.4673 133.168 22.2657L131.665 23.7746C130.533 22.4176 128.974 21.7397 126.983 21.7397C125.183 21.7397 123.626 22.3742 122.312 23.644C120.998 24.9151 120.342 26.5635 120.342 28.5917C120.342 30.62 120.998 32.2682 122.312 33.5394C123.626 34.8093 125.183 35.4436 126.983 35.4436C128.893 35.4436 130.485 34.8058 131.76 33.5283C132.587 32.696 133.066 31.5391 133.194 30.0536H126.983V27.993H135.27C135.35 28.4411 135.389 28.871 135.389 29.2876" fill="white"/>
<path d="M135.39 29.2876H135.105C135.102 31.6285 134.421 33.4466 133.064 34.8115L133.062 34.8138L133.06 34.8161C131.503 36.4498 129.5 37.2629 126.983 37.2664C124.58 37.2629 122.569 36.4409 120.89 34.7746C119.215 33.1049 118.386 31.0665 118.383 28.5917C118.386 26.1157 119.215 24.0785 120.89 22.4099C122.569 20.7424 124.58 19.9193 126.983 19.9158C128.171 19.9158 129.302 20.1484 130.381 20.6118C131.461 21.0787 132.314 21.6906 132.95 22.4503L133.168 22.2658L132.967 22.0636L131.463 23.5735L131.665 23.7746L131.884 23.5916C130.7 22.1675 129.036 21.4496 126.983 21.4538C125.116 21.4515 123.474 22.1207 122.115 23.4387C120.744 24.7609 120.054 26.5021 120.057 28.5917C120.054 30.6814 120.744 32.4224 122.115 33.7448C123.474 35.0628 125.116 35.7319 126.983 35.7296C128.956 35.733 130.637 35.0616 131.961 33.7304C132.845 32.8412 133.346 31.6096 133.478 30.0781L133.504 29.7677H127.268V28.2789H135.27V27.993L134.99 28.0433C135.068 28.4768 135.105 28.8888 135.105 29.2876H135.675C135.675 28.853 135.634 28.4064 135.551 27.9419L135.509 27.7071H126.698V30.3395H133.194V30.0536L132.91 30.0291C132.784 31.4677 132.327 32.5511 131.558 33.3263C130.333 34.5502 128.83 35.1543 126.983 35.1578C125.25 35.1554 123.779 34.5568 122.511 33.3339C121.255 32.1153 120.63 30.5596 120.627 28.5917C120.63 26.6238 121.255 25.068 122.511 23.8495C123.779 22.6266 125.249 22.0279 126.983 22.0256C128.91 22.0302 130.366 22.669 131.447 23.959L131.647 24.198L133.37 22.468L133.555 22.2827L133.386 22.0825C132.686 21.2451 131.753 20.5804 130.606 20.087C129.457 19.592 128.245 19.344 126.983 19.344C124.449 19.3418 122.262 20.2353 120.489 22.0034C118.708 23.768 117.811 25.9861 117.813 28.5917C117.811 31.1961 118.708 33.4155 120.49 35.1812C122.262 36.9481 124.449 37.8405 126.983 37.8382C129.622 37.8405 131.811 36.9614 133.472 35.2112L133.266 35.0136L133.468 35.2158C134.944 33.7359 135.676 31.7368 135.675 29.2876H135.39ZM148.528 22.1217H140.739V27.561H147.763V29.6224H140.739V35.0616H148.528V37.1691H138.544V20.0142H148.528V22.1217Z" fill="white"/>
<path d="M148.528 22.1217V21.8358H140.454V27.8469H147.478V29.3356L140.454 29.3364V35.3475H148.243V36.8832H138.829V20.3001H148.243V22.1217H148.528H148.813V19.7283H138.259V37.455H148.813V34.7757H141.024V29.9082H148.048V27.275H141.024V22.4076H148.813V22.1217H148.528ZM157.795 37.1692H155.596V22.1215H150.819V20.014H162.571V22.1215H157.795V37.1689" fill="white"/>
<path d="M157.795 37.1692V36.8832H155.881V21.8358H151.104V20.3002H162.286V21.8358H157.51V37.1691H157.795H158.08V22.4076H162.856V19.7283H150.534V22.4074H155.311V37.4548H158.08V37.1689H157.795M171.074 37.1692V20.014H173.271V37.1689H171.074" fill="white"/>
<path d="M171.075 37.1692H171.36V20.3001H172.986V36.8832H171.075V37.1691V37.455H173.556V19.7283H170.79V37.455H171.075V37.1691M183.019 37.1692H180.82V22.1215H176.044V20.014H187.796V22.1215H183.019V37.1689" fill="white"/>
<path d="M183.019 37.1692V36.8832H181.105V21.8358H176.329V20.3003H187.511V21.8358H182.734V37.1691H183.019H183.304V22.4076H188.081V19.7283H175.759V22.4075H180.535V37.4549H183.304V37.169H183.019M199.126 33.5161C200.392 34.8014 201.941 35.4435 203.772 35.4435C205.604 35.4435 207.154 34.8014 208.418 33.5161C209.685 32.2306 210.319 30.5874 210.319 28.5917C210.319 26.5961 209.685 24.9529 208.418 23.6674C207.154 22.3819 205.604 21.7397 203.772 21.7397C201.941 21.7397 200.392 22.3819 199.126 23.6674C197.862 24.9529 197.228 26.596 197.228 28.5917C197.228 30.5874 197.862 32.2306 199.126 33.5161ZM210.043 34.9521C208.362 36.6865 206.271 37.5523 203.772 37.5523C201.272 37.5523 199.182 36.6865 197.504 34.9521C195.821 33.2197 194.984 31.0992 194.984 28.5917C194.984 26.0842 195.821 23.9632 197.504 22.2312C199.182 20.4965 201.272 19.6299 203.772 19.6299C206.258 19.6299 208.343 20.5011 210.032 22.2424C211.719 23.9835 212.563 26.0998 212.563 28.5917C212.563 31.0992 211.721 33.2197 210.043 34.9521Z" fill="white"/>
<path d="M199.126 33.5161L198.923 33.7171C200.236 35.0539 201.874 35.7331 203.772 35.7296C205.669 35.7331 207.31 35.0539 208.62 33.7171C209.942 32.3789 210.606 30.6478 210.604 28.5917C210.606 26.5357 209.942 24.8045 208.62 23.4663C207.31 22.1294 205.669 21.4505 203.772 21.4538C201.874 21.4505 200.236 22.1294 198.923 23.4663C197.605 24.8045 196.939 26.5357 196.943 28.5917C196.939 30.6476 197.605 32.3789 198.923 33.7171L199.126 33.5161L199.329 33.315C198.12 32.0808 197.515 30.5283 197.513 28.5917C197.515 26.6552 198.12 25.1027 199.329 23.8684C200.549 22.6344 202.006 22.0291 203.772 22.0257C205.537 22.0291 206.998 22.6344 208.215 23.8684C209.426 25.1027 210.031 26.6552 210.033 28.5917C210.031 30.5281 209.426 32.0808 208.215 33.315C206.998 34.5491 205.537 35.1543 203.772 35.1576C202.006 35.1543 200.549 34.5491 199.329 33.315L199.126 33.5161ZM210.043 34.9522L209.839 34.7535C208.205 36.4332 206.206 37.2631 203.772 37.2664C201.337 37.2629 199.339 36.4332 197.707 34.7535C196.076 33.068 195.271 31.0354 195.269 28.5917C195.271 26.1479 196.076 24.1154 197.707 22.43C199.339 20.7501 201.337 19.9193 203.772 19.9159C206.191 19.9193 208.185 20.7536 209.828 22.4422C211.465 24.1354 212.274 26.1648 212.278 28.5917C212.274 31.0354 211.467 33.068 209.839 34.7535L210.043 34.9522L210.248 35.1508C211.976 33.3708 212.85 31.1627 212.848 28.5917C212.85 26.0354 211.973 23.8318 210.237 22.0437C208.5 20.2486 206.324 19.3409 203.772 19.344C201.207 19.3409 199.025 20.2444 197.299 22.0325V22.0313C195.568 23.8126 194.697 26.0207 194.699 28.5917C194.697 31.1627 195.568 33.3708 197.299 35.152L197.307 35.1601L197.299 35.1508C199.025 36.939 201.207 37.8405 203.772 37.8382C206.336 37.8405 208.519 36.939 210.248 35.1508L210.043 34.9522ZM215.647 37.1693V20.0141H218.321L226.633 33.3594H226.728L226.633 30.0535V20.0141H228.832V37.169H226.538L217.842 23.1769H217.748L217.842 26.4841V37.169H215.647" fill="white"/>
<path d="M215.647 37.1692H215.932V20.3001H218.163L226.475 33.6454H227.02L226.918 30.0493V20.3002H228.547V36.8832H226.696L218.001 22.8911H217.455L217.557 26.4888V36.8832H215.647V37.1691V37.455H218.127V26.4796L218.033 23.1693L217.748 23.177V23.4629H217.842V23.177L217.601 23.329L226.38 37.455H229.117V19.7283H226.348V30.0569L226.442 33.3672L226.727 33.3595V33.0736H226.633V33.3595L226.875 33.2078L218.479 19.7283H215.362V37.455H215.647V37.1691M305.035 85.7747H310.354V50.0319H305.035L305.035 85.7747ZM352.941 62.9073L346.844 78.4036H346.662L340.334 62.9072H334.605L344.093 84.5662L338.684 96.6138H344.233L358.856 62.9072L352.941 62.9073ZM322.779 81.7151C321.034 81.7151 318.606 80.8415 318.606 78.6795C318.606 75.9206 321.633 74.8631 324.244 74.8631C326.584 74.8631 327.681 75.3689 329.104 76.0594C328.69 79.3696 325.848 81.7151 322.779 81.7151ZM323.42 62.1253C319.569 62.1253 315.582 63.8272 313.931 67.598L318.651 69.5748C319.66 67.598 321.539 66.9534 323.511 66.9534C326.262 66.9534 329.058 68.6098 329.104 71.5527V71.9202C328.14 71.3683 326.079 70.5408 323.557 70.5408C318.469 70.5408 313.287 73.3452 313.287 78.5877C313.287 83.3702 317.46 86.4515 322.134 86.4515C325.712 86.4515 327.681 84.8421 328.921 82.957H329.104V85.7156H334.237V72.0116C334.237 65.6669 329.517 62.1253 323.42 62.1253ZM290.55 67.2582H282.985V55.0065H290.55C294.526 55.0065 296.784 58.3089 296.784 61.1323C296.784 63.9021 294.526 67.2582 290.55 67.2582ZM290.413 50.0319H277.669V85.7747H282.985V72.2329H290.413C296.308 72.2329 302.102 67.9519 302.102 61.1323C302.102 54.3129 296.308 50.0319 290.413 50.0319ZM220.919 81.7216C217.244 81.7216 214.168 78.6358 214.168 74.3973C214.168 70.1143 217.244 66.9815 220.919 66.9815C224.546 66.9815 227.393 70.1142 227.393 74.3973C227.393 78.6358 224.546 81.7216 220.919 81.7216ZM227.026 64.9087H226.842C225.649 63.4811 223.351 62.1913 220.459 62.1913C214.397 62.1913 208.842 67.5342 208.842 74.3973C208.842 81.2147 214.397 86.5119 220.459 86.5119C223.351 86.5119 225.649 85.2218 226.842 83.7487H227.026V85.4988C227.026 90.1518 224.546 92.639 220.551 92.639C217.291 92.639 215.27 90.2891 214.443 88.3088L209.806 90.2433C211.137 93.4675 214.674 97.4292 220.551 97.4292C226.796 97.4292 232.077 93.7434 232.077 84.7617V62.9284H227.026V64.9087ZM235.751 85.7747H241.077V50.0306H235.751V85.7747ZM248.93 73.983C248.792 69.2843 252.558 66.8897 255.267 66.8897C257.38 66.8897 259.17 67.9485 259.766 69.4699L248.93 73.983ZM265.461 69.9298C264.452 67.2113 261.374 62.1913 255.083 62.1913C248.838 62.1913 243.649 67.1198 243.649 74.3515C243.649 81.169 248.792 86.5119 255.68 86.5119C261.237 86.5119 264.452 83.1031 265.783 81.1228L261.65 78.3586C260.273 80.3858 258.389 81.7216 255.68 81.7216C252.971 81.7216 251.042 80.4775 249.802 78.037L266.011 71.3114L265.461 69.9298ZM136.317 65.9225V71.0813H148.623C148.256 73.983 147.292 76.1017 145.822 77.5758C144.032 79.3728 141.231 81.3531 136.317 81.3531C128.74 81.3531 122.817 75.227 122.817 67.6268C122.817 60.0267 128.74 53.8998 136.317 53.8998C140.404 53.8998 143.388 55.5123 145.593 57.5851L149.22 53.9466C146.144 50.9979 142.057 48.741 136.317 48.741C125.939 48.741 117.214 57.2167 117.214 67.6268C117.214 78.037 125.939 86.5119 136.317 86.5119C141.92 86.5119 146.144 84.6702 149.45 81.2147C152.848 77.8059 153.905 73.0158 153.905 69.147C153.905 67.9485 153.813 66.844 153.628 65.9225H136.317ZM167.896 81.7216C164.221 81.7216 161.053 78.6814 161.053 74.3515C161.053 69.9756 164.221 66.9815 167.896 66.9815C171.569 66.9815 174.737 69.9756 174.737 74.3515C174.737 78.6815 171.569 81.7216 167.896 81.7216ZM167.896 62.1913C161.191 62.1913 155.726 67.304 155.726 74.3515C155.726 81.3531 161.191 86.5119 167.896 86.5119C174.599 86.5119 180.064 81.3531 180.064 74.3515C180.064 67.304 174.599 62.1913 167.896 62.1913ZM194.441 81.7216C190.769 81.7216 187.6 78.6814 187.6 74.3515C187.6 69.9756 190.769 66.9815 194.442 66.9815C198.115 66.9815 201.284 69.9756 201.284 74.3515C201.284 78.6815 198.115 81.7216 194.441 81.7216ZM194.441 62.1913C187.737 62.1913 182.273 67.304 182.273 74.3515C182.273 81.3531 187.737 86.5119 194.442 86.5119C201.146 86.5119 206.61 81.3531 206.61 74.3515C206.61 67.304 201.145 62.1913 194.441 62.1913Z" fill="white"/>
<path d="M30.184 21.7621C29.2275 22.6278 28.6565 24.0717 28.6565 25.9884V25.5551V88.8027V88.3861C28.6565 90.1562 29.1462 91.5231 29.9756 92.4035L30.1873 92.6068V92.6076C30.8587 93.2153 31.7195 93.538 32.706 93.5369C33.67 93.5369 34.7546 93.2287 35.8993 92.5777L77.2726 68.9974L91.484 60.8968C93.289 59.8684 94.3022 58.5415 94.4716 57.19V57.1844C94.3022 55.8298 93.289 54.504 91.4842 53.4754L77.2714 45.3758L35.8994 21.7955C34.7523 21.1434 33.6669 20.834 32.7004 20.834C31.715 20.834 30.8553 21.1556 30.1843 21.7621H30.184Z" fill="#00C1FF"/>
<path d="M30.1875 92.6067L29.9756 92.4034C29.1462 91.5232 28.6565 90.1561 28.6565 88.3861V88.8027V25.5707V25.9883C28.6565 24.0717 29.2275 22.6278 30.184 21.7621L65.4993 57.1855L30.1875 92.6067Z" fill="url(#paint0_linear_457_2233)"/>
<path d="M77.2725 68.9973L65.4991 57.1856L77.2715 45.3758L91.4841 53.4752C93.2888 54.504 94.3021 55.8297 94.4715 57.1844V57.1898C94.3021 58.5414 93.2888 59.8684 91.4841 60.8967L77.2726 68.9972" fill="url(#paint1_linear_457_2233)"/>
<path d="M32.7059 93.5366C31.7195 93.5375 30.8587 93.2147 30.1875 92.6072V92.6063L65.4993 57.1851L77.2726 68.9969L35.8992 92.5773C34.7545 93.2284 33.6699 93.5366 32.7059 93.5366Z" fill="url(#paint2_linear_457_2233)"/>
<path d="M65.4991 57.1855L30.1837 21.7621C30.855 21.1556 31.7147 20.8339 32.7 20.8339C33.6665 20.8339 34.752 21.1432 35.899 21.7955L77.2713 45.3758L65.499 57.1855" fill="url(#paint3_linear_457_2233)"/>
<path d="M32.7071 93.9556C31.7207 93.9556 30.8587 93.6328 30.1874 93.0252L30.1863 93.0263C30.1835 93.0235 30.1805 93.0209 30.1774 93.0186L29.9938 92.8387C29.988 92.833 29.9826 92.8265 29.9758 92.8199L30.1875 92.6075C30.8588 93.215 31.7195 93.5378 32.7062 93.5367C33.6701 93.5367 34.7547 93.2285 35.8993 92.5774L77.2727 68.9972L77.5377 69.2632L77.2693 69.4161L35.8992 92.995C34.856 93.5882 33.8638 93.8975 32.9676 93.949C32.8808 93.9533 32.794 93.9555 32.7071 93.9556Z" fill="url(#paint4_linear_457_2233)"/>
<path d="M29.9756 92.8196C29.1462 91.9394 28.6565 90.5734 28.6565 88.8022V88.3857C28.6565 90.1557 29.1462 91.5227 29.9756 92.403L30.1873 92.6063L29.9756 92.8196Z" fill="url(#paint5_linear_457_2233)"/>
<path d="M77.5375 69.2628L77.2725 68.9968L91.4839 60.8964C93.2888 59.868 94.3021 58.541 94.4714 57.1895C94.4714 57.6855 94.3611 58.1813 94.142 58.664C93.6998 59.6367 92.8137 60.5558 91.484 61.3141L77.5375 69.2629" fill="url(#paint6_linear_457_2233)"/>
<path d="M94.4715 57.1841C94.3021 55.8293 93.2889 54.5036 91.4841 53.4749L77.2714 45.3754L77.5364 45.1095H77.5376L91.4841 53.0583C93.4739 54.1931 94.4703 55.6884 94.4715 57.1841Z" fill="url(#paint7_linear_457_2233)"/>
<path d="M28.6565 25.988V25.5511C28.6565 25.3936 28.6607 25.2395 28.6688 25.09V25.0832C28.6688 25.0811 28.6688 25.0789 28.6696 25.0766V25.0598C28.7554 23.5352 29.2275 22.3459 29.9756 21.5518L30.184 21.7616C29.2275 22.6274 28.6565 24.0714 28.6565 25.988Z" fill="url(#paint8_linear_457_2233)"/>
<path d="M77.2713 45.376L35.8991 21.7955C34.7521 21.1433 33.6668 20.834 32.7002 20.834C31.7148 20.834 30.8551 21.1557 30.184 21.7622L29.9756 21.5522C30.0407 21.4831 30.1083 21.4165 30.1783 21.3524C30.1805 21.3501 30.184 21.3478 30.1861 21.3456C30.8521 20.7437 31.7026 20.4221 32.6792 20.4163H32.7002C33.6668 20.4163 34.7521 20.7257 35.8991 21.3781L77.5375 45.1091L77.5363 45.11L77.2713 45.376Z" fill="url(#paint9_linear_457_2233)"/>
<defs>
<linearGradient id="paint0_linear_457_2233" x1="51.2251" y1="24.9024" x2="20.7464" y2="55.3853" gradientUnits="userSpaceOnUse">
<stop stop-color="#00A0FF"/>
<stop offset="0.00657" stop-color="#00A1FF"/>
<stop offset="0.2601" stop-color="#00BEFF"/>
<stop offset="0.5122" stop-color="#00D2FF"/>
<stop offset="0.7604" stop-color="#00DFFF"/>
<stop offset="1" stop-color="#00E3FF"/>
</linearGradient>
<linearGradient id="paint1_linear_457_2233" x1="96.6705" y1="56.9815" x2="27.7007" y2="56.9815" gradientUnits="userSpaceOnUse">
<stop stop-color="#FFE000"/>
<stop offset="0.4087" stop-color="#FFBD00"/>
<stop offset="0.7754" stop-color="#FFA500"/>
<stop offset="1" stop-color="#FF9C00"/>
</linearGradient>
<linearGradient id="paint2_linear_457_2233" x1="71.022" y1="68.4153" x2="19.3743" y2="119.693" gradientUnits="userSpaceOnUse">
<stop stop-color="#FF3A44"/>
<stop offset="1" stop-color="#C31162"/>
</linearGradient>
<linearGradient id="paint3_linear_457_2233" x1="21.082" y1="16.5104" x2="44.1003" y2="39.3989" gradientUnits="userSpaceOnUse">
<stop stop-color="#32A071"/>
<stop offset="0.0685" stop-color="#2DA771"/>
<stop offset="0.4762" stop-color="#15CF74"/>
<stop offset="0.8009" stop-color="#06E775"/>
<stop offset="1" stop-color="#00F076"/>
</linearGradient>
<linearGradient id="paint4_linear_457_2233" x1="70.9964" y1="76.6088" x2="29.6339" y2="117.977" gradientUnits="userSpaceOnUse">
<stop stop-color="#CC2E36"/>
<stop offset="1" stop-color="#9C0E4E"/>
</linearGradient>
<linearGradient id="paint5_linear_457_2233" x1="33.361" y1="24.9019" x2="6.50977" y2="51.7573" gradientUnits="userSpaceOnUse">
<stop stop-color="#008DE0"/>
<stop offset="0.00657" stop-color="#008DE0"/>
<stop offset="0.2601" stop-color="#00A7E0"/>
<stop offset="0.5122" stop-color="#00B8E0"/>
<stop offset="0.7604" stop-color="#00C4E0"/>
<stop offset="1" stop-color="#00C7E0"/>
</linearGradient>
<linearGradient id="paint6_linear_457_2233" x1="96.6705" y1="57.1869" x2="27.7006" y2="57.1869" gradientUnits="userSpaceOnUse">
<stop stop-color="#E0C500"/>
<stop offset="0.4087" stop-color="#E0A600"/>
<stop offset="0.7754" stop-color="#E09100"/>
<stop offset="1" stop-color="#E08900"/>
</linearGradient>
<linearGradient id="paint7_linear_457_2233" x1="96.6706" y1="57.1869" x2="27.7009" y2="57.1869" gradientUnits="userSpaceOnUse">
<stop stop-color="#FFE840"/>
<stop offset="0.4087" stop-color="#FFCE40"/>
<stop offset="0.7754" stop-color="#FFBC40"/>
<stop offset="1" stop-color="#FFB540"/>
</linearGradient>
<linearGradient id="paint8_linear_457_2233" x1="33.3319" y1="24.9507" x2="7.47112" y2="49.6947" gradientUnits="userSpaceOnUse">
<stop stop-color="#40B8FF"/>
<stop offset="0.00657" stop-color="#40B9FF"/>
<stop offset="0.2601" stop-color="#40CEFF"/>
<stop offset="0.5122" stop-color="#40DDFF"/>
<stop offset="0.7604" stop-color="#40E7FF"/>
<stop offset="1" stop-color="#40EAFF"/>
</linearGradient>
<linearGradient id="paint9_linear_457_2233" x1="21.0306" y1="24.0019" x2="39.5008" y2="42.475" gradientUnits="userSpaceOnUse">
<stop stop-color="#65B895"/>
<stop offset="0.0685" stop-color="#62BD95"/>
<stop offset="0.4762" stop-color="#50DB97"/>
<stop offset="0.8009" stop-color="#44ED98"/>
<stop offset="1" stop-color="#40F498"/>
</linearGradient>
</defs>
</svg>
