<svg width="1564" height="374" viewBox="0 0 1564 374" fill="none" xmlns="http://www.w3.org/2000/svg">
<path fill-rule="evenodd" clip-rule="evenodd" d="M671.789 302.519C649.78 344.776 606.028 373.572 555.649 373.572C501.268 373.572 454.609 340.019 434.683 292.203C420.874 302.315 403.919 308.273 385.594 308.273C353.99 308.273 326.461 290.553 312.118 264.362C299.05 272.868 283.511 277.801 266.837 277.801C251.667 277.801 237.435 273.717 225.15 266.574C210.493 291.546 183.635 308.273 152.929 308.273C109.694 308.273 74.0864 275.109 69.4279 232.463H67.6146C63.5337 247.073 50.2877 257.776 34.5771 257.776C18.8665 257.776 5.62045 247.073 1.53952 232.463H0.000213623V0H1548.67V167.569C1557.96 180.085 1563.46 195.643 1563.46 212.502C1563.46 253.855 1530.36 287.378 1489.54 287.378C1467.29 287.378 1447.33 277.418 1433.78 261.659C1418.1 304.126 1377.36 334.393 1329.58 334.393C1282.82 334.393 1242.82 305.41 1226.43 264.375C1214.95 270.715 1201.79 274.318 1187.8 274.318C1167.85 274.318 1149.6 266.994 1135.5 254.857C1123.34 279.31 1098.33 296.084 1069.45 296.084C1047.86 296.084 1028.43 286.71 1014.92 271.76C1001.4 286.71 981.978 296.084 960.389 296.084C943.637 296.084 928.187 290.44 915.791 280.927C905.473 320.713 869.672 350.065 827.091 350.065C789.504 350.065 757.199 327.194 743.042 294.463C730.967 303.16 716.201 308.273 700.256 308.273C690.167 308.273 680.551 306.226 671.789 302.519Z" fill="url(#paint0_linear_578_2397)"/>
<defs>
<linearGradient id="paint0_linear_578_2397" x1="781.85" y1="373.572" x2="781.867" y2="166.478" gradientUnits="userSpaceOnUse">
<stop stop-color="#F7EECE"/>
<stop offset="1" stop-color="#F9E086"/>
</linearGradient>
</defs>
</svg>
