<svg width="385" height="114" viewBox="0 0 385 114" fill="none" xmlns="http://www.w3.org/2000/svg">
<path d="M381.554 100.372C381.554 101.805 381.272 103.223 380.723 104.546C380.175 105.869 379.37 107.072 378.357 108.084C377.343 109.096 376.14 109.899 374.816 110.446C373.492 110.993 372.073 111.274 370.64 111.272H13.4622C10.5673 111.275 7.78965 110.129 5.74021 108.085C3.69078 106.041 2.53734 103.266 2.53357 100.372V13.4473C2.53734 10.5518 3.69032 7.77619 5.73935 5.72984C7.78837 3.68349 10.566 2.53371 13.4622 2.53296H370.637C372.07 2.53296 373.49 2.81529 374.814 3.36382C376.139 3.91235 377.342 4.71634 378.356 5.72987C379.369 6.7434 380.173 7.94661 380.721 9.27079C381.27 10.595 381.552 12.0142 381.551 13.4473L381.554 100.372Z" fill="white"/>
<path d="M370.64 113.808H13.4622C9.896 113.807 6.47571 112.392 3.95187 109.873C1.42803 107.354 0.00678557 103.938 0 100.372L0 13.4501C0.00527573 9.88307 1.42558 6.46375 3.94934 3.94226C6.4731 1.42077 9.89423 0.00301073 13.4622 0L370.637 0C374.205 0.00451301 377.625 1.42275 380.148 3.94392C382.672 6.46509 384.092 9.88353 384.099 13.4501V100.372C384.105 107.783 378.056 113.808 370.64 113.808Z" fill="#A6A6A6"/>
<path d="M381.554 100.372C381.554 101.805 381.272 103.223 380.723 104.546C380.175 105.869 379.37 107.072 378.357 108.084C377.343 109.096 376.14 109.899 374.816 110.446C373.492 110.993 372.073 111.274 370.64 111.272H13.4622C10.5673 111.275 7.78965 110.129 5.74021 108.085C3.69078 106.041 2.53734 103.266 2.53357 100.372V13.4473C2.53734 10.5518 3.69032 7.77619 5.73935 5.72984C7.78837 3.68349 10.566 2.53371 13.4622 2.53296H370.637C372.07 2.53296 373.49 2.81529 374.814 3.36382C376.139 3.91235 377.342 4.71634 378.356 5.72987C379.369 6.7434 380.173 7.94661 380.721 9.27079C381.27 10.595 381.552 12.0142 381.551 13.4473L381.554 100.372Z" fill="black"/>
<path d="M85.7666 56.3051C85.6841 47.1325 93.2792 42.67 93.6265 42.4622C89.3251 36.1925 82.658 35.3359 80.3151 35.2676C74.7156 34.6784 69.284 38.6173 66.4316 38.6173C63.5222 38.6173 59.1297 35.3245 54.3956 35.4212C48.3035 35.5152 42.6044 39.0413 39.4786 44.517C33.0279 55.6818 37.8389 72.0889 44.0192 81.1135C47.1108 85.5362 50.7233 90.4683 55.4517 90.2947C60.0777 90.1069 61.8056 87.3491 67.3881 87.3491C72.9193 87.3491 74.5419 90.2947 79.3643 90.1837C84.329 90.1069 87.4547 85.744 90.4381 81.2843C94.0108 76.2213 95.4455 71.2294 95.5025 70.9733C95.3886 70.9335 85.8634 67.2963 85.7666 56.3051ZM76.6571 29.3308C79.1451 26.2202 80.8475 21.9882 80.3749 17.6936C76.7738 17.853 72.2702 20.1838 69.6769 23.2262C67.3824 25.9071 65.3327 30.3013 65.8622 34.4337C69.9074 34.7354 74.0608 32.3931 76.6571 29.3308Z" fill="white"/>
<path d="M370.64 0H179.325L254.259 113.808H370.64C374.207 113.805 377.627 112.388 380.151 109.868C382.674 107.348 384.095 103.93 384.102 100.364V13.4501C384.096 9.8833 382.675 6.46442 380.152 3.94309C377.628 1.42176 374.208 0.00376216 370.64 0Z" fill="url(#paint0_linear_457_2267)"/>
<path d="M152.77 89.6599H146.305L142.764 78.5349H130.455L127.081 89.6599H120.787L132.985 51.7855H140.518L152.77 89.6599ZM141.696 73.8675L138.494 63.9777C138.155 62.9674 137.517 60.5881 136.584 56.8428H136.47C136.094 58.4537 135.493 60.8329 134.671 63.9777L131.522 73.8675H141.696ZM184.079 75.669C184.079 80.3137 182.818 83.985 180.293 86.6801C178.032 89.0793 175.222 90.2775 171.872 90.2775C168.254 90.2775 165.652 88.9882 164.072 86.4041V100.734H158.003V71.326C158.003 68.4089 157.926 65.4178 157.778 62.3498H163.115L163.454 66.6786H163.568C165.592 63.4171 168.664 61.7863 172.786 61.7863C176.008 61.7863 178.698 63.0585 180.85 65.6056C183 68.1585 184.079 71.511 184.079 75.669ZM177.896 75.891C177.896 73.2329 177.298 71.0414 176.096 69.3139C174.784 67.5181 173.022 66.6188 170.813 66.6188C169.315 66.6188 167.955 67.1197 166.739 68.1072C165.521 69.1033 164.724 70.404 164.351 72.0148C164.184 72.6172 164.09 73.2372 164.069 73.8618V78.4182C164.069 80.4019 164.678 82.0782 165.897 83.4499C167.115 84.816 168.698 85.5019 170.645 85.5019C172.931 85.5019 174.71 84.6168 175.983 82.8608C177.258 81.0992 177.896 78.7768 177.896 75.891ZM215.498 75.669C215.498 80.3137 214.237 83.985 211.712 86.6801C209.449 89.0793 206.642 90.2775 203.288 90.2775C199.67 90.2775 197.068 88.9882 195.488 86.4041V100.734H189.419V71.326C189.419 68.4089 189.342 65.4178 189.194 62.3498H194.532L194.871 66.6786H194.985C197.006 63.4171 200.077 61.7863 204.202 61.7863C207.422 61.7863 210.112 63.0585 212.27 65.6056C214.416 68.1585 215.498 71.511 215.498 75.669ZM209.312 75.891C209.312 73.2329 208.711 71.0414 207.51 69.3139C206.198 67.5181 204.441 66.6188 202.232 66.6188C200.735 66.6188 199.374 67.1197 198.153 68.1072C196.935 69.1033 196.14 70.404 195.767 72.0148C195.582 72.7661 195.483 73.378 195.483 73.8618V78.4182C195.483 80.4019 196.095 82.0782 197.307 83.4499C198.526 84.8132 200.109 85.5019 202.062 85.5019C204.35 85.5019 206.13 84.6168 207.399 82.8608C208.675 81.0992 209.312 78.7768 209.312 75.891ZM250.627 79.0358C250.627 82.2603 249.5 84.8815 247.259 86.905C244.794 89.1135 241.352 90.2205 236.94 90.2205C232.863 90.2205 229.595 89.4351 227.13 87.8612L228.533 82.8039C231.195 84.3806 234.119 85.1661 237.301 85.1661C239.59 85.1661 241.369 84.6481 242.639 83.6207C243.911 82.5905 244.555 81.213 244.555 79.494C244.555 77.9543 244.022 76.6651 242.978 75.6149C241.927 74.5676 240.191 73.5914 237.751 72.695C231.118 70.2218 227.799 66.6046 227.799 61.8461C227.799 58.7383 228.972 56.1939 231.312 54.2046C233.652 52.2181 236.755 51.2249 240.615 51.2249C244.062 51.2249 246.935 51.8254 249.215 53.0235L247.692 57.9698C245.545 56.8087 243.123 56.2281 240.413 56.2281C238.272 56.2281 236.592 56.7546 235.391 57.8019C234.381 58.7383 233.868 59.8795 233.868 61.2342C233.868 62.7283 234.452 63.9692 235.613 64.9425C236.621 65.839 238.46 66.8152 241.119 67.8625C244.381 69.1773 246.778 70.7085 248.312 72.4673C249.858 74.2261 250.627 76.4204 250.627 79.0358ZM270.745 66.9034H264.055V80.1628C264.055 83.5353 265.234 85.2173 267.596 85.2173C268.681 85.2173 269.58 85.1262 270.292 84.9355L270.46 89.5432C269.265 89.99 267.69 90.2149 265.74 90.2149C263.343 90.2149 261.47 89.4834 260.118 88.0206C258.771 86.5578 258.094 84.1074 258.094 80.658V66.892H254.108V62.3384H258.094V57.338L264.055 55.5394V62.3384H270.745V66.9034ZM300.869 75.78C300.869 79.9778 299.668 83.4243 297.271 86.1195C294.763 88.8943 291.426 90.2775 287.267 90.2775C283.253 90.2775 280.062 88.9484 277.682 86.2931C275.302 83.6321 274.113 80.2795 274.113 76.2354C274.113 72.0034 275.342 68.537 277.793 65.8418C280.25 63.1438 283.558 61.7948 287.717 61.7948C291.725 61.7948 294.945 63.1268 297.382 65.7849C299.71 68.3634 300.869 71.6932 300.869 75.78ZM294.578 75.9195C294.578 73.4178 294.037 71.272 292.952 69.4762C291.68 67.3075 289.858 66.2232 287.498 66.2232C285.067 66.2232 283.202 67.3075 281.933 69.4762C280.845 71.272 280.304 73.4548 280.304 76.0333C280.304 78.5378 280.845 80.6893 281.933 82.4795C283.245 84.6481 285.075 85.7324 287.447 85.7324C289.767 85.7324 291.586 84.6253 292.901 82.4254C294.017 80.5869 294.578 78.4268 294.578 75.9195ZM320.605 67.686C319.974 67.5721 319.334 67.5159 318.692 67.5181C316.557 67.5181 314.906 68.3207 313.745 69.9372C312.737 71.3602 312.23 73.1589 312.23 75.3303V89.6599H306.161V70.9504C306.166 68.0835 306.108 65.2169 305.985 62.3527H311.271L311.493 67.5779H311.661C312.304 65.7821 313.312 64.3335 314.696 63.2491C315.962 62.3017 317.501 61.7886 319.082 61.7863C319.643 61.7863 320.15 61.8261 320.6 61.8973L320.605 67.686ZM347.749 74.7128C347.764 75.6352 347.69 76.5568 347.527 77.4648H329.319C329.388 80.1628 330.27 82.229 331.961 83.652C333.495 84.9213 335.48 85.5588 337.916 85.5588C340.612 85.5588 343.072 85.1319 345.284 84.2696L346.235 88.4788C343.65 89.6058 340.598 90.1665 337.077 90.1665C332.841 90.1665 329.516 88.9199 327.096 86.4325C324.682 83.9423 323.472 80.5954 323.472 76.4033C323.472 72.288 324.597 68.8586 326.848 66.1236C329.205 63.2036 332.391 61.7436 336.399 61.7436C340.336 61.7436 343.317 63.2036 345.341 66.1236C346.943 68.4374 347.749 71.3061 347.749 74.7128ZM341.962 73.1389C342.004 71.3374 341.606 69.7864 340.783 68.4744C339.733 66.7839 338.116 65.9414 335.949 65.9414C333.965 65.9414 332.348 66.7639 331.118 68.4146C330.108 69.7266 329.507 71.3033 329.322 73.1332L341.962 73.1389Z" fill="white"/>
<path d="M128.704 38.3951C127.016 38.3951 125.555 38.3126 124.34 38.1731V19.862C126.04 19.5995 127.758 19.4701 129.478 19.475C136.438 19.475 139.644 22.8987 139.644 28.4797C139.644 34.9173 135.858 38.3951 128.704 38.3951ZM129.723 21.8229C128.784 21.8229 127.984 21.8799 127.32 22.0165V35.9362C127.679 35.9931 128.368 36.0187 129.336 36.0187C133.896 36.0187 136.493 33.4232 136.493 28.5622C136.493 24.2278 134.144 21.8229 129.723 21.8229ZM149.633 38.5346C145.71 38.5346 143.168 35.606 143.168 31.6302C143.168 27.4864 145.764 24.5323 149.855 24.5323C153.721 24.5323 156.32 27.3214 156.32 31.4111C156.32 35.606 153.641 38.5346 149.633 38.5346ZM149.747 26.7123C147.592 26.7123 146.211 28.7273 146.211 31.5448C146.211 34.3083 147.62 36.3232 149.719 36.3232C151.817 36.3232 153.226 34.1688 153.226 31.4879C153.226 28.7558 151.845 26.7123 149.747 26.7123ZM178.69 24.8084L174.491 38.23H171.755L170.016 32.4015C169.583 30.9758 169.223 29.5291 168.937 28.067H168.88C168.661 29.5299 168.245 30.9955 167.804 32.4015L165.953 38.23H163.189L159.238 24.8084H162.304L163.824 31.1891C164.183 32.7088 164.485 34.1432 164.735 35.4979H164.792C165.011 34.368 165.37 32.9564 165.897 31.2175L167.804 24.8112H170.235L172.06 31.0809C172.501 32.6007 172.86 34.092 173.139 35.5007H173.218C173.412 34.1204 173.717 32.6548 174.129 31.0809L175.76 24.8112L178.69 24.8084ZM194.148 38.23H191.164V30.5231C191.164 28.1496 190.253 26.9599 188.457 26.9599C186.689 26.9599 185.474 28.4797 185.474 30.2471V38.23H182.49V28.6448C182.49 27.458 182.462 26.1858 182.379 24.8055H185.004L185.143 26.8774H185.226C186.029 25.443 187.657 24.5323 189.482 24.5323C192.3 24.5323 194.15 26.6867 194.15 30.193L194.148 38.23ZM202.375 38.23H199.388V18.6497H202.375V38.23ZM213.252 38.5346C209.332 38.5346 206.787 35.606 206.787 31.6302C206.787 27.4864 209.383 24.5323 213.471 24.5323C217.34 24.5323 219.936 27.3214 219.936 31.4111C219.939 35.606 217.257 38.5346 213.252 38.5346ZM213.363 26.7123C211.208 26.7123 209.827 28.7273 209.827 31.5448C209.827 34.3083 211.239 36.3232 213.332 36.3232C215.433 36.3232 216.839 34.1688 216.839 31.4879C216.842 28.7558 215.464 26.7123 213.363 26.7123ZM231.699 38.23L231.483 36.6847H231.403C230.492 37.9284 229.162 38.5346 227.477 38.5346C225.072 38.5346 223.364 36.8497 223.364 34.5843C223.364 31.2716 226.236 29.5583 231.209 29.5583V29.3107C231.209 27.5434 230.273 26.6583 228.422 26.6583C227.099 26.6583 225.937 26.9912 224.915 27.6544L224.309 25.6935C225.55 24.9194 227.099 24.5323 228.918 24.5323C232.425 24.5323 234.196 26.3822 234.196 30.0848V35.0283C234.196 36.383 234.255 37.4332 234.389 38.2329L231.699 38.23ZM231.289 31.5448C227.975 31.5448 226.313 32.3474 226.313 34.2514C226.313 35.6601 227.17 36.3488 228.36 36.3488C229.877 36.3488 231.289 35.1905 231.289 33.6167V31.5448ZM248.683 38.23L248.543 36.0756H248.461C247.604 37.7035 246.163 38.5346 244.151 38.5346C240.914 38.5346 238.517 35.6886 238.517 31.6843C238.517 27.4864 241.002 24.5295 244.395 24.5295C246.192 24.5295 247.464 25.1357 248.182 26.3537H248.241V18.6497H251.228V34.6128C251.228 35.9106 251.259 37.1258 251.339 38.23H248.683ZM248.241 30.3324C248.241 28.4541 246.997 26.8518 245.099 26.8518C242.887 26.8518 241.534 28.8127 241.534 31.5733C241.534 34.2798 242.938 36.1325 245.039 36.1325C246.915 36.1325 248.241 34.5018 248.241 32.5694V30.3324ZM270.161 38.5346C266.241 38.5346 263.699 35.606 263.699 31.6302C263.699 27.4864 266.295 24.5323 270.383 24.5323C274.252 24.5323 276.848 27.3214 276.848 31.4111C276.851 35.606 274.172 38.5346 270.161 38.5346ZM270.272 26.7123C268.12 26.7123 266.739 28.7273 266.739 31.5448C266.739 34.3083 268.149 36.3232 270.244 36.3232C272.345 36.3232 273.751 34.1688 273.751 31.4879C273.757 28.7558 272.376 26.7123 270.272 26.7123ZM292.892 38.23H289.906V30.5231C289.906 28.1496 288.995 26.9599 287.199 26.9599C285.431 26.9599 284.218 28.4797 284.218 30.2471V38.23H281.232V28.6448C281.232 27.458 281.204 26.1858 281.121 24.8055H283.746L283.885 26.8774H283.968C284.768 25.443 286.399 24.5295 288.221 24.5295C291.039 24.5295 292.892 26.6839 292.892 30.1901V38.23ZM312.965 27.0453H309.683V33.5626C309.683 35.2218 310.258 36.05 311.419 36.05C311.946 36.05 312.387 35.9931 312.743 35.9106L312.825 38.176C312.247 38.398 311.473 38.5089 310.511 38.5089C308.159 38.5089 306.753 37.2112 306.753 33.8131V27.0453H304.795V24.8084H306.753V22.3494L309.683 21.4643V24.8055H312.965V27.0453ZM328.758 38.23H325.778V30.58C325.778 28.178 324.87 26.9628 323.071 26.9628C321.525 26.9628 320.084 28.013 320.084 30.1389V38.23H317.104V18.6497H320.084V26.7123H320.144C321.084 25.2495 322.444 24.5295 324.181 24.5295C327.022 24.5295 328.758 26.738 328.758 30.2471V38.23ZM344.939 32.2364H335.986C336.043 34.7779 337.726 36.2122 340.217 36.2122C341.54 36.2122 342.759 35.9903 343.835 35.5776L344.299 37.6495C343.029 38.2016 341.535 38.4776 339.795 38.4776C335.596 38.4776 333.111 35.8252 333.111 31.7127C333.111 27.5974 335.656 24.5039 339.459 24.5039C342.89 24.5039 345.042 27.0453 345.042 30.8846C345.061 31.3376 345.027 31.7914 344.939 32.2364ZM342.204 30.1104C342.204 28.0386 341.159 26.5757 339.252 26.5757C337.538 26.5757 336.183 28.067 335.989 30.1104H342.204Z" fill="white"/>
<defs>
<linearGradient id="paint0_linear_457_2267" x1="281.71" y1="114.11" x2="281.71" y2="-296.337" gradientUnits="userSpaceOnUse">
<stop stop-color="#1A1A1A" stop-opacity="0.1"/>
<stop offset="0.123" stop-color="#212121" stop-opacity="0.151"/>
<stop offset="0.308" stop-color="#353535" stop-opacity="0.227"/>
<stop offset="0.532" stop-color="#575757" stop-opacity="0.318"/>
<stop offset="0.783" stop-color="#858585" stop-opacity="0.421"/>
<stop offset="1" stop-color="#B3B3B3" stop-opacity="0.51"/>
</linearGradient>
</defs>
</svg>
