<svg width="1920" height="527" viewBox="0 0 1920 527" fill="none" xmlns="http://www.w3.org/2000/svg">
<path fill-rule="evenodd" clip-rule="evenodd" d="M797.672 426.766C769.179 486.377 712.54 527 647.321 527C576.921 527 516.518 479.667 490.722 412.212C472.846 426.478 450.896 434.883 427.173 434.883C386.26 434.883 350.622 409.884 332.053 372.936C315.137 384.936 295.02 391.895 273.434 391.895C253.795 391.895 235.372 386.135 219.468 376.058C200.494 411.285 165.724 434.883 125.973 434.883C70.0026 434.883 23.906 388.097 17.8752 327.937H15.5281C10.2451 348.547 -6.90283 363.646 -27.2412 363.646C-47.5796 363.646 -64.7275 348.547 -70.0105 327.937H-72.0039V0H1932.86V230.337C1944.88 245.557 1952 264.486 1952 285C1952 335.258 1909.24 376 1856.5 376C1830.35 376 1806.65 365.983 1789.4 349.756C1774.77 419.616 1717.57 471.73 1649.23 471.73C1588.7 471.73 1536.9 430.844 1515.69 372.955C1500.83 381.899 1483.8 386.982 1465.68 386.982C1439.86 386.982 1416.22 376.65 1397.98 359.527C1382.23 394.025 1349.85 417.688 1312.47 417.688C1284.52 417.688 1259.37 404.463 1241.88 383.373C1224.38 404.463 1199.23 417.688 1171.28 417.688C1149.6 417.688 1129.6 409.725 1113.55 396.305C1100.19 452.432 1053.84 493.838 998.72 493.838C950.061 493.838 908.24 461.574 889.914 415.4C874.281 427.669 855.166 434.883 834.525 434.883C821.464 434.883 809.015 431.995 797.672 426.766Z" fill="url(#paint0_linear_578_2397)"/>
<defs>
<linearGradient id="paint0_linear_578_2397" x1="940.157" y1="527" x2="940.183" y2="234.851" gradientUnits="userSpaceOnUse">
<stop stop-color="#F7EECE"/>
<stop offset="1" stop-color="#F9E086"/>
</linearGradient>
</defs>
</svg>
