<svg width="1920" height="527" viewBox="0 0 1920 527" fill="none" xmlns="http://www.w3.org/2000/svg">
<path fill-rule="evenodd" clip-rule="evenodd" d="M797.676 426.766C769.183 486.377 712.544 527 647.325 527C576.924 527 516.522 479.667 490.726 412.212C472.85 426.478 450.9 434.883 427.177 434.883C386.263 434.883 350.626 409.884 332.057 372.936C315.141 384.936 295.024 391.895 273.438 391.895C253.799 391.895 235.376 386.135 219.472 376.058C200.497 411.285 165.728 434.883 125.977 434.883C70.0065 434.883 23.91 388.097 17.8792 327.937H15.532C10.2491 348.547 -6.89888 363.646 -27.2373 363.646C-47.5756 363.646 -64.7236 348.547 -70.0065 327.937H-72V0H1932.86V236.391C1944.88 254.046 1952 275.994 1952 299.778C1952 358.115 1909.16 405.406 1856.31 405.406C1827.5 405.406 1801.67 391.355 1784.12 369.124C1763.82 429.032 1711.09 471.73 1649.23 471.73C1588.7 471.73 1536.91 430.844 1515.69 372.955C1500.84 381.899 1483.8 386.982 1465.69 386.982C1439.87 386.982 1416.23 376.65 1397.98 359.527C1382.24 394.025 1349.86 417.688 1312.47 417.688C1284.53 417.688 1259.38 404.463 1241.88 383.373C1224.39 404.463 1199.24 417.688 1171.29 417.688C1149.6 417.688 1129.6 409.725 1113.55 396.305C1100.2 452.432 1053.85 493.838 998.724 493.838C950.065 493.838 908.244 461.574 889.918 415.4C874.285 427.669 855.17 434.883 834.528 434.883C821.468 434.883 809.018 431.995 797.676 426.766Z" fill="url(#paint0_linear_578_2397)"/>
<defs>
<linearGradient id="paint0_linear_578_2397" x1="940.157" y1="527" x2="940.183" y2="234.851" gradientUnits="userSpaceOnUse">
<stop stop-color="#F7EECE"/>
<stop offset="1" stop-color="#F9E086"/>
</linearGradient>
</defs>
</svg>
