<svg width="328" height="254" viewBox="0 0 328 254" fill="none" xmlns="http://www.w3.org/2000/svg">
<mask id="path-1-inside-1_234_2886" fill="white">
<path d="M0 0H325V254H0V0Z"/>
</mask>
<path d="M0 254H-3V257H0V254ZM325 251H0V257H325V251ZM3 254V0H-3V254H3Z" fill="#9F9D9D" mask="url(#path-1-inside-1_234_2886)"/>
<path d="M325 56.4446L306.117 116.387L293.771 121.554L277.793 153.593L271.256 132.923L260.363 121.554L252.374 50.2436L226.954 121.554L209.524 153.593L205.167 148.425L198.63 161.861L188.462 148.425V180.463L169.58 132.923L147.065 221.803L129.635 35.7748L103.49 127.755L91.1432 110.186L79.523 121.554L72.9866 110.186L60.6401 67.813L46.1149 90.5497L25.7795 103.985L2.53906 67.813" stroke="#15AA63" stroke-width="5"/>
</svg>
