<svg width="439" height="331" viewBox="0 0 439 331" fill="none" xmlns="http://www.w3.org/2000/svg">
<path d="M190.548 85.8564L29.8301 179.389C28.2682 180.297 26.9744 181.604 26.0803 183.174C25.1861 184.745 24.7233 186.524 24.7389 188.332C24.7545 190.14 25.2479 191.911 26.1691 193.466C27.0903 195.021 28.4064 196.304 29.9837 197.186L226.711 307.319C229.088 308.65 231.762 309.36 234.486 309.383C237.21 309.406 239.896 308.741 242.295 307.451L393.454 226.127C395.38 225.089 396.995 223.556 398.133 221.686C399.271 219.816 399.891 217.677 399.929 215.488C399.967 213.299 399.422 211.14 398.349 209.231C397.277 207.323 395.716 205.735 393.827 204.63L190.548 85.8564Z" fill="#77704D"/>
<path style="mix-blend-mode:multiply" opacity="0.31" d="M201.271 229.18C178.146 216.004 146.209 214.182 134.872 207.089L94.8789 221.022C105.261 226.512 114.985 233.879 124.621 239.401C133.913 244.723 143.132 250.168 152.278 255.738C167.808 245.473 185.159 238.435 201.271 229.18Z" fill="url(#paint0_linear_196_2293)"/>
<path style="mix-blend-mode:multiply" opacity="0.63" d="M217.217 254.904C235.93 265.62 254.302 276.862 272.575 288.369C287.644 281.046 375.257 240.17 393.465 226.808C367.267 213.15 319.01 177.599 302.833 167.52L187.475 236.58C197.857 241.97 207.581 249.381 217.217 254.904Z" fill="url(#paint1_linear_196_2293)"/>
<path d="M138.505 210.614L227.479 260.965L331.379 200.436V159.736L227.479 220.264L138.505 169.398V210.614Z" fill="#A0D700"/>
<path d="M138.505 169.398L244.391 108.616L331.379 159.736L227.479 220.264L138.505 169.398Z" fill="#CBED4F"/>
<path d="M227.479 220.264V260.965L331.379 200.436V159.736L227.479 220.264Z" fill="#93BC00"/>
<path d="M229.378 239.248L238.662 273.097C238.787 273.454 238.984 273.781 239.24 274.059C239.496 274.337 239.807 274.56 240.152 274.713C240.498 274.867 240.871 274.947 241.249 274.951C241.627 274.954 242.002 274.88 242.35 274.732L289.74 246.362C290.029 246.188 290.254 245.925 290.38 245.612C290.507 245.299 290.529 244.954 290.442 244.627L282.189 208.725C282.075 208.355 281.88 208.014 281.618 207.727C281.357 207.441 281.035 207.215 280.677 207.067C280.318 206.92 279.931 206.853 279.544 206.872C279.157 206.891 278.778 206.995 278.436 207.177L230.299 236.92C229.904 237.145 229.597 237.498 229.429 237.921C229.261 238.345 229.243 238.813 229.378 239.248Z" fill="#68E1FD"/>
<path d="M238.169 238.556L246.136 268.485L285.668 244.748L278.436 213.721L238.169 238.556Z" fill="white"/>
<path d="M246.136 268.485L251.47 247.35C252.03 245.154 254.697 244.122 257.43 245.034L263.312 247.01L269.985 231.145C270.654 229.553 272.904 229.07 274.792 230.047L283.364 234.757L285.679 244.638L246.136 268.485Z" fill="#8CCC00"/>
<path d="M244.49 230.047L253.731 263.874C253.856 264.231 254.052 264.559 254.309 264.837C254.565 265.115 254.875 265.337 255.221 265.491C255.566 265.644 255.94 265.725 256.318 265.728C256.696 265.731 257.07 265.657 257.419 265.51L304.842 237.151C305.131 236.976 305.355 236.713 305.482 236.4C305.609 236.088 305.63 235.742 305.544 235.416L297.291 199.536C297.176 199.165 296.981 198.824 296.72 198.538C296.458 198.251 296.137 198.026 295.778 197.878C295.42 197.73 295.033 197.663 294.646 197.682C294.258 197.701 293.88 197.805 293.537 197.988L245.401 227.719C245.007 227.946 244.702 228.3 244.537 228.723C244.371 229.146 244.355 229.613 244.49 230.047Z" fill="#68E1FD"/>
<path d="M253.226 229.344L261.194 259.274L300.726 235.548L293.493 204.509L253.226 229.344Z" fill="white"/>
<path d="M261.205 259.274L266.539 238.139C267.099 235.943 269.766 234.911 272.498 235.822L278.381 237.798L285.043 221.944C285.712 220.352 287.962 219.869 289.85 220.846L298.421 225.556L300.737 235.438L261.205 259.274Z" fill="#8CCC00"/>
<path style="mix-blend-mode:multiply" opacity="0.31" d="M309.923 174.525C286.799 161.35 261.512 146.176 250.175 139.084L203.531 166.334C213.914 171.824 223.638 179.191 233.274 184.714C242.566 190.035 251.785 195.481 260.931 201.051C276.46 190.752 293.812 183.747 309.923 174.525Z" fill="url(#paint2_linear_196_2293)"/>
<path d="M134.169 87.2399V127.885L223.308 178.631L262.72 155.871V114.71" fill="#68E1FD"/>
<path d="M222.397 138.535V178.631L262.72 155.871V114.71L222.397 138.535Z" fill="#68E1FD"/>
<path opacity="0.15" d="M134.169 87.2399V127.885L223.308 178.631L262.72 155.871V114.71" fill="black"/>
<path d="M222.397 138.535L262.72 114.71L174.777 64.1505L134.169 87.2399L222.397 138.535Z" fill="#96ABAF"/>
<path opacity="0.15" d="M222.397 138.535V178.631L262.72 155.871V114.71L222.397 138.535Z" fill="black"/>
<path d="M318.012 114.545V162.272L281.059 183.616L250.954 165.72V121.363" fill="#3ACEB2"/>
<path d="M281.059 183.616V136.526L250.954 118.882V165.72L281.059 183.616Z" fill="#4BE2C5"/>
<path d="M287.589 96.5063L318.012 114.545L281.059 136.526L250.954 118.882L287.589 96.5063Z" fill="#52EFD1"/>
<path d="M313.194 122.395V132.277L285.504 148.076V138.381L313.194 122.395Z" fill="#7374B7"/>
<path d="M288.922 140.169C289.11 139.546 288.946 138.945 288.556 138.828C288.167 138.71 287.698 139.119 287.51 139.742C287.322 140.365 287.485 140.965 287.875 141.083C288.265 141.201 288.734 140.792 288.922 140.169Z" fill="#F7931E"/>
<path d="M291.696 140.413C291.886 139.793 291.725 139.193 291.337 139.074C290.949 138.955 290.48 139.361 290.29 139.981C290.099 140.601 290.26 141.201 290.648 141.32C291.036 141.439 291.505 141.033 291.696 140.413Z" fill="#D9E021"/>
<path d="M293.614 139.117L310.735 129.29" stroke="#F2F2F2" stroke-width="0.25375" stroke-miterlimit="10"/>
<path d="M313.841 136.24V146.122L286.151 161.921V152.237L313.841 136.24Z" fill="#7374B7"/>
<path d="M289.988 155.645C290.179 155.025 290.018 154.425 289.63 154.306C289.242 154.187 288.773 154.593 288.583 155.213C288.392 155.834 288.553 156.433 288.941 156.552C289.329 156.672 289.798 156.265 289.988 155.645Z" fill="#F7931E"/>
<path d="M292.344 154.253C292.535 153.633 292.374 153.033 291.986 152.914C291.598 152.795 291.129 153.201 290.939 153.821C290.748 154.442 290.909 155.041 291.297 155.16C291.685 155.279 292.154 154.873 292.344 154.253Z" fill="#D9E021"/>
<path d="M294.273 152.962L311.383 143.135" stroke="#F2F2F2" stroke-width="0.25375" stroke-miterlimit="10"/>
<path d="M313.841 150.063V159.944L286.151 175.755V166.06L313.841 150.063Z" fill="#7374B7"/>
<path d="M289.984 169.472C290.174 168.852 290.014 168.252 289.626 168.133C289.237 168.014 288.768 168.42 288.578 169.04C288.388 169.66 288.548 170.26 288.937 170.379C289.325 170.498 289.794 170.092 289.984 169.472Z" fill="#F7931E"/>
<path d="M292.351 168.083C292.541 167.463 292.38 166.863 291.992 166.744C291.604 166.625 291.135 167.031 290.945 167.651C290.754 168.272 290.915 168.871 291.303 168.99C291.691 169.109 292.16 168.703 292.351 168.083Z" fill="#D9E021"/>
<path d="M294.273 166.796L311.383 156.958" stroke="#F2F2F2" stroke-width="0.25375" stroke-miterlimit="10"/>
<path d="M250.954 135.285L280.916 152.962L318.012 131.409" stroke="#1B1464" stroke-width="0.25375" stroke-miterlimit="10"/>
<path d="M250.954 149.108L280.916 166.796L318.012 145.243" stroke="#1B1464" stroke-width="0.25375" stroke-miterlimit="10"/>
<path d="M320.053 120.771C320.053 120.771 316.76 135.351 316.146 137.053C315.531 138.755 310.318 147.285 310.318 147.285C310.318 147.285 305.445 149.931 306.543 150.579C306.916 150.744 307.32 150.83 307.728 150.83C308.136 150.83 308.54 150.744 308.913 150.579C308.913 150.579 307.498 156.069 308.2 157.353C308.902 158.638 311.492 159.286 313.512 158.451C315.531 157.617 315.498 151.501 315.828 150.612C316.157 149.723 326.418 132.035 327.45 120.847C328.482 109.66 320.053 120.771 320.053 120.771Z" fill="#FFC6B2"/>
<path d="M319.098 113.612C319.098 113.612 315.915 117.224 315.871 129.477C315.871 129.477 325.08 133.55 326.967 131.519L329.25 119.969" fill="#68E1FD"/>
<path d="M341.685 163.886C341.685 163.886 343.682 180.289 344.813 184.483C345.943 188.677 346.953 215.027 346.953 215.027C346.953 215.027 350.476 217.542 353.538 215.027C353.538 215.027 355.129 193.684 354.295 187.975C353.461 182.265 354.295 159.802 354.295 159.802" fill="#FFC6B2"/>
<path d="M330.139 159.154C330.139 159.154 329.744 171.231 330.139 175.238C330.534 179.246 332.268 204.487 332.268 204.487C333.082 205.187 334.12 205.571 335.193 205.571C336.266 205.571 337.304 205.187 338.118 204.487C338.118 204.487 340.049 191.993 339.819 189.599C339.588 187.206 339.182 157.024 339.182 157.024" fill="#FFC6B2"/>
<path d="M325.101 100.646C325.101 100.711 344.56 103.72 343.463 110.077C342.365 116.434 333.98 114.238 333.98 114.238L324.256 102.699" fill="#F18F22"/>
<path d="M341.685 224.437C341.401 225.063 341.312 225.76 341.429 226.437C341.546 227.115 341.865 227.741 342.343 228.235C344.022 230.025 346.228 229.136 348.094 228.235C349.96 227.335 355.217 222.647 354.493 221.406C353.768 220.166 353.494 215.016 353.494 215.016" fill="white"/>
<path d="M346.865 212.985C346.865 212.985 346.02 217.849 344.813 219.419C343.605 220.989 340.752 224.909 341.685 225.864C342.618 226.819 343.298 223.866 344.813 224.766C346.327 225.666 345.855 227.774 346.953 227.346C348.05 226.918 353.197 222.823 353.768 220.221C354.339 217.618 353.055 213.04 353.055 213.04" fill="#68E1FD"/>
<path d="M323.236 211.613C323.236 211.613 323.027 214.511 325.65 215.06C328.273 215.609 331.533 213.962 333.004 213.337C334.474 212.711 339.83 208.143 339.83 208.143L339.193 201.841" fill="white"/>
<path d="M332.049 201.369C332.049 201.369 330.479 205.267 327.659 206.738C324.838 208.209 322.621 211.042 323.269 211.569C323.916 212.096 325.266 210.207 326.001 210.723C326.737 211.239 326.726 213.545 327.626 212.919C328.526 212.293 330.413 213.82 333.036 212.03C335.659 210.24 334.825 209.505 337.031 208.67C339.237 207.836 339.226 201.731 339.226 201.731C339.226 201.731 333.64 203.038 332.049 201.369Z" fill="#68E1FD"/>
<path d="M329.645 137.173C328.351 141.11 327.612 145.208 327.45 149.349C327.044 156.673 330.018 199.547 330.018 199.547C334.392 201.177 339.16 201.429 343.682 200.271V210.065C346.357 210.713 349.138 210.795 351.846 210.305C354.554 209.815 357.131 208.765 359.409 207.221C359.409 207.221 358.433 142.158 345.142 129.455" fill="#F15A24"/>
<path d="M341.323 133.517C342.733 132.317 343.997 130.953 345.087 129.455C343.628 125.75 341.926 122.145 339.995 118.662C337.086 113.93 334.178 108.507 328.416 107.112C326.101 108.15 323.895 109.415 321.831 110.889C320.742 111.599 319.812 112.526 319.098 113.612C318.977 118.3 319.373 121.243 322.138 124.723C324.904 128.203 326.759 133.924 328.614 137.009C332.773 138.052 337.372 136.207 341.323 133.517Z" fill="#68E1FD"/>
<path d="M324.476 105.367L326.956 108.408C326.956 108.408 325.617 111.284 323.005 111.636L321.381 109.736" fill="#FFB39C"/>
<path d="M318.955 107.595C314.181 111.57 311.855 107.134 311.855 107.134C305.27 98.9437 315.74 94.5081 315.74 94.5081C315.74 94.5081 323.85 91.5547 325.2 103.138" fill="#F18F22"/>
<path d="M310.757 103.412C310.757 103.412 318.176 113.941 322.281 110.527C326.386 107.112 323.73 103.61 323.73 103.61C323.73 103.61 319.976 96.4735 315.465 97.6153C314.175 97.9714 313.028 98.7212 312.184 99.7604C311.34 100.799 310.841 102.076 310.757 103.412Z" fill="#FFC6B2"/>
<path d="M310.757 103.412C310.757 103.412 315.839 105.608 318.846 103.204C321.853 100.799 324.476 105.4 324.476 105.4C325.101 104.215 325.374 102.877 325.264 101.542C325.153 100.208 324.662 98.9326 323.85 97.8678C322.27 95.5292 316.442 93.7835 313.49 95.9794C310.538 98.1752 308.628 101.7 310.757 103.412Z" fill="#F18F22"/>
<path d="M340.28 152.402C340.214 151.809 339.281 151.798 339.347 152.402C341.088 168.827 342.464 185.296 343.474 201.808C343.474 202.401 344.439 202.412 344.407 201.808C343.404 185.296 342.029 168.827 340.28 152.402Z" fill="#842E13"/>
<path d="M168.422 102.973C168.399 102.886 168.366 102.801 168.324 102.721C168.539 102.556 168.715 102.346 168.839 102.105C168.962 101.863 169.03 101.597 169.037 101.326C169.036 101.153 168.999 100.982 168.929 100.823C168.859 100.665 168.758 100.522 168.631 100.404C168.768 100.269 168.86 100.095 168.895 99.9057C168.931 99.7166 168.907 99.5211 168.829 99.3456C168.75 99.17 168.619 99.0227 168.455 98.9234C168.29 98.8242 168.099 98.7776 167.907 98.7901C166.524 98.9218 165.448 100.602 164.614 101.579C163.992 102.311 163.403 103.043 162.847 103.775C162.847 102.6 162.847 101.403 162.847 100.294C162.847 99.1853 161.168 98.9328 161.058 100.108C160.968 101.879 160.597 103.624 159.961 105.279C159.776 105.347 159.606 105.448 159.456 105.575C153.868 110.333 147.153 113.576 139.953 114.995C139.576 115.063 139.233 115.257 138.98 115.545C138.728 115.833 138.58 116.198 138.563 116.581C138.545 116.964 138.657 117.341 138.882 117.652C139.107 117.962 139.43 118.187 139.8 118.289C139.786 118.63 139.877 118.967 140.062 119.254C140.247 119.541 140.515 119.764 140.831 119.892C140.856 120.156 140.937 120.412 141.067 120.643C141.198 120.873 141.375 121.074 141.589 121.232L140.359 121.627C138.362 122.231 138.867 125.492 140.897 124.921C148.531 122.639 155.463 118.462 161.047 112.778C161.673 112.295 162.287 111.811 162.902 111.306C163.857 110.516 168.466 106.772 167.621 104.873C168.06 104.236 168.642 103.819 168.422 102.973Z" fill="#FBB5AD"/>
<path d="M141.578 80.4657C139.536 81.0366 137.583 85.0989 137.659 86.0102L139.273 85.3515L139.58 85.077C140.035 83.4568 140.707 81.9057 141.578 80.4657Z" fill="#FBB5AD"/>
<path d="M141.479 83.9351C141.385 83.8514 141.277 83.7846 141.16 83.7374L141.04 83.6057C140.337 82.936 139.075 83.6057 138.351 83.8911C137.416 84.2672 136.523 84.7381 135.684 85.2965C135.234 85.6259 135.036 86.3944 134.773 86.8226C134.411 87.4923 134.038 88.1511 133.676 88.7989C132.849 90.1529 131.94 91.4546 130.954 92.6965C129.021 95.1174 126.811 97.3026 124.369 99.2072C123.271 100.097 124.654 101.82 125.785 100.931L126.597 100.272C126.749 100.397 126.937 100.471 127.133 100.485C127.33 100.498 127.526 100.451 127.694 100.349C127.89 100.243 128.077 100.122 128.254 99.9867L128.517 99.8111C128.563 99.9898 128.652 100.154 128.778 100.289C128.903 100.424 129.061 100.525 129.236 100.583C129.411 100.641 129.598 100.654 129.779 100.621C129.96 100.588 130.13 100.509 130.273 100.393L131.107 99.6903C131.356 99.6233 131.569 99.4617 131.7 99.2401C131.7 99.2401 131.7 100.766 131.7 100.722C133.05 99.5695 134.839 96.1879 136.266 94.2116C136.267 94.1117 136.302 94.0151 136.364 93.9372C137.462 92.5208 137.462 91.6096 137.725 89.8858C137.829 88.8856 138.023 87.897 138.307 86.9324L140.447 85.6149C140.963 85.2965 141.545 84.8134 141.545 84.2535C141.539 84.1446 141.516 84.0373 141.479 83.9351Z" fill="#FBB5AD"/>
<path d="M145.902 112.547C138.669 113.875 137.55 112.964 134.235 112.547C130.921 112.13 127.881 107.057 127.881 107.057C127.881 107.057 128.133 96.5612 121.087 104.049C115.819 109.648 112.208 127.105 110.705 135.56C112.812 137.635 115.808 138.645 118.64 139.369C120.509 139.89 122.418 140.257 124.347 140.467C125.536 140.581 126.735 140.447 127.87 140.072L132.798 125.085C138.077 125.939 143.49 124.987 148.163 122.384L145.902 112.547Z" fill="#A0D700"/>
<path d="M132.15 98.4497C132.15 98.4497 135.761 107.595 131.052 109.539C126.344 111.482 123.26 107.101 122.986 106.025C122.711 104.949 123.633 96.9126 132.15 98.4497Z" fill="#FBB5AD"/>
<path d="M132.622 97.1871C131.556 96.3318 130.317 95.7189 128.99 95.3909C127.663 95.0629 126.281 95.0277 124.94 95.2877C122.621 95.4651 120.412 96.3461 118.607 97.8129C118.072 97.3586 117.423 97.0588 116.73 96.9456C115.893 96.7944 115.03 96.9128 114.265 97.2838C113.5 97.6547 112.872 98.259 112.472 99.0097C112.13 99.7149 112.036 100.515 112.206 101.28C112.375 102.045 112.798 102.731 113.405 103.226C114.373 103.869 115.557 104.102 116.697 103.873C116.697 103.939 116.697 104.005 116.697 104.082C116.697 105.729 115.04 106.399 114.294 107.716C113.933 108.321 113.775 109.025 113.844 109.725C113.932 110.428 114.557 111.23 114.469 111.921C114.296 112.445 113.994 112.917 113.591 113.294C113.221 113.734 112.904 114.217 112.648 114.732C115.71 116.818 119.77 117.235 123.37 116.928C127.314 116.656 131.064 115.116 134.06 112.536C133.941 112.161 133.743 111.817 133.478 111.526C132.934 111.031 132.338 110.596 131.7 110.23C130.8 109.572 131.964 108.035 132.029 107.079C132.128 105.509 131.064 104.752 129.834 104.082C128.945 103.599 128.956 102.984 129.055 102.073C129.053 101.312 129.291 100.571 129.736 99.9539C130.012 100.022 130.303 99.9905 130.559 99.866C131.072 99.6263 131.615 99.4529 132.172 99.35C132.452 99.2821 132.693 99.1072 132.845 98.8629C132.997 98.6185 133.047 98.3243 132.984 98.0435C133.006 97.8814 132.984 97.7163 132.921 97.5656C132.857 97.4149 132.754 97.2842 132.622 97.1871Z" fill="#56403D"/>
<path d="M128.836 100.283C130.34 100.108 131.816 99.7391 133.226 99.1853C133.226 99.0425 134.235 93.6956 124.446 94.563C114.656 95.4304 118.014 107.365 118.014 107.365" fill="#56403D"/>
<path d="M105.909 218.42C105.064 218.025 103.802 217.651 103.264 216.806C102.868 215.835 102.776 214.767 103 213.743C103.074 212.769 103.172 211.799 103.297 210.833C103.215 210.747 103.168 210.634 103.165 210.515C103.199 209.723 103.287 208.934 103.428 208.154L99.4884 207.353C99.4884 207.353 97.008 213.94 97.041 214.753C97.0739 215.565 100.333 221.099 102.199 221.648C104.065 222.197 109.607 221.077 110.123 220.396V220.33C108.729 219.682 107.314 219.079 105.909 218.42Z" fill="#FBB5AD"/>
<path d="M134.872 207.122C133.588 206.727 128.067 207.034 128.067 207.034C128.067 207.034 127.76 202.522 127.892 202.313L122.196 202.116C122.196 202.116 120.626 210.273 120.506 211.36C120.297 213.358 122.701 214.237 123.249 214.215C123.651 214.123 124.047 214.006 124.435 213.864C124.334 212.816 124.334 211.76 124.435 210.712C124.511 210.24 124.643 209.911 125.126 209.779C125.993 209.549 127.497 210.164 128.331 210.416C129.165 210.669 130.295 211.053 131.283 211.338C133.632 210.394 135.673 209.461 135.838 209.022C136.353 207.946 136.847 207.726 134.872 207.122Z" fill="#FBB5AD"/>
<path d="M136.727 207.671L136.606 207.507C136.222 207.045 135.08 206.958 134.543 206.892C132.382 206.68 130.204 206.732 128.056 207.045C128.056 207.045 133.258 206.881 133.357 207.825C133.402 208.203 133.358 208.587 133.228 208.945C133.099 209.304 132.887 209.627 132.611 209.889C130.262 211.569 127.123 209.12 125.159 208.001L121.46 205.926L120.879 209.055C120.595 210.483 120.444 211.935 120.429 213.391C120.648 213.864 122.821 215.313 123.326 215.115C123.831 214.918 125.444 214.171 125.444 214.171L125.543 210.328C125.543 210.328 128.605 212.052 130.153 211.81C131.327 211.613 137.868 209.593 136.727 207.671Z" fill="#56403D"/>
<path d="M100.718 215.181C100.718 215.181 102.111 221.9 102.825 222.405C103.538 222.91 111.791 221.198 110.76 219.551C110.101 218.453 105.272 218.003 104.866 217.838C104.866 217.838 107.314 218.936 107.27 219.342C107.226 219.748 103.878 220.89 103.747 220.572C103.615 220.253 100.729 214.193 100.729 214.193L97.5788 212.711L94.2863 218.409L96.4813 219.628C96.4813 219.628 96.9861 221.516 97.2275 221.538C98.1207 220.554 98.9388 219.504 99.675 218.398C99.7366 219.239 99.9177 220.067 100.213 220.857C100.509 221.121 102.935 223.591 104.328 222.043L102.353 219.298" fill="#56403D"/>
<path d="M118.673 203.993C123.6 205.475 129.011 205.157 133.149 202.127C134.114 193.761 135.673 186.284 136.309 177.885C137.341 164.182 136.759 150.557 128.287 138.897L111.111 134.396C102.616 147.132 94.7252 208.637 94.7252 208.637C94.7252 208.637 102.945 215.225 110.09 213.227L118.091 162.118C118.091 162.118 122.141 168.08 122.657 171.231C123.008 173.504 119.627 193.662 118.673 203.993Z" fill="#F15A24"/>
<defs>
<linearGradient id="paint0_linear_196_2293" x1="168.587" y1="259.493" x2="149.491" y2="227.517" gradientUnits="userSpaceOnUse">
<stop stop-color="white" stop-opacity="0"/>
<stop offset="0.99" stop-color="#009471"/>
</linearGradient>
<linearGradient id="paint1_linear_196_2293" x1="314.236" y1="261.041" x2="291.079" y2="232.438" gradientUnits="userSpaceOnUse">
<stop stop-color="white" stop-opacity="0"/>
<stop offset="0.99" stop-color="#009471"/>
</linearGradient>
<linearGradient id="paint2_linear_196_2293" x1="277.229" y1="204.806" x2="258.143" y2="172.83" gradientUnits="userSpaceOnUse">
<stop stop-color="white" stop-opacity="0"/>
<stop offset="0.99" stop-color="#009471"/>
</linearGradient>
</defs>
</svg>
