<svg width="518" height="390" viewBox="0 0 518 390" fill="none" xmlns="http://www.w3.org/2000/svg">
<g filter="url(#filter0_d_196_2133)">
<path opacity="0.45" d="M268.415 348.295C372.17 348.295 456.28 336.607 456.28 322.189C456.28 307.772 372.17 296.084 268.415 296.084C164.659 296.084 80.5491 307.772 80.5491 322.189C80.5491 336.607 164.659 348.295 268.415 348.295Z" fill="#E6E6E6"/>
<path d="M151.981 323.418C151.981 323.418 150.686 327.636 147.008 328.153C143.331 328.671 142.528 332.37 145.934 333.134C149.339 333.897 157.757 329.123 157.757 329.123L157.213 323.755L151.981 323.418Z" fill="#938C57"/>
<path opacity="0.58" d="M369.528 301.867C369.528 301.867 357.627 298.671 354.998 287.637C354.998 287.637 373.4 283.846 374.009 302.837L369.528 301.867Z" fill="#938C57"/>
<path opacity="0.73" d="M370.992 300.676C370.992 300.676 362.626 287.598 369.878 275.295C369.878 275.295 383.929 284.131 377.777 300.676H370.992Z" fill="#938C57"/>
<path d="M373.128 300.676C373.128 300.676 377.454 286.809 390.715 284.131C390.715 284.131 393.305 293.109 382.193 300.676H373.128Z" fill="#938C57"/>
<path d="M364.504 300.405L366.977 316.873H382.167L384.33 300.405H364.504Z" fill="#24285B"/>
<path d="M341.53 61.6011H193.732V322.189H341.53V61.6011Z" fill="#C9C9C9"/>
<path d="M328.295 91.7944H205.957V278.141H328.295V91.7944Z" fill="white"/>
<path d="M303.185 154.186H232.439V252.786H303.185V154.186Z" fill="#E6E6E6"/>
<path opacity="0.08" d="M272.921 172.672L275.835 158.597L288.785 170.033L301.411 212.787L305.296 210.847L308.832 219.243L303.198 222.166L313.714 243.666C313.714 243.666 283.929 288.258 226.301 268.944L217.884 279.461L250.906 322.151H193.732L194.664 260.613L193.732 194.12V158.546C193.732 158.546 205.154 155.958 209.906 163.216C212.723 167.509 213.728 172.739 212.704 177.769L207.847 178.455L209.906 202.827L229.539 229.85L244.431 255.154L267.638 254.83L289.756 246.745L297.656 234.74L287.814 214.042L272.921 172.672Z" fill="black"/>
<path opacity="0.56" d="M267.638 313.871C275.627 313.871 282.103 307.402 282.103 299.422C282.103 291.441 275.627 284.972 267.638 284.972C259.649 284.972 253.173 291.441 253.173 299.422C253.173 307.402 259.649 313.871 267.638 313.871Z" fill="white"/>
<path opacity="0.12" d="M296.568 71.9502H255.128V77.9914H296.568V71.9502Z" fill="black"/>
<path d="M240.119 82.3768C243.845 82.3768 246.866 79.3593 246.866 75.637C246.866 71.9147 243.845 68.8972 240.119 68.8972C236.393 68.8972 233.372 71.9147 233.372 75.637C233.372 79.3593 236.393 82.3768 240.119 82.3768Z" fill="white"/>
<path d="M173.336 168.093C173.336 168.093 171.613 175.272 172.118 180.291C172.169 180.776 172.314 181.247 172.546 181.676C172.778 182.105 173.093 182.484 173.471 182.791C173.85 183.099 174.286 183.329 174.754 183.468C175.221 183.607 175.712 183.653 176.198 183.603C177.776 183.528 179.3 183 180.586 182.082C181.872 181.165 182.866 179.896 183.45 178.429L186.584 172.374C187.082 171.097 187.171 169.697 186.84 168.368C186.508 167.038 185.771 165.843 184.732 164.949C181.054 161.366 174.152 163.668 173.336 168.093Z" fill="#F4A28C"/>
<path d="M186.467 175.285L190.481 195.246L178.218 198.286L180.225 178.92L186.467 175.285Z" fill="#F4A28C"/>
<path d="M180.16 175.505C180.16 175.505 180.64 172.698 182.75 173.228C184.861 173.759 184.175 177.808 181.248 177.769L180.16 175.505Z" fill="#F4A28C"/>
<path d="M172.481 172.672L170.034 175.182C169.894 175.323 169.792 175.498 169.737 175.689C169.683 175.881 169.679 176.083 169.724 176.277C169.769 176.471 169.863 176.65 169.996 176.798C170.13 176.945 170.299 177.057 170.487 177.122L173.206 178.066L172.481 172.672Z" fill="#F4A28C"/>
<path opacity="0.31" d="M179.901 182.064C181.271 181.201 182.491 180.122 183.514 178.869C183.514 178.869 185.302 186.178 179.215 188.726L179.901 182.064Z" fill="#CE8172"/>
<path d="M172.947 158.494C172.947 158.494 167.495 163.552 173.828 166.695C180.16 169.839 180.652 168.494 180.652 168.494C180.652 168.494 177.389 177.032 183.45 178.455L186.791 177.161C186.791 177.161 194.146 167.653 190.598 163.319C190.598 163.293 185.599 149.956 172.947 158.494Z" fill="#24285B"/>
<path d="M179.863 196.294C179.863 196.294 219.762 187.691 226.703 205.142C233.644 222.593 206.345 277.585 206.345 277.585L168.35 275.567C168.35 275.567 121.937 218.997 179.863 196.294Z" fill="#938C57"/>
<path opacity="0.08" d="M186.48 220.523L199.844 227.457C199.844 227.457 199.624 256.447 179.202 276.149L168.337 275.567C167.329 274.39 166.403 273.145 165.566 271.841C164.659 270.276 186.48 220.523 186.48 220.523Z" fill="black"/>
<path d="M179.616 176.462C179.616 176.462 182.349 171.171 184.796 173.875C187.244 176.579 182.66 181.624 179.616 176.462Z" fill="#F4A28C"/>
<path d="M112.056 204.405L154.105 186.785L187.102 215.763C187.102 215.763 184.24 255.27 161.707 275.852C159.074 278.298 155.955 280.163 152.554 281.328C149.153 282.492 145.544 282.929 141.963 282.611C138.381 282.293 134.907 281.226 131.765 279.48C128.623 277.734 125.884 275.347 123.724 272.475C114.543 260.328 106.19 239.203 112.056 204.405Z" fill="#5A532F"/>
<path opacity="0.57" d="M123.465 214.508L151.321 202.865L173.206 222.076C173.206 222.076 171.303 248.297 156.371 261.945C154.623 263.57 152.552 264.808 150.293 265.581C148.034 266.353 145.637 266.642 143.259 266.428C140.881 266.215 138.575 265.504 136.49 264.341C134.405 263.179 132.588 261.591 131.158 259.681C125.11 251.609 119.554 237.599 123.465 214.508Z" fill="white"/>
<path d="M205.037 198.997C207.645 197.173 210.774 196.242 213.955 196.342C217.137 196.442 220.201 197.569 222.688 199.554C228.257 203.861 236.091 212.244 241.271 227.483C250.039 253.356 268.7 254.986 290.728 235.62L296.477 243.032C296.477 243.032 248.122 290.586 211.085 236.396C195.39 213.473 198.938 203.422 205.037 198.997Z" fill="#938C57"/>
<path opacity="0.2" d="M205.037 198.997C207.645 197.173 210.774 196.242 213.955 196.342C217.137 196.442 220.201 197.569 222.688 199.554C228.257 203.861 236.091 212.244 241.271 227.483C250.039 253.356 268.7 254.986 290.728 235.62L296.477 243.032C296.477 243.032 248.122 290.586 211.085 236.396C195.39 213.473 198.938 203.422 205.037 198.997Z" fill="white"/>
<path d="M168.35 275.567L151.878 288.503C148.027 291.528 145.283 295.737 144.07 300.478C142.858 305.218 143.244 310.226 145.169 314.725L149.572 324.997H157.342L155.076 311.517C154.597 308.683 155.004 305.77 156.242 303.175C157.479 300.581 159.487 298.43 161.992 297.015C172.812 290.896 184.122 285.682 195.804 281.427L206.384 277.546L168.35 275.567Z" fill="#24285B"/>
<path d="M287.399 222.192L260.852 178.144L261.978 161.948L276.288 170.99L295.221 219.23L287.399 222.192Z" fill="#FFD200"/>
<path d="M284.175 222.826L286.739 227.742L290.676 225.685L300.077 243.692L305.322 240.963L295.92 222.955L299.857 220.911L297.293 215.996L284.175 222.826Z" fill="#FFD200"/>
<path opacity="0.57" d="M284.175 222.826L286.739 227.742L290.676 225.685L300.077 243.692L305.322 240.963L295.92 222.955L299.857 220.911L297.293 215.996L284.175 222.826Z" fill="white"/>
<path opacity="0.08" d="M261.979 161.948L291.064 219.243L294.522 217.445L276.288 170.99L261.979 161.948Z" fill="black"/>
<path d="M206.345 277.572L240.274 322.772L231.688 327.131C231.688 327.131 204.273 291.207 179.526 283.678L206.345 277.572Z" fill="#24285B"/>
<path d="M292.126 237.418C292.126 237.418 295.713 230.083 298.769 229.32C301.826 228.557 308.469 238.22 295.441 241.7L292.126 237.418Z" fill="#F4A28C"/>
<path d="M237.93 324.363C237.93 324.363 240.624 327.83 244.276 326.95C247.928 326.07 249.987 329.279 247.086 331.219C244.185 333.159 234.602 331.724 234.602 331.724L233.165 326.549L237.93 324.363Z" fill="#938C57"/>
<path opacity="0.45" d="M95.5321 181.546C117.468 181.546 135.25 163.783 135.25 141.871C135.25 119.959 117.468 102.195 95.5321 102.195C73.5966 102.195 55.8145 119.959 55.8145 141.871C55.8145 163.783 73.5966 181.546 95.5321 181.546Z" fill="#E6E6E6"/>
<path d="M113.96 134.2C113.353 131.038 111.944 128.086 109.867 125.625C107.791 123.164 105.116 121.277 102.1 120.145C99.0837 119.012 95.827 118.673 92.6418 119.158C89.4565 119.644 86.4494 120.938 83.9087 122.918C81.3679 124.897 79.3785 127.495 78.1312 130.463C76.8838 133.431 76.4203 136.669 76.785 139.867C77.1496 143.065 78.3303 146.116 80.2139 148.727C82.0974 151.339 84.6207 153.423 87.5421 154.781L89.7565 166.269L95.2214 165.221L93.5379 156.45C94.4457 156.541 95.3589 156.567 96.2704 156.528L97.8503 164.716L103.315 163.668L101.748 155.48C102.718 155.123 103.657 154.691 104.558 154.186L106.268 163.06L111.733 162.013L109.479 150.279C111.418 148.126 112.831 145.554 113.609 142.765C114.386 139.975 114.506 137.043 113.96 134.2ZM89.0831 146.321C85.9363 146.929 82.8283 144.51 82.1419 140.913C81.4556 137.317 83.4369 133.928 86.5838 133.32C89.7306 132.712 92.8257 135.144 93.525 138.727C94.2243 142.311 92.2688 145.713 89.122 146.308L89.0831 146.321ZM104.299 143.397C101.165 144.005 98.0575 141.586 97.3582 137.99C96.6589 134.394 98.6532 131.004 101.8 130.396C104.947 129.788 108.042 132.22 108.741 135.804C109.441 139.387 107.485 142.789 104.338 143.384L104.299 143.397Z" fill="#C9C9C9"/>
<path opacity="0.45" d="M304.39 111.276H232.439V135.816H304.39V111.276Z" fill="#E6E6E6"/>
<path d="M243.577 126.787C245.4 126.787 246.879 125.31 246.879 123.488C246.879 121.666 245.4 120.19 243.577 120.19C241.753 120.19 240.274 121.666 240.274 123.488C240.274 125.31 241.753 126.787 243.577 126.787Z" fill="#C9C9C9"/>
<path d="M255.128 126.787C256.952 126.787 258.43 125.31 258.43 123.488C258.43 121.666 256.952 120.19 255.128 120.19C253.304 120.19 251.826 121.666 251.826 123.488C251.826 125.31 253.304 126.787 255.128 126.787Z" fill="#C9C9C9"/>
<path d="M267.21 126.787C269.034 126.787 270.512 125.31 270.512 123.488C270.512 121.666 269.034 120.19 267.21 120.19C265.386 120.19 263.908 121.666 263.908 123.488C263.908 125.31 265.386 126.787 267.21 126.787Z" fill="#C9C9C9"/>
<path d="M278.762 126.787C280.585 126.787 282.064 125.31 282.064 123.488C282.064 121.666 280.585 120.19 278.762 120.19C276.938 120.19 275.459 121.666 275.459 123.488C275.459 125.31 276.938 126.787 278.762 126.787Z" fill="#C9C9C9"/>
<path d="M291.22 126.787C293.044 126.787 294.522 125.31 294.522 123.488C294.522 121.666 293.044 120.19 291.22 120.19C289.396 120.19 287.917 121.666 287.917 123.488C287.917 125.31 289.396 126.787 291.22 126.787Z" fill="#C9C9C9"/>
</g>
<defs>
<filter id="filter0_d_196_2133" x="-4" y="0" width="526" height="398" filterUnits="userSpaceOnUse" color-interpolation-filters="sRGB">
<feFlood flood-opacity="0" result="BackgroundImageFix"/>
<feColorMatrix in="SourceAlpha" type="matrix" values="0 0 0 0 0 0 0 0 0 0 0 0 0 0 0 0 0 0 127 0" result="hardAlpha"/>
<feOffset dy="4"/>
<feGaussianBlur stdDeviation="2"/>
<feComposite in2="hardAlpha" operator="out"/>
<feColorMatrix type="matrix" values="0 0 0 0 0 0 0 0 0 0 0 0 0 0 0 0 0 0 1 0"/>
<feBlend mode="normal" in2="BackgroundImageFix" result="effect1_dropShadow_196_2133"/>
<feBlend mode="normal" in="SourceGraphic" in2="effect1_dropShadow_196_2133" result="shape"/>
</filter>
</defs>
</svg>
