<svg width="364" height="274" viewBox="0 0 364 274" fill="none" xmlns="http://www.w3.org/2000/svg">
<path opacity="0.19" d="M88.3384 253.33C88.9174 254.853 87.7227 256.542 86.2614 257.267C84.8002 257.992 83.1092 258.057 81.5285 258.465C79.0701 259.098 76.9058 260.54 74.5256 261.425C71.2585 262.641 67.7019 262.775 64.2142 262.894C53.6915 263.256 42.4611 263.435 33.5191 257.882C33.1826 257.717 32.9097 257.446 32.7425 257.111C32.6485 256.779 32.6829 256.424 32.839 256.115C33.5788 254.413 35.7017 253.894 37.5398 253.605C46.1969 252.256 55.0608 251.035 63.8282 250.728C68.3866 250.576 86.6107 248.74 88.3384 253.33Z" fill="url(#paint0_linear_196_2178)"/>
<path opacity="0.18" d="M268.999 254.009C265.015 254.817 261.261 256.473 257.543 258.139L242.632 264.734C250.949 269.204 261.045 267.359 270.492 267.231C271.319 267.231 272.211 267.231 272.868 267.745C273.787 268.465 273.869 269.828 274.444 270.856C275.524 272.802 278.12 273.192 280.339 273.339C300.438 274.647 320.616 274.005 340.59 271.421C341.546 271.297 342.548 271.15 343.32 270.576C345.617 268.865 344 264.913 341.399 263.692C338.798 262.472 335.742 262.775 332.981 261.985C330.219 261.196 327.554 258.277 328.845 255.702C317.458 255.929 306.072 255.806 294.685 255.335C286.092 254.968 277.578 252.265 268.999 254.009Z" fill="#1D2741"/>
<path opacity="0.18" d="M323.901 154.811C325.766 135.375 335.237 114.815 325.555 97.2429C323.014 92.6535 319.37 88.7205 315.294 85.0628C309.909 80.2395 303.774 75.8842 298.412 71.0241C288.923 62.4146 283.496 52.1208 276.185 42.6806C273.157 38.6956 269.711 35.0447 265.906 31.7902C264.393 30.5143 262.861 29.2584 261.311 28.0223C248.601 17.9672 234.297 9.33468 218.03 4.32316C194.963 -2.75356 167.539 -1.62 148.061 11.3218C141.049 15.98 135.369 21.8773 129.892 28.0269C125.471 32.9696 121.202 38.0454 116.479 42.6806C112.256 46.8477 107.679 50.666 102.335 53.727C94.7256 58.0915 85.9674 60.6569 77.8938 64.3238C72.7145 66.6751 67.7878 69.5459 63.1896 72.892C57.0177 77.3674 51.4983 82.6775 46.7897 88.67C36.5794 101.667 30.8034 117.339 31.194 133.117C31.2537 135.587 31.4559 138.069 31.534 140.548C31.6869 143.272 31.5297 146.005 31.0653 148.694C30.2106 153.099 28.1107 157.239 25.9418 161.342C22.9872 166.927 19.8947 172.452 19.6006 178.524C19.0859 188.96 26.8241 197.9 35.4077 205.541C36.8413 206.817 38.3026 208.061 39.7454 209.268C42.043 211.195 44.4094 213.123 46.7943 215.027L47.2538 215.395C48.5312 216.409 49.8133 217.418 51.1137 218.419C54.3762 220.929 57.7168 223.375 61.1401 225.707C62.6718 226.744 64.2035 227.752 65.7352 228.731C69.3023 231.018 72.9831 233.122 76.7634 235.037C86.096 239.773 96.0628 243.233 106.788 244.61C136.164 248.282 165.384 235.234 195.013 236.96C214.455 238.089 232.587 245.496 251.427 249.81C270.267 254.124 292.144 254.812 307.335 244.151C321.337 234.344 325.927 217.4 325.964 201.732C326.001 186.064 322.394 170.429 323.901 154.811Z" fill="#5B8493"/>
<path d="M302.58 28.0269H59.4997C57.8336 28.0245 56.1834 28.3498 54.6432 28.9844C53.103 29.6189 51.7031 30.5502 50.5232 31.7252C49.3434 32.9001 48.4069 34.2956 47.7671 35.832C47.1273 37.3684 46.7967 39.0156 46.7943 40.6796V215.39H315.271V40.6979C315.271 37.3374 313.935 34.1144 311.555 31.7381C309.176 29.3619 305.949 28.0269 302.584 28.0269H302.58Z" fill="#5B8493"/>
<path opacity="0.47" d="M95.4424 187.166C94.9829 191.952 90.6819 195.468 86.2523 196.973C83.9547 197.753 81.5147 198.189 79.5434 199.612C77.5721 201.035 76.2809 203.912 77.5216 206.037C79.03 206.03 80.5055 206.477 81.7562 207.319C83.0068 208.161 83.9746 209.36 84.5337 210.759C81.6985 215.069 76.6761 217.423 71.6675 218.102C66.6588 218.781 61.5583 217.983 56.5956 217.157C54.8541 216.872 52.9976 216.523 51.7432 215.248C50.4887 213.972 50.1441 212.118 49.8316 210.36C49.7903 210.112 49.7443 209.864 49.6984 209.612H46.6886V42.6805H63.139V122.076C63.139 128.551 62.8449 135.082 62.946 141.534C63.0471 147.675 67.1367 150.786 71.0333 155.252C72.2327 156.628 73.4779 158.088 73.8318 159.901C74.2131 161.824 73.5239 163.861 74.0339 165.747C74.9162 169.024 79.0472 170.263 82.2178 169.336C85.3884 168.409 87.9295 166.023 90.6635 164.123C95.3885 160.85 100.935 158.96 106.677 158.666C104.752 166.821 95.2816 171.975 95.061 180.378C94.9921 182.654 95.663 184.894 95.4424 187.166Z" fill="url(#paint1_linear_196_2178)"/>
<path d="M35.0998 194.362C30.9642 187.684 28.0693 180.181 27.2468 172.374C26.7414 167.615 26.9573 162.595 24.8068 158.317C23.5294 155.775 21.4478 153.59 20.8045 150.814C19.6098 145.628 23.7775 140.887 27.6052 137.184C27.8349 136.909 28.1425 136.711 28.4875 136.615C29.0848 136.504 29.6225 137 29.9855 137.491C32.1773 140.442 32.3519 144.375 32.9125 147.987C33.5145 151.911 34.8011 155.968 37.7925 158.588C40.7839 161.209 45.3928 162.361 46.8678 166.06C48.1774 169.355 46.298 173.242 47.479 176.587C48.6599 179.933 52.699 181.939 53.3055 185.463C53.7099 187.804 52.4508 190.126 52.4876 192.499C52.5152 194.307 53.2917 196.009 53.7329 197.767C54.6795 201.539 53.7329 212.586 47.9936 209.355C42.7966 206.441 38.1509 199.286 35.0998 194.362Z" fill="#5B8493"/>
<path d="M35.0998 194.362C30.9642 187.684 28.0693 180.181 27.2468 172.374C26.7414 167.615 26.9573 162.595 24.8068 158.317C23.5294 155.775 21.4478 153.59 20.8045 150.814C19.6098 145.628 23.7775 140.887 27.6052 137.184C27.8349 136.909 28.1425 136.711 28.4875 136.615C29.0848 136.504 29.6225 137 29.9855 137.491C32.1773 140.442 32.3519 144.375 32.9125 147.987C33.5145 151.911 34.8011 155.968 37.7925 158.588C40.7839 161.209 45.3928 162.361 46.8678 166.06C48.1774 169.355 46.298 173.242 47.479 176.587C48.6599 179.933 52.699 181.939 53.3055 185.463C53.7099 187.804 52.4508 190.126 52.4876 192.499C52.5152 194.307 53.2917 196.009 53.7329 197.767C54.6795 201.539 53.7329 212.586 47.9936 209.355C42.7966 206.441 38.1509 199.286 35.0998 194.362Z" fill="url(#paint2_linear_196_2178)"/>
<path d="M45.5307 186.785C44.0281 179.084 43.9775 171.034 45.9902 163.444C47.2079 158.813 49.2067 154.196 48.6875 149.437C48.3934 146.605 47.2171 143.824 47.6031 141.006C48.3245 135.733 53.8983 132.746 58.7875 130.653C59.1018 130.481 59.4595 130.404 59.8168 130.433C60.4187 130.543 60.7358 131.194 60.9058 131.782C61.9122 135.316 60.6899 139.042 59.9271 142.636C59.1046 146.518 58.8702 150.768 60.7358 154.274C62.6014 157.78 66.5118 160.488 66.5808 164.467C66.6405 168.014 63.5066 170.988 63.4285 174.531C63.3504 178.074 66.4153 181.379 65.7261 184.894C65.2666 187.225 63.2723 188.951 62.4682 191.181C61.8524 192.884 61.9765 194.752 61.7697 196.551C61.3102 200.415 56.5405 210.424 52.2946 205.362C48.4715 200.782 46.6335 192.453 45.5307 186.785Z" fill="#5B8493"/>
<path d="M45.5307 186.785C44.0281 179.084 43.9775 171.034 45.9902 163.444C47.2079 158.813 49.2067 154.196 48.6875 149.437C48.3934 146.605 47.2171 143.824 47.6031 141.006C48.3245 135.733 53.8983 132.746 58.7875 130.653C59.1018 130.481 59.4595 130.404 59.8168 130.433C60.4187 130.543 60.7358 131.194 60.9058 131.782C61.9122 135.316 60.6899 139.042 59.9271 142.636C59.1046 146.518 58.8702 150.768 60.7358 154.274C62.6014 157.78 66.5118 160.488 66.5808 164.467C66.6405 168.014 63.5066 170.988 63.4285 174.531C63.3504 178.074 66.4153 181.379 65.7261 184.894C65.2666 187.225 63.2723 188.951 62.4682 191.181C61.8524 192.884 61.9765 194.752 61.7697 196.551C61.3102 200.415 56.5405 210.424 52.2946 205.362C48.4715 200.782 46.6335 192.453 45.5307 186.785Z" fill="url(#paint3_linear_196_2178)"/>
<path d="M56.1269 188.056C60.0787 181.273 65.3492 175.206 71.8559 170.791C75.826 168.106 80.3614 165.936 83.1276 162.025C84.7726 159.703 85.7284 156.84 87.8743 154.972C91.895 151.479 98.0478 152.916 103.121 154.549C103.471 154.624 103.791 154.801 104.04 155.059C104.421 155.518 104.233 156.238 103.971 156.794C102.399 160.112 99.0174 162.108 96.0765 164.311C92.8921 166.688 89.9145 169.731 89.0047 173.595C88.0949 177.459 89.2482 182.072 86.6704 185.11C84.3729 187.817 80.0581 187.987 77.6595 190.617C75.2608 193.247 75.3895 197.735 72.5589 199.929C70.6795 201.383 68.0373 201.37 65.9604 202.517C64.3751 203.393 63.2355 204.876 61.8891 206.092C59.0034 208.703 48.8069 213.086 48.954 206.487C49.078 200.553 53.209 193.058 56.1269 188.056Z" fill="#5B8493"/>
<path d="M56.1269 188.056C60.0787 181.273 65.3492 175.206 71.8559 170.791C75.826 168.106 80.3614 165.936 83.1276 162.025C84.7726 159.703 85.7284 156.84 87.8743 154.972C91.895 151.479 98.0478 152.916 103.121 154.549C103.471 154.624 103.791 154.801 104.04 155.059C104.421 155.518 104.233 156.238 103.971 156.794C102.399 160.112 99.0174 162.108 96.0765 164.311C92.8921 166.688 89.9145 169.731 89.0047 173.595C88.0949 177.459 89.2482 182.072 86.6704 185.11C84.3729 187.817 80.0581 187.987 77.6595 190.617C75.2608 193.247 75.3895 197.735 72.5589 199.929C70.6795 201.383 68.0373 201.37 65.9604 202.517C64.3751 203.393 63.2355 204.876 61.8891 206.092C59.0034 208.703 48.8069 213.086 48.954 206.487C49.078 200.553 53.209 193.058 56.1269 188.056Z" fill="url(#paint4_linear_196_2178)"/>
<path d="M80.7933 211.916L80.1776 215.39L79.6492 218.414L78.3947 225.702L77.8938 228.727L76.6256 236.019L76.0972 239.039L72.9449 257.157H40.1636L36.9838 239.039L36.4554 236.019L35.2009 228.727L34.6679 225.702L33.3629 218.414L32.8436 215.39L32.2371 211.92C31.9607 210.35 32.32 208.735 33.236 207.429C34.152 206.124 35.5497 205.235 37.1217 204.958C37.4661 204.898 37.8151 204.867 38.1647 204.867H74.8565C75.6458 204.865 76.4276 205.02 77.1572 205.32C77.8869 205.621 78.5502 206.062 79.1091 206.618C79.6681 207.175 80.1119 207.836 80.415 208.564C80.7182 209.292 80.8748 210.072 80.876 210.86C80.8753 211.214 80.8446 211.567 80.7841 211.916H80.7933Z" fill="#5B8493"/>
<path d="M80.7933 211.916L80.1776 215.39L79.6492 218.414L78.3947 225.702L77.8938 228.727L76.6256 236.019L76.0972 239.039L72.9449 257.157H40.1636L36.9838 239.039L36.4554 236.019L35.2009 228.727L34.6679 225.702L33.3629 218.414L32.8436 215.39L32.2371 211.92C31.9607 210.35 32.32 208.735 33.236 207.429C34.152 206.124 35.5497 205.235 37.1217 204.958C37.4661 204.898 37.8151 204.867 38.1647 204.867H74.8565C75.6458 204.865 76.4276 205.02 77.1572 205.32C77.8869 205.621 78.5502 206.062 79.1091 206.618C79.6681 207.175 80.1119 207.836 80.415 208.564C80.7182 209.292 80.8748 210.072 80.876 210.86C80.8753 211.214 80.8446 211.567 80.7841 211.916H80.7933Z" fill="url(#paint5_linear_196_2178)"/>
<path d="M315.271 40.6979V42.6805H46.7943V40.7071C46.7931 39.0423 47.1204 37.3937 47.7574 35.8553C48.3945 34.3169 49.3288 32.919 50.507 31.7414C51.6852 30.5638 53.0842 29.6296 54.6241 28.9923C56.164 28.3549 57.8145 28.0269 59.4813 28.0269H302.561C304.227 28.0263 305.877 28.3534 307.417 28.9896C308.956 29.6259 310.355 30.5587 311.534 31.7349C312.712 32.9111 313.647 34.3076 314.285 35.8447C314.923 37.3818 315.252 39.0294 315.253 40.6933L315.271 40.6979Z" fill="url(#paint6_linear_196_2178)"/>
<path d="M60.3636 37.637C61.9294 37.637 63.1988 36.3692 63.1988 34.8054C63.1988 33.2415 61.9294 31.9738 60.3636 31.9738C58.7978 31.9738 57.5284 33.2415 57.5284 34.8054C57.5284 36.3692 58.7978 37.637 60.3636 37.637Z" fill="url(#paint7_linear_196_2178)"/>
<path d="M69.88 37.637C71.4458 37.637 72.7151 36.3692 72.7151 34.8054C72.7151 33.2415 71.4458 31.9738 69.88 31.9738C68.3141 31.9738 67.0448 33.2415 67.0448 34.8054C67.0448 36.3692 68.3141 37.637 69.88 37.637Z" fill="url(#paint8_linear_196_2178)"/>
<path d="M79.3918 37.637C80.9576 37.637 82.227 36.3692 82.227 34.8054C82.227 33.2415 80.9576 31.9738 79.3918 31.9738C77.826 31.9738 76.5566 33.2415 76.5566 34.8054C76.5566 36.3692 77.826 37.637 79.3918 37.637Z" fill="url(#paint9_linear_196_2178)"/>
<path d="M211.28 104.177V156.61C211.276 158.387 210.568 160.09 209.309 161.346C208.051 162.602 206.345 163.308 204.566 163.311H152.086C150.307 163.308 148.602 162.602 147.343 161.346C146.085 160.09 145.376 158.387 145.373 156.61V104.177C145.373 103.297 145.546 102.426 145.883 101.613C146.22 100.8 146.715 100.062 147.338 99.4394C147.961 98.8172 148.7 98.3237 149.514 97.987C150.328 97.6502 151.2 97.4769 152.081 97.4769H204.566C205.448 97.4763 206.321 97.6492 207.135 97.9857C207.95 98.3221 208.69 98.8156 209.313 99.4378C209.937 100.06 210.431 100.799 210.769 101.612C211.106 102.425 211.28 103.297 211.28 104.177Z" fill="url(#paint10_linear_196_2178)"/>
<path d="M183.691 124.15C183.72 125.119 183.485 126.078 183.011 126.925C182.538 127.772 181.844 128.475 181.003 128.96C180.79 129.082 180.613 129.26 180.492 129.474C180.371 129.688 180.309 129.93 180.314 130.176V141.649C180.314 141.859 180.272 142.066 180.192 142.26C180.111 142.454 179.994 142.63 179.845 142.778C179.697 142.927 179.52 143.044 179.326 143.124C179.132 143.205 178.924 143.246 178.714 143.246H177.933C177.723 143.246 177.515 143.205 177.321 143.124C177.127 143.044 176.951 142.927 176.803 142.778C176.654 142.63 176.536 142.454 176.456 142.26C176.376 142.066 176.334 141.859 176.334 141.649V130.176C176.336 129.93 176.274 129.688 176.153 129.473C176.032 129.259 175.857 129.08 175.645 128.955C174.834 128.488 174.16 127.818 173.689 127.01C173.218 126.203 172.966 125.286 172.959 124.352C172.952 123.417 173.19 122.497 173.649 121.682C174.108 120.868 174.772 120.187 175.576 119.708C176.379 119.229 177.294 118.969 178.23 118.952C179.165 118.935 180.089 119.163 180.909 119.613C181.73 120.063 182.418 120.719 182.906 121.516C183.394 122.314 183.664 123.225 183.691 124.159V124.15Z" fill="#5B8493"/>
<path d="M80.1914 215.39L79.6629 218.414H33.3721L32.8436 215.39H80.1914Z" fill="#5B8493"/>
<path d="M78.39 225.702L77.8662 228.727H35.1824L34.6494 225.702H78.39Z" fill="#5B8493"/>
<path d="M76.598 236.019L76.0695 239.039H36.9838L36.4553 236.019H76.598Z" fill="#5B8493"/>
<path opacity="0.18" d="M246.671 140.382C244.516 137.367 241.258 135.27 237.789 133.957C236.999 133.659 236.107 133.402 235.335 133.737C234.793 134.036 234.338 134.471 234.016 134.999C232.344 137.294 230.602 139.772 230.441 142.608C230.202 146.922 233.626 151.516 231.429 155.238C230.818 156.275 229.844 157.046 229.132 158.019C227.79 159.855 227.482 162.259 227.661 164.527C227.877 167.248 228.227 170.887 225.653 171.814C224.881 172.041 224.061 172.052 223.282 171.847C221.026 171.388 218.94 170.309 216.73 169.667C214.519 169.024 211.969 168.873 210.048 170.126C209.878 172.576 211.988 174.618 214.207 175.679C216.426 176.739 218.926 177.221 220.962 178.602C224.04 180.686 225.557 184.568 225.46 188.299C225.364 192.03 223.903 195.564 222.037 198.781C221.169 200.277 220.199 201.769 219.841 203.462C219.138 206.84 221.031 210.158 222.846 213.1C223.379 213.958 223.962 214.867 224.891 215.271C225.677 215.537 226.516 215.605 227.335 215.468L259.565 212.714C260.484 212.636 261.555 212.453 261.95 211.622C262.125 211.112 262.125 210.558 261.95 210.048C260.898 205.541 257.585 201.833 256.408 197.354C255.866 195.266 255.806 193.086 255.747 190.929C255.508 182.035 255.209 173.054 253.311 164.311C252.36 159.956 250.016 155.885 249.088 151.64C248.224 147.679 249.41 144.21 246.671 140.382Z" fill="#1D2741"/>
<path d="M196.093 97.4907H190.391V89.8403C190.387 88.2583 190.071 86.6925 189.461 85.2324C188.851 83.7723 187.959 82.4465 186.837 81.3306C185.714 80.2147 184.382 79.3306 182.917 78.7288C181.452 78.127 179.883 77.8193 178.299 77.8232C175.1 77.8311 172.035 79.1079 169.778 81.3728C168.661 82.4942 167.776 83.8244 167.173 85.2875C166.571 86.7506 166.263 88.3179 166.266 89.9V97.4907H160.559V89.6889C160.678 85.0529 162.609 80.6474 165.938 77.4153C169.268 74.1832 173.732 72.3812 178.376 72.395C183.019 72.4088 187.472 74.2373 190.783 77.4891C194.093 80.741 195.998 85.1578 196.089 89.7944L196.093 97.4907Z" fill="url(#paint11_linear_196_2178)"/>
<path d="M315.23 250.576L320.041 255.165L313.116 262.049L304.418 262.797C304.161 262.062 304.181 261.259 304.474 260.537C304.766 259.815 305.311 259.224 306.007 258.874C307.607 258.01 309.348 257.441 311.149 257.194L310.961 253.642L315.23 250.576Z" fill="#3F3D56"/>
<path d="M261.738 250.214L262.446 256.005L246.152 263.293C246.152 263.293 244.116 260.149 246.202 257.419C248.289 254.688 254.042 252.77 254.042 252.77L255.057 250.25L261.738 250.214Z" fill="#3F3D56"/>
<path d="M265.906 160.883C265.906 160.883 260.006 165.238 259.386 171.998C258.765 178.758 258.467 181.131 258.467 181.131L248.128 180.296L247.99 186.005C247.99 186.005 261.706 191.012 263.811 190.158C265.915 189.304 268.548 185.537 268.548 185.537L265.906 160.883Z" fill="#5B8493"/>
<path d="M265.906 160.883C265.906 160.883 260.006 165.238 259.386 171.998C258.765 178.758 258.467 181.131 258.467 181.131L248.128 180.296L247.99 186.005C247.99 186.005 261.706 191.012 263.811 190.158C265.915 189.304 268.548 185.537 268.548 185.537L265.906 160.883Z" fill="url(#paint12_linear_196_2178)"/>
<path d="M269.876 196.913C269.876 196.913 248.28 214.711 248.105 220.778C247.93 226.845 253.412 250.576 253.412 250.576L261.784 250.53L262.028 225.592C262.028 225.592 279.692 219.433 281.612 215.711C283.533 211.989 287.604 193.825 269.876 196.913Z" fill="#5B8493"/>
<path d="M269.876 196.913C269.876 196.913 248.28 214.711 248.105 220.778C247.93 226.845 253.412 250.576 253.412 250.576L261.784 250.53L262.028 225.592C262.028 225.592 279.692 219.433 281.612 215.711C283.533 211.989 287.604 193.825 269.876 196.913Z" fill="url(#paint13_linear_196_2178)"/>
<path d="M269.876 196.913C269.876 196.913 271.195 224.055 279.691 232.829C288.188 241.604 309.932 254.771 309.932 254.771L316.103 250.948L295.227 229.185C295.227 229.185 298.246 204.756 294.676 200.475C291.106 196.193 269.876 196.913 269.876 196.913Z" fill="#5B8493"/>
<path d="M269.876 196.913C269.876 196.913 271.195 224.055 279.691 232.829C288.188 241.604 309.932 254.771 309.932 254.771L316.103 250.948L295.227 229.185C295.227 229.185 298.246 204.756 294.676 200.475C291.106 196.193 269.876 196.913 269.876 196.913Z" fill="url(#paint14_linear_196_2178)"/>
<path d="M269.876 196.913L262.497 165.729C262.497 165.729 266.632 153.838 283.023 157.666C299.414 161.493 294.662 200.475 294.662 200.475C294.662 200.475 276.264 206.569 269.876 196.913Z" fill="#5B8493"/>
<path d="M269.876 196.913L262.497 165.729C262.497 165.729 266.632 153.838 283.023 157.666C299.414 161.493 294.662 200.475 294.662 200.475C294.662 200.475 276.264 206.569 269.876 196.913Z" fill="url(#paint15_linear_196_2178)"/>
<path d="M282.467 162.461C282.467 162.461 281.484 157.271 286.759 158.657C292.034 160.043 300.245 177.932 299.942 180.419C299.639 182.907 273.975 183.93 273.975 183.93L273.364 177.964L286.855 175.711C286.855 175.711 281.902 167.23 282.467 162.461Z" fill="#5B8493"/>
<path d="M282.467 162.461C282.467 162.461 281.484 157.271 286.759 158.657C292.034 160.043 300.245 177.932 299.942 180.419C299.639 182.907 273.975 183.93 273.975 183.93L273.364 177.964L286.855 175.711C286.855 175.711 281.902 167.23 282.467 162.461Z" fill="url(#paint16_linear_196_2178)"/>
<path d="M279.949 151.383C279.316 152.689 278.24 153.728 276.911 154.316C276.688 154.392 276.472 154.485 276.263 154.595C276.17 154.654 276.085 154.725 276.011 154.807C275.551 155.321 275.873 156.082 276.011 156.743C276.268 158.249 275.395 159.791 274.136 160.653C273.429 161.107 272.653 161.443 271.838 161.649C270.694 161.948 269.463 162.016 268.594 161.608C267.216 160.961 267.354 158.854 267.05 157.565C266.049 153.379 265.171 149.088 265.626 144.761C265.869 142.466 266.513 140.125 267.896 138.262C269.279 136.399 271.48 135.05 273.805 135.091C276.13 135.132 278.336 136.596 279.995 138.303C280.575 138.873 281.064 139.528 281.447 140.245C282.522 142.397 281.952 144.972 281.355 147.303C281.051 148.714 280.579 150.084 279.949 151.383Z" fill="url(#paint17_linear_196_2178)"/>
<path d="M281.796 141.231C281.796 141.231 274.903 141.231 270.736 143.655C267.018 145.807 265.994 150.405 265.681 150.327C264.978 150.167 262.685 145.738 263.65 144.761C264.615 143.783 263.852 143.778 263.852 143.778C263.852 143.778 262.745 141.943 263.301 138.648C263.757 136.241 264.38 133.868 265.166 131.548C265.166 131.548 265.456 130.456 269.628 131.548C273.801 132.64 280.836 135.977 281.226 137.33C281.617 138.684 281.295 139.304 281.295 139.304C281.295 139.304 282.439 140.144 281.796 141.231Z" fill="#5B8493"/>
<path d="M281.796 141.231C281.796 141.231 274.903 141.231 270.736 143.655C267.018 145.807 265.994 150.405 265.681 150.327C264.978 150.167 262.685 145.738 263.65 144.761C264.615 143.783 263.852 143.778 263.852 143.778C263.852 143.778 262.745 141.943 263.301 138.648C263.757 136.241 264.38 133.868 265.166 131.548C265.166 131.548 265.456 130.456 269.628 131.548C273.801 132.64 280.836 135.977 281.226 137.33C281.617 138.684 281.295 139.304 281.295 139.304C281.295 139.304 282.439 140.144 281.796 141.231Z" fill="url(#paint18_linear_196_2178)"/>
<path d="M270.736 143.645C273.154 144.229 275.611 144.64 278.088 144.875C280.312 145.017 281.915 144.416 281.929 144.311C281.957 144.077 281.208 148.037 281.208 148.037L279.521 148.629C278.871 148.859 278.177 148.941 277.49 148.868L266.972 147.776C266.972 147.776 268.764 144.563 270.736 143.645Z" fill="#5B8493"/>
<path d="M270.736 143.645C273.154 144.229 275.611 144.64 278.088 144.875C280.312 145.017 281.915 144.416 281.929 144.311C281.957 144.077 281.208 148.037 281.208 148.037L279.521 148.629C278.871 148.859 278.177 148.941 277.49 148.868L266.972 147.776C266.972 147.776 268.764 144.563 270.736 143.645Z" fill="url(#paint19_linear_196_2178)"/>
<path d="M275.064 145.674C275.366 145.591 275.687 145.601 275.983 145.701C276.186 145.738 276.369 145.843 276.502 146C276.579 146.119 276.632 146.251 276.659 146.39C276.686 146.468 276.686 146.554 276.659 146.633C276.62 146.678 276.569 146.712 276.513 146.731C276.456 146.749 276.395 146.752 276.337 146.739C275.789 146.743 275.245 146.638 274.738 146.431C274.32 146.215 274.71 145.798 275.064 145.674Z" fill="white"/>
<path d="M279.912 145.899C279.998 145.821 280.099 145.762 280.209 145.725C280.319 145.688 280.435 145.674 280.551 145.683C280.626 145.679 280.701 145.69 280.771 145.716C280.841 145.742 280.906 145.782 280.96 145.834C281.037 145.936 281.098 146.049 281.139 146.169C281.175 146.243 281.191 146.326 281.185 146.408C281.174 146.455 281.15 146.498 281.114 146.53C281.079 146.563 281.035 146.585 280.987 146.592C280.621 146.737 280.221 146.776 279.834 146.706C279.503 146.61 279.691 146.105 279.912 145.899Z" fill="white"/>
<path d="M274.113 160.653C273.406 161.107 272.63 161.443 271.815 161.649C271.131 160.877 270.693 159.918 270.556 158.896C270.422 158.187 270.341 157.469 270.313 156.748C270.228 156.121 270.383 155.486 270.745 154.967C270.984 154.745 271.272 154.582 271.585 154.49C271.899 154.397 272.229 154.379 272.551 154.435C273.199 154.508 273.824 154.733 274.471 154.802C275.023 154.862 275.685 154.609 276.263 154.577C276.17 154.636 276.085 154.707 276.011 154.788C275.551 155.302 275.873 156.064 276.011 156.725C276.245 158.249 275.372 159.791 274.113 160.653Z" fill="url(#paint20_linear_196_2178)"/>
<path d="M244.558 177.423C244.291 177.212 243.974 177.074 243.638 177.023C243.471 177.003 243.302 177.044 243.163 177.14C243.024 177.235 242.925 177.378 242.885 177.542C242.884 177.775 242.964 178.002 243.11 178.184L243.73 179.153C243.808 179.253 243.855 179.375 243.864 179.502C243.864 179.823 243.404 179.887 243.078 179.846C241.056 179.589 239.039 178.965 237.022 179.231C236.866 179.235 236.718 179.295 236.603 179.401C236.545 179.488 236.518 179.592 236.527 179.696C236.537 179.801 236.581 179.899 236.654 179.974C236.806 180.121 236.992 180.226 237.196 180.282C238.326 180.695 239.486 181.02 240.665 181.255C240.532 181.585 240.096 181.645 239.746 181.659C238.77 181.695 237.798 181.805 236.838 181.989C236.291 182.09 235.62 182.365 235.615 182.907C235.631 183.088 235.703 183.259 235.821 183.397C235.938 183.536 236.096 183.634 236.273 183.678C236.628 183.761 236.997 183.774 237.357 183.715C238.622 183.609 239.895 183.641 241.153 183.811C239.793 183.967 238.501 184.49 237.417 185.325C237.318 185.394 237.236 185.486 237.178 185.592C237.054 185.858 237.288 186.179 237.568 186.271C237.859 186.33 238.16 186.313 238.441 186.22C239.698 185.929 240.98 185.763 242.269 185.725C241.492 186.082 240.768 186.546 240.119 187.101C239.922 187.253 239.764 187.45 239.659 187.675C239.606 187.789 239.589 187.916 239.61 188.04C239.631 188.164 239.69 188.279 239.779 188.368C239.896 188.44 240.029 188.484 240.166 188.495C240.303 188.506 240.442 188.485 240.569 188.432C242.099 188.019 243.45 187.028 245.017 186.799C245.835 186.675 246.782 186.725 247.351 186.124C247.595 185.826 247.765 185.476 247.848 185.101C248.188 183.921 248.891 181.429 248.178 180.282C247.898 179.823 247.218 179.447 246.8 179.107C246.083 178.507 245.334 177.944 244.558 177.423Z" fill="#5B8493"/>
<path d="M270.166 175.541C269.9 175.33 269.583 175.193 269.247 175.142C269.08 175.121 268.91 175.163 268.771 175.258C268.633 175.354 268.534 175.497 268.493 175.66C268.493 175.894 268.572 176.121 268.718 176.303L269.339 177.271C269.417 177.372 269.463 177.493 269.472 177.62C269.449 177.941 269.013 178.005 268.686 177.964C266.664 177.707 264.647 177.078 262.63 177.349C262.475 177.352 262.327 177.411 262.212 177.514C262.152 177.602 262.125 177.707 262.134 177.813C262.143 177.918 262.189 178.017 262.262 178.093C262.414 178.239 262.601 178.345 262.805 178.4C263.934 178.814 265.094 179.139 266.274 179.373C266.141 179.704 265.704 179.759 265.355 179.772C264.378 179.813 263.406 179.925 262.446 180.107C261.899 180.208 261.228 180.479 261.224 181.025C261.239 181.206 261.311 181.378 261.429 181.516C261.547 181.654 261.705 181.752 261.881 181.796C262.237 181.88 262.605 181.892 262.965 181.833C264.23 181.727 265.503 181.76 266.761 181.929C265.402 182.085 264.112 182.609 263.03 183.444C262.929 183.511 262.846 183.601 262.786 183.705C262.748 183.846 262.766 183.996 262.838 184.123C262.909 184.25 263.028 184.344 263.168 184.385C263.457 184.448 263.759 184.432 264.041 184.339C265.297 184.045 266.579 183.879 267.868 183.843C267.091 184.201 266.368 184.664 265.718 185.22C265.521 185.372 265.363 185.568 265.258 185.794C265.206 185.908 265.19 186.035 265.211 186.158C265.232 186.282 265.29 186.396 265.378 186.487C265.496 186.559 265.629 186.602 265.768 186.613C265.906 186.625 266.045 186.603 266.173 186.551C267.698 186.138 269.049 185.146 270.616 184.917C271.434 184.793 272.381 184.844 272.951 184.242C273.194 183.945 273.364 183.594 273.447 183.219C273.791 182.04 274.49 179.548 273.778 178.396C273.497 177.937 272.817 177.565 272.399 177.225C271.685 176.625 270.939 176.063 270.166 175.541Z" fill="#5B8493"/>
<path d="M244.558 177.423C244.291 177.212 243.974 177.074 243.638 177.023C243.471 177.003 243.302 177.044 243.163 177.14C243.024 177.235 242.925 177.378 242.885 177.542C242.884 177.775 242.964 178.002 243.11 178.184L243.73 179.153C243.808 179.253 243.855 179.375 243.864 179.502C243.864 179.823 243.404 179.887 243.078 179.846C241.056 179.589 239.039 178.965 237.022 179.231C236.866 179.235 236.718 179.295 236.603 179.401C236.545 179.488 236.518 179.592 236.527 179.696C236.537 179.801 236.581 179.899 236.654 179.974C236.806 180.121 236.992 180.226 237.196 180.282C238.326 180.695 239.486 181.02 240.665 181.255C240.532 181.585 240.096 181.645 239.746 181.659C238.77 181.695 237.798 181.805 236.838 181.989C236.291 182.09 235.62 182.365 235.615 182.907C235.631 183.088 235.703 183.259 235.821 183.397C235.938 183.536 236.096 183.634 236.273 183.678C236.628 183.761 236.997 183.774 237.357 183.715C238.622 183.609 239.895 183.641 241.153 183.811C239.793 183.967 238.501 184.49 237.417 185.325C237.318 185.394 237.236 185.486 237.178 185.592C237.054 185.858 237.288 186.179 237.568 186.271C237.859 186.33 238.16 186.313 238.441 186.22C239.698 185.929 240.98 185.763 242.269 185.725C241.492 186.082 240.768 186.546 240.119 187.101C239.922 187.253 239.764 187.45 239.659 187.675C239.606 187.789 239.589 187.916 239.61 188.04C239.631 188.164 239.69 188.279 239.779 188.368C239.896 188.44 240.029 188.484 240.166 188.495C240.303 188.506 240.442 188.485 240.569 188.432C242.099 188.019 243.45 187.028 245.017 186.799C245.835 186.675 246.782 186.725 247.351 186.124C247.595 185.826 247.765 185.476 247.848 185.101C248.188 183.921 248.891 181.429 248.178 180.282C247.898 179.823 247.218 179.447 246.8 179.107C246.083 178.507 245.334 177.944 244.558 177.423Z" fill="url(#paint21_linear_196_2178)"/>
<path d="M270.166 175.541C269.9 175.33 269.583 175.193 269.247 175.142C269.08 175.121 268.91 175.163 268.771 175.258C268.633 175.354 268.534 175.497 268.493 175.66C268.493 175.894 268.572 176.121 268.718 176.303L269.339 177.271C269.417 177.372 269.463 177.493 269.472 177.62C269.449 177.941 269.013 178.005 268.686 177.964C266.664 177.707 264.647 177.078 262.63 177.349C262.475 177.352 262.327 177.411 262.212 177.514C262.152 177.602 262.125 177.707 262.134 177.813C262.143 177.918 262.189 178.017 262.262 178.093C262.414 178.239 262.601 178.345 262.805 178.4C263.934 178.814 265.094 179.139 266.274 179.373C266.141 179.704 265.704 179.759 265.355 179.772C264.378 179.813 263.406 179.925 262.446 180.107C261.899 180.208 261.228 180.479 261.224 181.025C261.239 181.206 261.311 181.378 261.429 181.516C261.547 181.654 261.705 181.752 261.881 181.796C262.237 181.88 262.605 181.892 262.965 181.833C264.23 181.727 265.503 181.76 266.761 181.929C265.402 182.085 264.112 182.609 263.03 183.444C262.929 183.511 262.846 183.601 262.786 183.705C262.748 183.846 262.766 183.996 262.838 184.123C262.909 184.25 263.028 184.344 263.168 184.385C263.457 184.448 263.759 184.432 264.041 184.339C265.297 184.045 266.579 183.879 267.868 183.843C267.091 184.201 266.368 184.664 265.718 185.22C265.521 185.372 265.363 185.568 265.258 185.794C265.206 185.908 265.19 186.035 265.211 186.158C265.232 186.282 265.29 186.396 265.378 186.487C265.496 186.559 265.629 186.602 265.768 186.613C265.906 186.625 266.045 186.603 266.173 186.551C267.698 186.138 269.049 185.146 270.616 184.917C271.434 184.793 272.381 184.844 272.951 184.242C273.194 183.945 273.364 183.594 273.447 183.219C273.791 182.04 274.49 179.548 273.778 178.396C273.497 177.937 272.817 177.565 272.399 177.225C271.685 176.625 270.939 176.063 270.166 175.541Z" fill="url(#paint22_linear_196_2178)"/>
<defs>
<linearGradient id="paint0_linear_196_2178" x1="32.692" y1="256.639" x2="88.4854" y2="256.639" gradientUnits="userSpaceOnUse">
<stop stop-color="#183866"/>
<stop offset="1" stop-color="#1A7FC1"/>
</linearGradient>
<linearGradient id="paint1_linear_196_2178" x1="144.927" y1="126.481" x2="-203.59" y2="142.607" gradientUnits="userSpaceOnUse">
<stop stop-opacity="0"/>
<stop offset="0.97" stop-color="#0C0C11"/>
<stop offset="0.98" stop-color="#312F43"/>
<stop offset="0.99" stop-color="#3F3D56"/>
</linearGradient>
<linearGradient id="paint2_linear_196_2178" x1="14.1278" y1="177.193" x2="171.992" y2="152.575" gradientUnits="userSpaceOnUse">
<stop stop-opacity="0"/>
<stop offset="0.97" stop-color="#0C0C11"/>
<stop offset="0.98" stop-color="#312F43"/>
<stop offset="0.99" stop-color="#3F3D56"/>
</linearGradient>
<linearGradient id="paint3_linear_196_2178" x1="29.4341" y1="170.259" x2="140.96" y2="163.537" gradientUnits="userSpaceOnUse">
<stop stop-opacity="0"/>
<stop offset="0.29" stop-opacity="0.29"/>
<stop offset="0.97" stop-color="#0C0C11"/>
<stop offset="0.98" stop-color="#312F43"/>
<stop offset="0.99" stop-color="#3F3D56"/>
</linearGradient>
<linearGradient id="paint4_linear_196_2178" x1="117.315" y1="237.956" x2="57.93" y2="155.626" gradientUnits="userSpaceOnUse">
<stop stop-opacity="0"/>
<stop offset="0.84" stop-opacity="0.66"/>
<stop offset="0.97"/>
</linearGradient>
<linearGradient id="paint5_linear_196_2178" x1="93.6366" y1="227.997" x2="21.743" y2="233.683" gradientUnits="userSpaceOnUse">
<stop stop-opacity="0"/>
<stop offset="0.87" stop-opacity="0.66"/>
<stop offset="1"/>
</linearGradient>
<linearGradient id="paint6_linear_196_2178" x1="180.41" y1="-10.6105" x2="184.214" y2="309.448" gradientUnits="userSpaceOnUse">
<stop stop-opacity="0"/>
<stop offset="0.5" stop-opacity="0.38"/>
<stop offset="0.97" stop-color="#0C0C11"/>
<stop offset="0.98" stop-color="#312F43"/>
<stop offset="0.99" stop-color="#3F3D56"/>
</linearGradient>
<linearGradient id="paint7_linear_196_2178" x1="60.3223" y1="29.8122" x2="60.4506" y2="44.8009" gradientUnits="userSpaceOnUse">
<stop stop-opacity="0"/>
<stop offset="0.5" stop-opacity="0.38"/>
<stop offset="0.97" stop-color="#0C0C11"/>
<stop offset="0.98" stop-color="#312F43"/>
<stop offset="0.99" stop-color="#3F3D56"/>
</linearGradient>
<linearGradient id="paint8_linear_196_2178" x1="69.8386" y1="29.7296" x2="69.9669" y2="44.7229" gradientUnits="userSpaceOnUse">
<stop stop-opacity="0"/>
<stop offset="0.5" stop-opacity="0.38"/>
<stop offset="0.97" stop-color="#0C0C11"/>
<stop offset="0.98" stop-color="#312F43"/>
<stop offset="0.99" stop-color="#3F3D56"/>
</linearGradient>
<linearGradient id="paint9_linear_196_2178" x1="79.3505" y1="29.6516" x2="79.4788" y2="44.6403" gradientUnits="userSpaceOnUse">
<stop stop-opacity="0"/>
<stop offset="0.5" stop-opacity="0.38"/>
<stop offset="0.97" stop-color="#0C0C11"/>
<stop offset="0.98" stop-color="#312F43"/>
<stop offset="0.99" stop-color="#3F3D56"/>
</linearGradient>
<linearGradient id="paint10_linear_196_2178" x1="193.828" y1="32.0977" x2="167.668" y2="198.401" gradientUnits="userSpaceOnUse">
<stop offset="0.01"/>
<stop offset="0.99" stop-opacity="0"/>
</linearGradient>
<linearGradient id="paint11_linear_196_2178" x1="178.705" y1="69.5235" x2="178.096" y2="108.551" gradientUnits="userSpaceOnUse">
<stop offset="0.01"/>
<stop offset="0.99" stop-opacity="0"/>
</linearGradient>
<linearGradient id="paint12_linear_196_2178" x1="253.017" y1="169.635" x2="308.752" y2="223.762" gradientUnits="userSpaceOnUse">
<stop offset="0.01"/>
<stop offset="0.15" stop-opacity="0.52"/>
<stop offset="0.99" stop-opacity="0"/>
</linearGradient>
<linearGradient id="paint13_linear_196_2178" x1="269.587" y1="226.918" x2="205.158" y2="172.221" gradientUnits="userSpaceOnUse">
<stop offset="0.01"/>
<stop offset="0.16" stop-opacity="0.52"/>
<stop offset="1" stop-opacity="0"/>
</linearGradient>
<linearGradient id="paint14_linear_196_2178" x1="272.243" y1="230.328" x2="369.253" y2="205.625" gradientUnits="userSpaceOnUse">
<stop offset="0.01"/>
<stop offset="0.15" stop-opacity="0.52"/>
<stop offset="0.99" stop-opacity="0"/>
</linearGradient>
<linearGradient id="paint15_linear_196_2178" x1="264.817" y1="190.562" x2="339.638" y2="142.022" gradientUnits="userSpaceOnUse">
<stop offset="0.01"/>
<stop offset="0.15" stop-opacity="0.52"/>
<stop offset="0.99" stop-opacity="0"/>
</linearGradient>
<linearGradient id="paint16_linear_196_2178" x1="274.044" y1="169.433" x2="341.05" y2="189.084" gradientUnits="userSpaceOnUse">
<stop offset="0.01"/>
<stop offset="0.15" stop-opacity="0.52"/>
<stop offset="0.99" stop-opacity="0"/>
</linearGradient>
<linearGradient id="paint17_linear_196_2178" x1="265.679" y1="146.866" x2="281.281" y2="150.893" gradientUnits="userSpaceOnUse">
<stop stop-color="#ECC4D7"/>
<stop offset="0.42" stop-color="#EFD4D1"/>
<stop offset="1" stop-color="#F2EAC9"/>
</linearGradient>
<linearGradient id="paint18_linear_196_2178" x1="264.096" y1="141.346" x2="315.513" y2="122.125" gradientUnits="userSpaceOnUse">
<stop offset="0.01"/>
<stop offset="0.03" stop-opacity="0.93"/>
<stop offset="0.51" stop-opacity="0.05"/>
<stop offset="0.58" stop-opacity="0.03"/>
<stop offset="0.99" stop-opacity="0"/>
</linearGradient>
<linearGradient id="paint19_linear_196_2178" x1="268.93" y1="146.628" x2="304.082" y2="144.268" gradientUnits="userSpaceOnUse">
<stop offset="0.01"/>
<stop offset="0.15" stop-opacity="0.52"/>
<stop offset="0.99" stop-opacity="0"/>
</linearGradient>
<linearGradient id="paint20_linear_196_2178" x1="269.992" y1="154.965" x2="286.807" y2="168.081" gradientUnits="userSpaceOnUse">
<stop stop-color="#ECC4D7"/>
<stop offset="0.42" stop-color="#EFD4D1"/>
<stop offset="1" stop-color="#F2EAC9"/>
</linearGradient>
<linearGradient id="paint21_linear_196_2178" x1="242.297" y1="174.582" x2="238.653" y2="289.911" gradientUnits="userSpaceOnUse">
<stop offset="0.01"/>
<stop offset="0.15" stop-opacity="0.52"/>
<stop offset="0.99" stop-opacity="0"/>
</linearGradient>
<linearGradient id="paint22_linear_196_2178" x1="267.836" y1="174.848" x2="264.192" y2="290.178" gradientUnits="userSpaceOnUse">
<stop offset="0.01"/>
<stop offset="0.15" stop-opacity="0.52"/>
<stop offset="0.99" stop-opacity="0"/>
</linearGradient>
</defs>
</svg>
