<svg width="170" height="119" viewBox="0 0 170 119" fill="none" xmlns="http://www.w3.org/2000/svg">
<path d="M58.6789 0H160.667C165.811 0 170 4.18891 170 9.3334V108.919C170 114.063 165.811 118.252 160.667 118.252H9.33307C4.18857 118.282 0 114.093 0 108.949V59.1411H58.6789V0Z" fill="#FE0000"/>
<path d="M0 59.1411H58.6789V0H9.33307C4.18857 0 0 4.18891 0 9.3334V59.1411Z" fill="#000095"/>
<path d="M36.7325 42.3845L34.9605 35.7894C34.0771 36.5879 33.0332 37.1885 31.8988 37.5508L36.7325 42.3845ZM36.7325 29.5704C36.7325 25.4735 33.4052 22.1778 29.3398 22.1778C25.2429 22.1778 21.9472 25.5051 21.9472 29.5704C21.9472 33.667 25.2745 36.9628 29.3398 36.9628C30.3113 36.9652 31.2737 36.7756 32.1717 36.405C33.0697 36.0344 33.8856 35.4899 34.5725 34.803C35.2595 34.1161 35.8039 33.3002 36.1746 32.4022C36.5453 31.5043 36.7349 30.5419 36.7325 29.5704ZM35.5591 35.1911L42.1529 36.9628L37.3192 32.1364C36.9559 33.2679 36.3559 34.3092 35.5591 35.1911ZM37.5324 31.3365L44.1554 29.5704L37.5301 27.8077C37.6546 28.387 37.7174 28.9779 37.7173 29.5704C37.7176 30.164 37.6556 30.7559 37.5324 31.3365ZM37.3146 27.0032L42.1529 22.1788L35.5485 23.9508C36.347 24.8315 36.949 25.872 37.3146 27.0032ZM34.9595 23.3618L36.7325 16.7574L31.9081 21.5957C33.0387 21.9619 34.0788 22.5639 34.9595 23.3618ZM31.1023 21.3792L29.3398 14.7549L27.5738 21.3792C28.1537 21.2539 28.7455 21.191 29.3388 21.1916C29.9441 21.1916 30.5332 21.2567 31.1023 21.3792ZM26.7636 21.5967L21.9156 16.7574L23.7076 23.3711C24.5881 22.5686 25.6301 21.9636 26.7636 21.5967ZM23.1289 23.9518L16.5254 22.1778L21.3591 27.0115C21.7252 25.8776 22.3285 24.8345 23.1289 23.9518ZM21.1473 27.8054L14.5229 29.5704L21.1473 31.3329C20.8977 30.1703 20.8977 28.968 21.1473 27.8054ZM21.3628 32.1384L16.5254 36.9628L23.1299 35.1911C22.3316 34.3099 21.7293 33.2695 21.3628 32.1384ZM23.7202 35.7814L21.9472 42.3845L26.7739 37.5475C25.642 37.1827 24.6009 36.5806 23.7202 35.7814ZM27.5761 37.7627L29.3388 44.3857L31.1036 37.7627C30.5235 37.8864 29.932 37.9488 29.3388 37.9489C28.7346 37.9489 28.1442 37.8852 27.5761 37.7627Z" fill="white"/>
</svg>
