<svg width="50" height="56" viewBox="0 0 50 56" fill="none" xmlns="http://www.w3.org/2000/svg">
<g clip-path="url(#clip0_204_1932)">
<path d="M19.6078 12.679C18.984 12.5927 18.9542 12.564 19.2513 12.5352C19.8158 12.4489 21.123 12.564 22.044 12.7652C24.183 13.254 26.1141 14.519 28.164 16.7328L28.6988 17.3365L29.4712 17.2215C32.7689 16.704 36.1557 17.1065 38.978 18.3716C39.7504 18.7166 40.9685 19.4066 41.1171 19.5791C41.1765 19.6366 41.2656 20.0103 41.325 20.3841C41.533 21.7354 41.4439 22.7416 40.9982 23.5179C40.7605 23.9492 40.7605 24.0642 40.9091 24.4379C41.0279 24.7254 41.3844 24.9267 41.7112 24.9267C42.4242 24.9267 43.167 23.8341 43.5235 22.3104L43.672 21.7066L43.9394 21.9941C45.4545 23.6329 46.6429 25.9042 46.8212 27.5142L46.8806 27.9455L46.6132 27.5717C46.1676 26.9105 45.7516 26.4792 45.1872 26.1054C44.1771 25.4442 43.1075 25.2429 40.2852 25.0992C37.7302 24.9554 36.2745 24.7542 34.8485 24.2942C32.4124 23.5179 31.1646 22.5116 28.2828 18.8028C27.0053 17.164 26.2032 16.2728 25.4011 15.5253C23.6482 13.8865 21.8954 13.024 19.6078 12.679Z" fill="#FF007A"/>
<path d="M41.7409 16.3303C41.8004 15.2377 41.9489 14.519 42.2757 13.8577C42.3945 13.599 42.5134 13.369 42.5431 13.369C42.5728 13.369 42.5134 13.5702 42.4242 13.8002C42.1866 14.4327 42.1569 15.324 42.3054 16.3303C42.5134 17.624 42.6025 17.7965 44.0285 19.2053C44.6821 19.8666 45.4545 20.7003 45.7516 21.0453L46.2567 21.6779L45.7516 21.2178C45.1277 20.6428 43.7017 19.5503 43.3749 19.4066C43.167 19.2916 43.1373 19.2916 42.9887 19.4353C42.8699 19.5503 42.8402 19.7228 42.8402 20.5566C42.8105 21.8504 42.6322 22.6554 42.1866 23.4891C41.9489 23.9204 41.9192 23.8341 42.1272 23.3454C42.2757 22.9716 42.3054 22.7991 42.3054 21.5629C42.3054 19.0616 42.0083 18.4578 40.1961 17.4515C39.7504 17.1928 38.978 16.819 38.5324 16.6178C38.057 16.4165 37.7005 16.244 37.7302 16.244C37.7897 16.1865 39.5425 16.6753 40.2258 16.9628C41.2656 17.3653 41.4438 17.394 41.5627 17.3653C41.6518 17.279 41.7112 17.049 41.7409 16.3303Z" fill="#FF007A"/>
<path d="M20.8259 20.6141C19.5781 18.9466 18.776 16.359 18.9542 14.4327L19.0137 13.829L19.3108 13.8865C19.8455 13.9727 20.7665 14.3177 21.2121 14.5765C22.4005 15.2665 22.9352 16.2153 23.4403 18.5728C23.5888 19.2628 23.7968 20.0678 23.8859 20.3266C24.0345 20.7579 24.5989 21.7641 25.0743 22.3966C25.4011 22.8566 25.1931 23.0866 24.4504 23.0291C23.3215 22.9141 21.8063 21.9079 20.8259 20.6141Z" fill="#FF007A"/>
<path d="M40.2258 33.1206C34.3434 30.8205 32.2638 28.8367 32.2638 25.4729C32.2638 24.9842 32.2935 24.5817 32.2935 24.5817C32.3232 24.5817 32.5312 24.7542 32.7986 24.9554C33.9869 25.8754 35.3238 26.2779 39.0374 26.7955C41.2062 27.1117 42.4539 27.3417 43.5829 27.7155C47.1777 28.8655 49.4058 31.223 49.9406 34.4143C50.0891 35.3344 50 37.0881 49.7623 38.0081C49.5544 38.7269 48.9602 40.0494 48.8116 40.0782C48.7819 40.0782 48.7225 39.9344 48.7225 39.7044C48.6631 38.4969 48.0392 37.3469 46.9994 36.4556C45.7516 35.4206 44.1473 34.6443 40.2258 33.1206Z" fill="#FF007A"/>
<path d="M36.0665 34.0693C36.0071 33.6381 35.8586 33.0918 35.7695 32.8618L35.6209 32.4305L35.8883 32.7468C36.2745 33.1781 36.5716 33.6956 36.839 34.4143C37.0469 34.9606 37.0469 35.1331 37.0469 36.0244C37.0469 36.8869 37.0172 37.0881 36.839 37.5769C36.5419 38.3531 36.1854 38.8994 35.5912 39.5032C34.5217 40.5669 33.1254 41.1419 31.1349 41.4007C30.7784 41.4294 29.7683 41.5157 28.877 41.5732C26.6488 41.6882 25.1634 41.9182 23.8265 42.3782C23.6482 42.4357 23.47 42.4932 23.4403 42.4645C23.3809 42.407 24.3018 41.8895 25.0446 41.5445C26.0844 41.0557 27.1539 40.7969 29.5009 40.3944C30.6595 40.2219 31.8479 39.9919 32.145 39.8769C35.0862 38.9857 36.5419 36.7719 36.0665 34.0693Z" fill="#FF007A"/>
<path d="M38.7701 38.6982C37.9976 37.0594 37.8194 35.5069 38.2353 34.0406C38.2947 33.8969 38.3541 33.7531 38.4136 33.7531C38.473 33.7531 38.6512 33.8394 38.8295 33.9544C39.186 34.1844 39.9287 34.5869 41.8301 35.5931C44.2365 36.8582 45.6031 37.8357 46.5538 38.957C47.3856 39.9345 47.8907 41.0557 48.1283 42.4358C48.2769 43.212 48.1878 45.0808 47.9798 45.8571C47.3262 48.3009 45.8408 50.2559 43.672 51.3772C43.3452 51.5497 43.0778 51.6647 43.0481 51.6647C43.0184 51.6647 43.1373 51.3772 43.3155 51.0322C44.0285 49.5659 44.1176 48.1571 43.5829 46.5758C43.2561 45.5983 42.5728 44.4196 41.2062 42.4358C39.5722 40.1357 39.186 39.532 38.7701 38.6982Z" fill="#FF007A"/>
<path d="M16.637 47.4958C18.8354 45.7133 21.5389 44.4483 24.0345 44.0457C25.104 43.8732 26.8865 43.9307 27.8669 44.1895C29.4415 44.592 30.8675 45.4545 31.6102 46.5183C32.3232 47.5533 32.65 48.4446 32.9768 50.4284C33.0957 51.2046 33.2442 52.0096 33.2739 52.1821C33.5116 53.2172 33.9869 54.0222 34.5811 54.4534C35.5021 55.1147 37.1064 55.1434 38.6809 54.5684C38.9483 54.4822 39.186 54.3959 39.186 54.4247C39.2454 54.4822 38.4433 54.9997 37.9085 55.2584C37.1658 55.6322 36.5716 55.7472 35.7695 55.7472C34.3434 55.7472 33.1254 55.0284 32.145 53.5909C31.937 53.3034 31.5211 52.4696 31.1646 51.6934C30.1248 49.3646 29.59 48.6746 28.372 47.8983C27.3024 47.2371 25.9358 47.0933 24.896 47.5821C23.5294 48.2146 23.1729 49.9109 24.1236 50.9459C24.5098 51.3771 25.2228 51.7221 25.817 51.8084C26.9162 51.9521 27.8669 51.1184 27.8669 50.0546C27.8669 49.3646 27.5995 48.9621 26.8865 48.6458C25.9358 48.2433 24.896 48.7033 24.9257 49.5946C24.9257 49.9684 25.104 50.1984 25.4902 50.3709C25.7279 50.4859 25.7279 50.4859 25.5496 50.4571C24.6881 50.2846 24.4801 49.2496 25.1634 48.5883C25.9952 47.7833 27.7481 48.1283 28.3422 49.2496C28.5799 49.7096 28.6096 50.6296 28.4017 51.2046C27.8966 52.4696 26.4706 53.1309 25.0149 52.7572C24.0345 52.4984 23.6185 52.2396 22.4302 51.0609C20.3506 48.9908 19.5484 48.5883 16.5775 48.1571L16.0131 48.0708L16.637 47.4958Z" fill="#FF007A"/>
<path fill-rule="evenodd" clip-rule="evenodd" d="M1.0101 1.23627C7.93226 9.37266 18.5977 22.0229 19.1325 22.7129C19.5781 23.2879 19.3999 23.8342 18.6572 24.2367C18.2412 24.4667 17.3797 24.6967 16.9638 24.6967C16.4884 24.6967 15.9239 24.4667 15.5377 24.0929C15.2704 23.8342 14.1117 22.1954 11.4973 18.2566C9.50683 15.2378 7.81343 12.7365 7.78372 12.7077C7.66489 12.6502 7.66489 12.6502 11.2894 18.9178C13.5769 22.8567 14.3197 24.2654 14.3197 24.4379C14.3197 24.8117 14.2008 25.0129 13.7255 25.5304C12.9234 26.393 12.5668 27.3705 12.2995 29.4118C12.0024 31.6831 11.2002 33.2931 8.91266 36.0244C7.57576 37.6344 7.3678 37.9219 7.041 38.5832C6.62508 39.3882 6.50624 39.8482 6.44682 40.8832C6.3874 41.9757 6.50624 42.6657 6.83304 43.7008C7.13013 44.6208 7.45692 45.2245 8.25906 46.4033C8.94237 47.4383 9.35829 48.2146 9.35829 48.5021C9.35829 48.7321 9.41771 48.7321 10.4872 48.5021C13.0422 47.9271 15.1515 46.9496 16.3102 45.7421C17.0232 44.9945 17.2014 44.592 17.2014 43.557C17.2014 42.8958 17.1717 42.752 16.9935 42.3495C16.6964 41.717 16.1319 41.1995 14.9138 40.3945C13.3096 39.3307 12.6263 38.4682 12.448 37.3182C12.2995 36.3406 12.4777 35.6794 13.369 33.8681C14.29 31.9993 14.5276 31.223 14.6762 29.3255C14.7653 28.118 14.9138 27.6292 15.2704 27.2555C15.6566 26.853 15.9834 26.7092 16.9043 26.5942C18.4195 26.393 19.3999 26.0192 20.1723 25.3004C20.8556 24.6967 21.1527 24.0929 21.1824 23.2017L21.2121 22.5404L20.8259 22.1379C19.4296 20.5854 0.0891281 0 1.57848e-06 0C-0.0297073 0 0.445634 0.54626 1.0101 1.23627ZM10.1307 42.1195C10.4575 41.5732 10.2793 40.8832 9.7445 40.5382C9.23945 40.222 8.46702 40.3657 8.46702 40.797C8.46702 40.912 8.52644 41.027 8.70469 41.0845C8.97207 41.2282 9.00178 41.372 8.79382 41.6882C8.58586 42.0045 8.58586 42.292 8.85324 42.4932C9.26916 42.8095 9.83363 42.637 10.1307 42.1195Z" fill="#FF007A"/>
<path fill-rule="evenodd" clip-rule="evenodd" d="M22.1628 26.9967C21.4498 27.198 20.7665 27.9455 20.5585 28.693C20.4397 29.153 20.4991 29.9868 20.7071 30.2455C21.0339 30.648 21.331 30.763 22.1628 30.763C23.7968 30.763 25.1931 30.073 25.3417 29.2393C25.4902 28.5493 24.8663 27.6005 24.0048 27.1692C23.5591 26.9392 22.6381 26.853 22.1628 26.9967ZM24.0642 28.4343C24.3018 28.0893 24.2127 27.7155 23.7671 27.4567C22.9649 26.968 21.7469 27.3705 21.7469 28.118C21.7469 28.4918 22.3708 28.8943 22.9649 28.8943C23.3512 28.8943 23.8859 28.6643 24.0642 28.4343Z" fill="#FF007A"/>
</g>
<defs>
<clipPath id="clip0_204_1932">
<rect width="50" height="55.7185" fill="white"/>
</clipPath>
</defs>
</svg>
