<svg width="170" height="119" viewBox="0 0 170 119" fill="none" xmlns="http://www.w3.org/2000/svg">
<path d="M9.32983 0H160.609C165.751 0 169.938 4.18765 169.938 9.32983V108.879C169.938 114.021 165.751 118.209 160.609 118.209H9.32983C4.18765 118.239 0 114.052 0 108.91V9.32983C0 4.18765 4.18765 0 9.32983 0Z" fill="#B22234"/>
<path d="M0.061583 8.40625H169.938C169.969 8.71417 170 9.02208 170 9.36079V18.4135H0V9.33C0 9.02208 0.0307915 8.71417 0.061583 8.40625ZM169.969 26.6964V36.6729H0V26.6964H169.969ZM169.969 44.9866V54.963H0V44.9866H169.969ZM169.969 63.2767V73.2532H0V63.2767H169.969ZM169.969 81.5669V91.5434H0V81.5669H169.969ZM169.969 99.8571V108.879C169.969 109.187 169.938 109.526 169.908 109.834H0.061583C0.0307915 109.556 0 109.218 0 108.91V99.8879H169.969V99.8571Z" fill="white"/>
<path d="M64.0464 0V63.6769H0V9.32983C0 4.18765 4.18765 0 9.32983 0H64.0464Z" fill="#3C3B6E"/>
<path d="M3.78755 8.80566L5.91216 15.4258L0.308105 11.3306H7.26699L1.63214 15.4258L3.78755 8.80566Z" fill="white"/>
<path d="M3.78755 21.6157L5.91216 28.2359L0.308105 24.1406H7.26699L1.63214 28.2359L3.78755 21.6157Z" fill="white"/>
<path d="M3.78755 34.4253L5.91216 41.0455L0.308105 36.9502H7.26699L1.63214 41.0455L3.78755 34.4253Z" fill="white"/>
<path d="M3.78755 47.2339L5.91216 53.8541L0.308105 49.7588H7.26699L1.63214 53.8541L3.78755 47.2339Z" fill="white"/>
<path d="M11.3005 2.40137L13.4559 9.02155L7.82104 4.92627H14.8107L9.14508 9.02155L11.3005 2.40137Z" fill="white"/>
<path d="M11.3005 15.2109L13.4559 21.8311L7.82104 17.7358H14.8107L9.14508 21.8311L11.3005 15.2109Z" fill="white"/>
<path d="M11.3005 28.0205L13.4559 34.6407L7.82104 30.5454H14.8107L9.14508 34.6407L11.3005 28.0205Z" fill="white"/>
<path d="M11.3005 40.8291L13.4559 47.4493L7.82104 43.354H14.8107L9.14508 47.4493L11.3005 40.8291Z" fill="white"/>
<path d="M11.3005 53.6387L13.4559 60.2588L7.82104 56.1636H14.8107L9.14508 60.2588L11.3005 53.6387Z" fill="white"/>
<path d="M18.8444 8.80566L20.9998 15.4258L15.365 11.3306H22.3239L16.689 15.4258L18.8444 8.80566Z" fill="white"/>
<path d="M18.8444 21.6157L20.9998 28.2359L15.365 24.1406H22.3239L16.689 28.2359L18.8444 21.6157Z" fill="white"/>
<path d="M18.8444 34.4253L20.9998 41.0455L15.365 36.9502H22.3239L16.689 41.0455L18.8444 34.4253Z" fill="white"/>
<path d="M18.8444 47.2339L20.9998 53.8541L15.365 49.7588H22.3239L16.689 53.8541L18.8444 47.2339Z" fill="white"/>
<path d="M26.3881 2.40137L28.5127 9.02155L22.9087 4.92627H29.8676L24.2327 9.02155L26.3881 2.40137Z" fill="white"/>
<path d="M26.3881 15.2109L28.5127 21.8311L22.9087 17.7358H29.8676L24.2327 21.8311L26.3881 15.2109Z" fill="white"/>
<path d="M26.3881 28.0205L28.5127 34.6407L22.9087 30.5454H29.8676L24.2327 34.6407L26.3881 28.0205Z" fill="white"/>
<path d="M26.3881 40.8291L28.5127 47.4493L22.9087 43.354H29.8676L24.2327 47.4493L26.3881 40.8291Z" fill="white"/>
<path d="M26.3881 53.6387L28.5127 60.2588L22.9087 56.1636H29.8676L24.2327 60.2588L26.3881 53.6387Z" fill="white"/>
<path d="M33.9011 8.80566L36.0565 15.4258L30.4216 11.3306H37.3805L31.7457 15.4258L33.9011 8.80566Z" fill="white"/>
<path d="M33.9011 21.6157L36.0565 28.2359L30.4216 24.1406H37.3805L31.7457 28.2359L33.9011 21.6157Z" fill="white"/>
<path d="M33.9011 34.4253L36.0565 41.0455L30.4216 36.9502H37.3805L31.7457 41.0455L33.9011 34.4253Z" fill="white"/>
<path d="M33.9011 47.2339L36.0565 53.8541L30.4216 49.7588H37.3805L31.7457 53.8541L33.9011 47.2339Z" fill="white"/>
<path d="M41.4455 2.40137L43.6009 9.02155L37.9661 4.92627H44.9249L39.2901 9.02155L41.4455 2.40137Z" fill="white"/>
<path d="M41.4455 15.2109L43.6009 21.8311L37.9661 17.7358H44.9249L39.2901 21.8311L41.4455 15.2109Z" fill="white"/>
<path d="M41.4455 28.0205L43.6009 34.6407L37.9661 30.5454H44.9249L39.2901 34.6407L41.4455 28.0205Z" fill="white"/>
<path d="M41.4455 40.8291L43.6009 47.4493L37.9661 43.354H44.9249L39.2901 47.4493L41.4455 40.8291Z" fill="white"/>
<path d="M41.4455 53.6387L43.6009 60.2588L37.9661 56.1636H44.9249L39.2901 60.2588L41.4455 53.6387Z" fill="white"/>
<path d="M48.9584 8.80566L51.1139 15.4258L45.479 11.3306H52.4379L46.8338 15.4258L48.9584 8.80566Z" fill="white"/>
<path d="M48.9584 21.6157L51.1139 28.2359L45.479 24.1406H52.4379L46.8338 28.2359L48.9584 21.6157Z" fill="white"/>
<path d="M48.9584 34.4253L51.1139 41.0455L45.479 36.9502H52.4379L46.8338 41.0455L48.9584 34.4253Z" fill="white"/>
<path d="M48.9584 47.2339L51.1139 53.8541L45.479 49.7588H52.4379L46.8338 53.8541L48.9584 47.2339Z" fill="white"/>
<path d="M56.5024 2.40137L58.6578 9.02155L53.0229 4.92627H59.9818L54.347 9.02155L56.5024 2.40137Z" fill="white"/>
<path d="M56.5024 15.2109L58.6578 21.8311L53.0229 17.7358H59.9818L54.347 21.8311L56.5024 15.2109Z" fill="white"/>
<path d="M56.5024 28.0205L58.6578 34.6407L53.0229 30.5454H59.9818L54.347 34.6407L56.5024 28.0205Z" fill="white"/>
<path d="M56.5024 40.8291L58.6578 47.4493L53.0229 43.354H59.9818L54.347 47.4493L56.5024 40.8291Z" fill="white"/>
<path d="M56.5024 53.6387L58.6578 60.2588L53.0229 56.1636H59.9818L54.347 60.2588L56.5024 53.6387Z" fill="white"/>
</svg>
