<svg width="50" height="50" viewBox="0 0 50 50" fill="none" xmlns="http://www.w3.org/2000/svg">
<path fill-rule="evenodd" clip-rule="evenodd" d="M49.9554 24.9913C49.9554 38.7299 38.8183 49.867 25.0797 49.867C11.3412 49.867 0.204117 38.7299 0.204117 24.9913C0.204117 11.2528 11.3412 0.115723 25.0797 0.115723C38.8183 0.115723 49.9554 11.2528 49.9554 24.9913Z" fill="#1BA27A"/>
<path fill-rule="evenodd" clip-rule="evenodd" d="M36.7545 12.6595H13.1995V18.3459H22.1339V26.7041H27.8202V18.3459H36.7545V12.6595Z" fill="white"/>
<path fill-rule="evenodd" clip-rule="evenodd" d="M25.0311 27.5946C17.6403 27.5946 11.6488 26.425 11.6488 24.9819C11.6488 23.5391 17.6403 22.3692 25.0311 22.3692C32.4217 22.3692 38.4132 23.5391 38.4132 24.9819C38.4132 26.425 32.4217 27.5946 25.0311 27.5946ZM40.0573 25.4175C40.0573 23.5568 33.3299 22.0483 25.0311 22.0483C16.7324 22.0483 10.0048 23.5568 10.0048 25.4175C10.0048 27.0558 15.2214 28.421 22.1339 28.7237V40.7222H27.8202V28.7284C34.7861 28.4352 40.0573 27.0645 40.0573 25.4175Z" fill="white"/>
</svg>
