<svg width="62" height="50" viewBox="0 0 62 50" fill="none" xmlns="http://www.w3.org/2000/svg">
<path d="M51.3648 24.575C51.3534 23.4785 51.342 22.2018 51.3307 21.0067C51.3213 19.9548 51.3137 18.9692 51.3042 18.2315C51.3005 17.8619 51.2966 17.5539 51.2928 17.3291C51.2891 17.2151 51.2871 17.1242 51.2852 17.0518L51.2815 16.9563C51.2795 16.9239 51.2815 16.9101 51.2738 16.8392V16.8361C51.1187 15.715 50.8708 13.5619 48.973 11.6738C48.0269 10.7312 46.6723 9.88426 44.8388 9.29593C44.0063 9.02951 43.0678 8.81543 42.029 8.65832C42.6931 7.79124 43.0867 6.77327 43.0867 5.67673C43.0847 2.5411 39.9648 0 36.1106 0C34.088 0 32.2772 0.711538 31.0058 1.83271C29.7323 0.708483 27.9122 0 25.8839 0C22.0334 0 18.9115 2.5411 18.9115 5.67673C18.9115 6.77632 19.307 7.79745 19.9768 8.66758C18.6618 8.86165 17.4981 9.14197 16.5085 9.51159C14.0147 10.4356 12.5333 11.8864 11.7519 13.2847C10.9591 14.6832 10.7963 16.0245 10.6847 16.8361V16.8392C10.6752 16.9193 10.677 16.9316 10.6752 16.9717C10.6658 17.2211 10.6563 17.9496 10.6469 18.9553C10.6317 20.4584 10.6185 22.5329 10.6072 24.2347C10.6052 24.3579 10.6052 24.475 10.6052 24.595C5.88462 27.8662 0.19503 31.2683 0.00588138 36.7063C-0.217415 43.1099 5.94892 47.5777 13.1748 48.3092C19.4017 48.9406 23.6968 49.1286 31.0002 49.1286C38.2998 49.1286 42.5949 48.9407 48.8218 48.3092C56.0477 47.5777 62.214 43.1099 61.9927 36.7063C61.8034 31.2574 56.0892 27.8539 51.3648 24.575ZM48.5001 17.0764V17.0795L48.4981 17.0764H48.5001ZM32.6576 7.00588C32.703 6.85498 32.7352 6.71176 32.7636 6.57624L32.7655 6.5716L32.7712 6.53001C32.7826 6.47146 32.7958 6.41607 32.8052 6.35752V6.35289C32.8355 6.14344 32.8582 5.91703 32.8582 5.67683C32.8582 5.47665 32.8451 5.27952 32.8204 5.08544L32.8166 5.05775L32.7977 4.95918C32.7731 4.80828 32.7485 4.66043 32.7106 4.51407C32.7106 4.51249 32.7106 4.50943 32.7106 4.50786L32.7012 4.47247L32.6766 4.4016C32.6312 4.24912 32.5858 4.09664 32.529 3.95037C32.5271 3.9488 32.5271 3.9488 32.5271 3.9488L32.5233 3.93648C33.2536 2.93851 34.5838 2.26856 36.1107 2.27014C37.2725 2.27014 38.3093 2.64902 39.0718 3.26811C39.8306 3.88719 40.296 4.7312 40.2979 5.67683C40.2979 6.78263 39.6451 7.7529 38.6385 8.3781C38.3604 8.37189 38.0804 8.36578 37.7909 8.36578H33.5791C33.1515 8.10083 32.7901 7.77596 32.5176 7.40171C32.5365 7.35549 32.5555 7.31084 32.5744 7.26156C32.5782 7.25387 32.5801 7.24766 32.582 7.23849C32.6066 7.16762 32.6312 7.09676 32.652 7.02283C32.6558 7.01514 32.6577 7.00746 32.6615 6.99819L32.6576 7.00588ZM45.7982 19.4559C44.8843 17.8449 46.8937 13.3372 37.2119 13.3372C34.3037 13.3372 32.5876 13.3372 31.6019 13.3372C31.6208 13.3372 31.4771 13.3372 31.0002 13.3372C30.8394 13.3372 30.6369 13.3372 30.3947 13.3372C29.4089 13.3372 27.6947 13.3372 24.7865 13.3372C15.1028 13.3372 17.1141 17.8449 16.2002 19.4559C15.5891 20.5324 14.5995 21.5365 13.4074 22.516C13.4131 21.7445 13.4188 20.9636 13.4263 20.2398C13.432 19.3619 13.4377 18.5703 13.4452 17.9851C13.449 17.694 13.4529 17.4537 13.4566 17.2828C13.4585 17.1982 13.4604 17.1303 13.4623 17.0857L13.4642 17.0487C13.5985 15.9876 13.8389 14.5045 15.0007 13.2647C15.5891 12.638 16.4103 12.0511 17.6761 11.5752C18.9401 11.1008 20.66 10.7482 23.0042 10.6605C23.6135 10.6374 24.1338 10.2939 24.2871 9.8134C24.4422 9.33289 24.1944 8.82617 23.6779 8.56281C22.4878 7.95604 21.7007 6.89332 21.7007 5.67673C21.7007 4.7311 22.1662 3.88719 22.9268 3.26801C23.6873 2.64883 24.7261 2.27004 25.8841 2.27004C27.0439 2.27004 28.0809 2.64893 28.8434 3.26801C29.2104 3.56676 29.5037 3.921 29.7138 4.31063L29.7289 4.33064C29.7403 4.35685 29.7498 4.38297 29.763 4.40762C29.85 4.58631 29.922 4.76954 29.973 4.95899L29.9767 4.97436L29.9824 4.99132C29.9843 4.999 29.9862 5.01132 29.9881 5.02217C30.0392 5.23319 30.0695 5.45181 30.0695 5.67673C30.0695 5.79836 30.0563 5.92936 30.0373 6.07099L30.0089 6.2219L30.0109 6.21569C29.99 6.3112 29.9692 6.39438 29.9484 6.46831L29.9464 6.476L29.8973 6.62227C29.8727 6.69619 29.8405 6.77317 29.8045 6.85172L29.7288 7.01495C29.3939 7.64172 28.8377 8.17466 28.1318 8.54428C28.1281 8.54733 28.1242 8.54891 28.1205 8.55196C28.0694 8.57818 28.0239 8.61199 27.9785 8.64284C27.952 8.66137 27.9255 8.67517 27.9029 8.6937C27.8688 8.72297 27.8404 8.75373 27.8063 8.78458C27.7818 8.81227 27.7533 8.83544 27.7287 8.86156C27.706 8.89241 27.6871 8.92621 27.6644 8.95706C27.6436 8.98939 27.6171 9.02025 27.6019 9.05405C27.5849 9.08333 27.5754 9.11723 27.564 9.14799C27.547 9.188 27.5281 9.22496 27.5206 9.2635C27.5129 9.28972 27.5111 9.31742 27.5074 9.34511C27.4979 9.39282 27.4903 9.44062 27.4885 9.48833C27.4885 9.49296 27.4865 9.49602 27.4865 9.50065C27.4865 9.52529 27.4942 9.54836 27.496 9.57152C27.4997 9.61922 27.5036 9.66545 27.5149 9.71168C27.5225 9.74558 27.5357 9.77949 27.5471 9.81024C27.5603 9.85026 27.5717 9.88722 27.5906 9.92418C27.6094 9.9642 27.634 9.99811 27.6587 10.0351C27.6758 10.0597 27.6871 10.0874 27.7079 10.112C27.7098 10.1167 27.7136 10.1197 27.7173 10.1244C27.7476 10.1583 27.7798 10.189 27.8119 10.2199C27.8403 10.2476 27.863 10.2754 27.8914 10.3C27.9197 10.3216 27.9519 10.34 27.9822 10.3616C28.0219 10.3878 28.0579 10.4171 28.0995 10.4386C28.1317 10.4571 28.1677 10.4709 28.2035 10.4879C28.247 10.5064 28.2887 10.5279 28.3341 10.5434C28.372 10.5587 28.4135 10.565 28.4552 10.5757C28.5006 10.588 28.544 10.6019 28.5914 10.6111C28.6254 10.6173 28.6614 10.6173 28.6993 10.6203C28.7523 10.6266 28.809 10.6357 28.8658 10.6357C28.8715 10.6357 28.8772 10.6357 28.8809 10.6357H32.7143H37.7908C38.1957 10.6357 38.5873 10.6465 38.9771 10.6604C41.0282 10.7405 42.6099 11.0207 43.8134 11.4089C44.8861 11.7538 45.6714 12.1789 46.2731 12.6409C47.1719 13.3309 47.6771 14.1133 47.995 14.9018C48.3053 15.6749 48.415 16.4326 48.4964 17.0502C48.4964 17.0702 48.4984 17.1257 48.5002 17.2073C48.5172 17.9203 48.5361 20.2475 48.557 22.4882C47.3799 21.518 46.4037 20.5231 45.7982 19.4559Z" fill="#9F7D05"/>
</svg>
