<svg width="49" height="38" viewBox="0 0 49 38" fill="none" xmlns="http://www.w3.org/2000/svg">
<path d="M41.6758 0.888916H48.9023L33.8633 15.7187C28.417 21.0863 19.5869 21.0863 14.1367 15.7187L-0.908203 0.888916H6.32422L17.75 12.1542C19.4147 13.7883 21.6582 14.7043 23.9956 14.7043C26.333 14.7043 28.5765 13.7883 30.2412 12.1542L41.6758 0.888916Z" fill="#23292F"/>
<path d="M6.23145 42.126H-1L14.1367 27.2048C19.583 21.8372 28.4131 21.8372 33.8633 27.2048L49 42.126H41.7734L30.25 30.7693C28.5853 29.1353 26.3418 28.2193 24.0044 28.2193C21.667 28.2193 19.4235 29.1353 17.7588 30.7693L6.23145 42.126Z" fill="#23292F"/>
</svg>
